<?xml version="1.0" standalone="no"?>
<!DOCTYPE svg PUBLIC "-//W3C//DTD SVG 1.1//EN" "http://www.w3.org/Graphics/SVG/1.1/DTD/svg11.dtd" >
<svg>
<metadata>
Created by FontForge 20090914 at Wed Sep 22 19:48:19 2021
 By www-data
Copyright (c) 2018, Cadson Demak (info@cadsondemak.com)
</metadata>
<defs>
<font id="Niramit-Bold" horiz-adv-x="0" >
  <font-face 
    font-family="Niramit Bold"
    font-weight="700"
    font-stretch="normal"
    units-per-em="1000"
    panose-1="0 0 8 0 0 0 0 0 0 0"
    ascent="800"
    descent="-200"
    x-height="484.998"
    cap-height="700"
    bbox="-686 -513 1169 1246"
    underline-thickness="50"
    underline-position="-50"
    unicode-range="U+000D-U+FB02"
  />
<missing-glyph horiz-adv-x="620" 
d="M90 747h440v-747h-440v747zM480 52v643h-340v-643h340z" />
    <glyph glyph-name="fi" unicode="fi" horiz-adv-x="572" 
d="M498 0h-131.998v379h-120v-379h-132v379h-89l28 106h61v67c0 34.667 8.33301 66 25 94s40.5 50 71.5 66s67.5 24 109.5 24c21.333 0 46.166 -2.83301 74.499 -8.5s50.5 -12.167 66.5 -19.5l-22 -101c-13.333 6 -29.833 11.167 -49.5 15.5s-38.834 6.5 -57.501 6.5
c-30.667 0 -52.667 -6.33301 -66 -19s-20 -32 -20 -58v-67h252v-485z" />
    <glyph glyph-name="fl" unicode="fl" horiz-adv-x="543" 
d="M498 734v-734h-132v379h-120v-379h-132v379h-89l28 106h61v67c0 34.667 8.33301 66 25 94s40.5 50 71.5 66s67.5 24 109.5 24c14 0 29.333 -2.33301 46 -7v5h132zM366 485v140c-10 2.66699 -21.333 4 -34 4c-30.667 0 -52.667 -6.33301 -66 -19s-20 -32 -20 -58v-67h120z
" />
    <glyph glyph-name="uni0E240E45" unicode="&#xe24;&#xe45;" horiz-adv-x="992" 
d="M459 389c0 18 1.99609 32.332 5.99609 42.999c-30.667 44 -77.667 66 -141 66c-41.333 0 -75.666 -7.16699 -102.999 -21.5s-49.666 -35.166 -66.999 -62.499l39 -25c17.333 21.333 41.333 36.666 72 45.999l42 -78c-21.333 -9.33301 -37 -22.333 -47 -39
s-15 -38 -15 -64v-59c8 2 16 3 24 3c25.333 0 46 -9 62 -27s24 -42.333 24 -73c0 -31.333 -10.833 -57.166 -32.5 -77.499s-50.834 -30.5 -87.501 -30.5c-36 0 -65.333 10.667 -88 32s-34 50 -34 86v120c0 35.333 8.33301 63.333 25 84l-113 72
c8.66699 38.667 27.334 74.667 56.001 108s64.167 60.166 106.5 80.499s87.5 30.5 135.5 30.5c84.667 0 151 -25.667 199 -77c24 24.667 51.333 43.667 82 57s62.334 20 95.001 20c42 0 78 -7.66699 108 -23s56.333 -37 79 -65c7.33301 5.33301 14 8 20 8
c8.66699 0 17.334 -4.33301 26.001 -13c16.667 -16 25 -33 25 -51c0 -7.33301 -1.16699 -13 -3.5 -17s-5.83301 -8.33301 -10.5 -13s-8.16699 -9.16699 -10.5 -13.5s-3.5 -10.166 -3.5 -17.499v-757h-132v758c0 18 2 32.333 6 43c-14.667 20 -29.5 34.333 -44.5 43
s-34.5 13 -58.5 13c-34.667 0 -61.5 -10.5 -80.5 -31.5s-28.5 -47.833 -28.5 -80.5v-745h-132v748zM263.496 69.999c7.66699 7.33301 11.5 16.668 11.5 28.001s-3.83301 20.666 -11.5 27.999s-17.167 11 -28.5 11s-20.833 -3.66699 -28.5 -11s-11.5 -16.666 -11.5 -27.999
c0 -10.667 3.83301 -19.834 11.5 -27.501s17.167 -11.5 28.5 -11.5s20.833 3.66699 28.5 11z" />
    <glyph glyph-name="uni0E260E45" unicode="&#xe26;&#xe45;" horiz-adv-x="989" 
d="M456 389c0 18 2.00195 32.334 6.00195 43.001c-14.667 21.333 -33.334 37.666 -56.001 48.999s-48 17 -76 17c-41.333 0 -75.5 -7.16699 -102.5 -21.5s-49.167 -35.166 -66.5 -62.499l39 -25c17.333 21.333 41.333 36.666 72 45.999l42 -78
c-21.333 -9.33301 -37 -22.333 -47 -39s-15 -38 -15 -64v-102c8.66699 -14.667 13 -32.667 13 -54c0 -32 -10.833 -58 -32.5 -78s-50.834 -30 -87.501 -30s-65.834 10.5 -87.501 31.5s-32.5 46.5 -32.5 76.5c0 28.667 8 53.167 24 73.5s37 30.5 63 30.5
c4 0 7.33301 -0.333008 10 -1v27c0 37.333 7.66699 65.333 23 84l-113 72c8.66699 38.667 27.167 74.667 55.5 108s63.666 60.166 105.999 80.499s87.5 30.5 135.5 30.5c47.333 0 86 -6.5 116 -19.5s56 -32.833 78 -59.5c50.667 52.667 108.334 79 173.001 79
c42 0 78 -7.66699 108 -23s56.333 -37 79 -65c7.33301 5.33301 14 8 20 8c8.66699 0 17.334 -4.33301 26.001 -13c16.667 -16 25 -33 25 -51c0 -7.33301 -1.16699 -13 -3.5 -17s-5.83301 -8.33301 -10.5 -13s-8.16699 -9.16699 -10.5 -13.5s-3.5 -10.166 -3.5 -17.499v-757
h-132v758c0 18 2 32.333 6 43c-14.667 20 -29.5 34.333 -44.5 43s-34.5 13 -58.5 13c-34.667 0 -61.5 -10.5 -80.5 -31.5s-28.5 -47.833 -28.5 -80.5v-745h-132v748zM173.502 70.501c7.66699 7.66699 11.5 16.832 11.5 27.499c0 11.333 -3.83301 20.666 -11.5 27.999
s-17.167 11 -28.5 11s-20.833 -3.66699 -28.5 -11s-11.5 -16.666 -11.5 -27.999s3.83301 -20.666 11.5 -27.999s17.167 -11 28.5 -11s20.833 3.83301 28.5 11.5z" />
    <glyph glyph-name=".notdef" horiz-adv-x="620" 
d="M90 747h440v-747h-440v747zM480 52v643h-340v-643h340z" />
    <glyph glyph-name="nonmarkingreturn" unicode="&#xd;" horiz-adv-x="258" 
 />
    <glyph glyph-name="space" unicode=" " horiz-adv-x="258" 
 />
    <glyph glyph-name="exclam" unicode="!" horiz-adv-x="260" 
d="M61 700h135l-8 -489h-116zM68.5 22c-15.667 14.667 -23.5 34.334 -23.5 59.001s7.83301 44.334 23.5 59.001s36.167 22 61.5 22s45.833 -7.33301 61.5 -22s23.5 -34.334 23.5 -59.001s-7.83301 -44.334 -23.5 -59.001s-36.167 -22 -61.5 -22s-45.833 7.33301 -61.5 22z
" />
    <glyph glyph-name="quotedbl" unicode="&#x22;" horiz-adv-x="376" 
d="M35 693h132l-8 -190h-114zM209 693h132l-8 -190h-114z" />
    <glyph glyph-name="numbersign" unicode="#" horiz-adv-x="721" 
d="M576 411l-15 -135h99v-106h-111l-19 -170h-131l19 170h-138l-19 -170h-131l19 170h-114v106h126l15 135h-116v106h128l19 173h131l-19 -173h138l19 173h131l-19 -173h98v-106h-110zM445 411h-138l-15 -135h138z" />
    <glyph glyph-name="dollar" unicode="$" horiz-adv-x="605" 
d="M506.5 41c-42.333 -32 -100.165 -48.999 -173.498 -50.999v-88h-50v89c-50 4 -96.5 16.333 -139.5 37s-79.167 48 -108.5 82l79 80c24.667 -28 50.667 -49 78 -63s57.666 -22.667 90.999 -26v193l-5 2c-79.333 28.667 -136.5 60.834 -171.5 96.501
s-52.5 79.167 -52.5 130.5c0 56.667 20.833 101.167 62.5 133.5s97.167 50.166 166.5 53.499v89h50v-90c41.333 -2.66699 81 -11.834 119 -27.501s71.333 -35.834 100 -60.501l-69 -88c-26.667 22 -51.334 38.167 -74.001 48.5s-48 16.5 -76 18.5v-194
c2 -0.666992 6.66699 -2.33398 14 -5.00098c57.333 -22 101.833 -43.167 133.5 -63.5s54.5 -43.166 68.5 -68.499s21 -56.666 21 -93.999c0 -57.333 -21.167 -102 -63.5 -134zM209.501 472.001c13 -14 37.499 -29 73.499 -45v173c-29.333 -2 -52.166 -9.33301 -68.499 -22
s-24.5 -30.667 -24.5 -54c0 -20.667 6.5 -38 19.5 -52zM408 121.001c17.333 13.333 26 31.334 26 54.001c0 14.667 -2.5 27.167 -7.5 37.5s-14.833 20.333 -29.5 30s-36 20.5 -64 32.5v-176c32.667 1.33301 57.667 8.66602 75 21.999z" />
    <glyph glyph-name="percent" unicode="%" horiz-adv-x="811" 
d="M80.5 410.5c-30.333 29.667 -45.5 72.167 -45.5 127.5s15.167 97.833 45.5 127.5s71.5 44.5 123.5 44.5s93.167 -14.833 123.5 -44.5s45.5 -72.167 45.5 -127.5s-15.167 -97.833 -45.5 -127.5s-71.5 -44.5 -123.5 -44.5s-93.167 14.833 -123.5 44.5zM510 710h137
l-345 -720h-137zM233.5 487c7 11.333 10.5 28.333 10.5 51c0 22 -3.5 38.667 -10.5 50s-16.833 17 -29.5 17s-22.5 -5.66699 -29.5 -17s-10.5 -28 -10.5 -50c0 -22.667 3.5 -39.667 10.5 -51s16.833 -17 29.5 -17s22.5 5.66699 29.5 17zM483.5 34.5
c-30.333 29.667 -45.5 72.167 -45.5 127.5s15.167 97.833 45.5 127.5s71.5 44.5 123.5 44.5s93.167 -14.833 123.5 -44.5s45.5 -72.167 45.5 -127.5s-15.167 -97.833 -45.5 -127.5s-71.5 -44.5 -123.5 -44.5s-93.167 14.833 -123.5 44.5zM636.5 111
c7 11.333 10.5 28.333 10.5 51c0 22 -3.5 38.667 -10.5 50s-16.833 17 -29.5 17s-22.5 -5.66699 -29.5 -17s-10.5 -28 -10.5 -50c0 -22.667 3.5 -39.667 10.5 -51s16.833 -17 29.5 -17s22.5 5.66699 29.5 17z" />
    <glyph glyph-name="ampersand" unicode="&#x26;" horiz-adv-x="755" 
d="M155 16.5c-38.667 17.667 -68.333 42.4971 -89 74.4971s-31 68.333 -31 109c0 81.333 49.333 152.333 148 213c-22.667 25.333 -39.667 48.833 -51 70.5s-17 46.167 -17 73.5c0 44.667 16.333 81.334 49 110.001s75.667 43 129 43c34.667 0 65.5 -6.66699 92.5 -20
s47.833 -31.666 62.5 -54.999s22 -49.666 22 -78.999c0 -32 -7.66699 -59.833 -23 -83.5s-42.333 -49.834 -81 -78.501l122 -129c3.33301 21.333 5 40 5 56c0 12.667 -0.333008 22.667 -1 30h132c1.33301 -17.333 2 -29.666 2 -36.999c0 -58 -14.333 -111.333 -43 -160
l137 -154h-155l-61 68c-54.667 -52 -126 -78 -214 -78c-51.333 0 -96.333 8.83301 -135 26.5zM328.001 511.997c8 12 12 26.334 12 43.001c0 14 -4.33301 26 -13 36s-20 15 -34 15s-25.5 -4.83301 -34.5 -14.5s-13.5 -21.834 -13.5 -36.501
c0 -15.333 3.16699 -28.833 9.5 -40.5s17.833 -25.5 34.5 -41.5c18 14 31 27 39 39zM371.001 112.498c24 9 43.667 21.501 59 37.501l-168 177c-32 -19.333 -55.167 -38.833 -69.5 -58.5s-21.5 -42.167 -21.5 -67.5c0 -30.667 11 -55.334 33 -74.001s52 -28 90 -28
c27.333 0 53 4.5 77 13.5z" />
    <glyph glyph-name="quotesingle" unicode="'" horiz-adv-x="206" 
d="M35 693h136l-8 -190h-118z" />
    <glyph glyph-name="parenleft" unicode="(" horiz-adv-x="343" 
d="M67 80c-21.333 66.667 -32 142 -32 226s10.667 159.333 32 226s56.666 132.667 105.999 198h135c-50.667 -68 -86.167 -134.833 -106.5 -200.5s-30.5 -140.167 -30.5 -223.5s10.167 -157.833 30.5 -223.5s55.833 -132.5 106.5 -200.5h-135
c-49.333 65.333 -84.666 131.333 -105.999 198z" />
    <glyph glyph-name="parenright" unicode=")" horiz-adv-x="343" 
d="M141.5 82.5c20.333 65.667 30.5 140.167 30.5 223.5s-10.167 157.833 -30.5 223.5s-55.833 132.5 -106.5 200.5h135c49.333 -65.333 84.666 -131.333 105.999 -198s32 -142 32 -226s-10.667 -159.333 -32 -226s-56.666 -132.667 -105.999 -198h-135
c50.667 68 86.167 134.833 106.5 200.5z" />
    <glyph glyph-name="asterisk" unicode="*" horiz-adv-x="442" 
d="M175 350c-12.667 10 -19.002 23 -19.002 39c0 5.33301 0.333008 9.33301 1 12l8 40l-28 -23c-11.333 -9.33301 -24.666 -14 -39.999 -14c-11.333 0 -21.666 2.66699 -30.999 8s-17 13.333 -23 24c-5.33301 8.66699 -8 18.667 -8 30s3.5 21.333 10.5 30
s16.833 15.334 29.5 20.001l56 21l-56 21c-12.667 4.66699 -22.334 11.5 -29.001 20.5s-10 19.167 -10 30.5c0 10.667 3 21.334 9 32.001c5.33301 9.33301 12.833 16.5 22.5 21.5s19.834 7.5 30.501 7.5c15.333 0 28.666 -4.66699 39.999 -14l27 -23l-8 40
c-0.666992 2.66699 -1 6.66699 -1 12c0 16 6.33301 29 19 39s28 15 46 15s33.333 -5 46 -15s19 -23 19 -39c0 -5.33301 -0.333008 -9.33301 -1 -12l-8 -40l27 23c11.333 9.33301 24.666 14 39.999 14c10.667 0 20.834 -2.5 30.501 -7.5s17.167 -12.167 22.5 -21.5
c6 -10.667 9 -21.334 9 -32.001c0 -11.333 -3.33301 -21.5 -10 -30.5s-16.334 -15.833 -29.001 -20.5l-56 -21l56 -21c12.667 -4.66699 22.5 -11.334 29.5 -20.001s10.5 -18.667 10.5 -30s-2.66699 -21.333 -8 -30c-6 -10.667 -13.667 -18.667 -23 -24
s-19.666 -8 -30.999 -8c-15.333 0 -28.666 4.66699 -39.999 14l-28 23l8 -40c0.666992 -2.66699 1 -6.66699 1 -12c0 -16 -6.33301 -29 -19 -39s-28 -15 -46 -15s-33.333 5 -46 15z" />
    <glyph glyph-name="plus" unicode="+" horiz-adv-x="560" 
d="M516 232h-169v-178h-134v178h-169v106h169v178h134v-178h169v-106z" />
    <glyph glyph-name="comma" unicode="," horiz-adv-x="246" 
d="M35 -56c14.667 6 28.833 14.668 42.5 26.001s23.167 23 28.5 35c-18 0.666992 -33 7.66699 -45 21s-18 28.333 -18 45c0 23.333 7.66699 42 23 56s35.333 21 60 21c26.667 0 47.5 -7.83301 62.5 -23.5s22.5 -36.834 22.5 -63.501c0 -37.333 -12 -72 -36 -104
s-59 -58.333 -105 -79z" />
    <glyph glyph-name="hyphen" unicode="-" horiz-adv-x="522" 
d="M35 338h452v-106h-452v106z" />
    <glyph glyph-name="period" unicode="." horiz-adv-x="224" 
d="M57 21.5c-14.667 14.333 -22 31.833 -22 52.5s7.33301 38.167 22 52.5s33 21.5 55 21.5s40.333 -7.16699 55 -21.5s22 -31.833 22 -52.5s-7.33301 -38.167 -22 -52.5s-33 -21.5 -55 -21.5s-40.333 7.16699 -55 21.5z" />
    <glyph glyph-name="slash" unicode="/" horiz-adv-x="476" 
d="M306 710h135l-271 -710h-135z" />
    <glyph glyph-name="zero" unicode="0" horiz-adv-x="654" 
d="M112 85.5c-51.333 63.667 -77 152.5 -77 266.5c0 74.667 11.5 138.834 34.5 192.501s56.5 94.667 100.5 123s96.333 42.5 157 42.5s113 -14.167 157 -42.5s77.5 -69.333 100.5 -123s34.5 -117.834 34.5 -192.501c0 -114 -25.667 -202.833 -77 -266.5
s-123 -95.5 -215 -95.5s-163.667 31.833 -215 95.5zM442 163.5c27.333 43 41.002 105.833 41.002 188.5c0 81.333 -13.5 143.166 -40.5 185.499s-65.5 63.5 -115.5 63.5s-88.5 -21.167 -115.5 -63.5s-40.5 -104.166 -40.5 -185.499c0 -82.667 13.667 -145.5 41 -188.5
s65.666 -64.5 114.999 -64.5s87.666 21.5 114.999 64.5z" />
    <glyph glyph-name="one" unicode="1" horiz-adv-x="384" 
d="M186 500l-85 -71.999l-76 87l207 172c18.667 15.333 36 23 52 23c15.333 0 30 -7.33301 44 -22s21 -28.667 21 -42c0 -12.667 -7.33301 -25.334 -22 -38.001l-7 -6v-602h-134v500z" />
    <glyph glyph-name="two" unicode="2" horiz-adv-x="643" 
d="M48.5 9c-9 6 -13.5 17.998 -13.5 35.998c0 28 3.83301 46.333 11.5 55s20.5 13.334 38.5 14.001c18 33.333 41.5 62.333 70.5 87s68.167 53.334 117.5 86.001c36.667 23.333 65.667 43.5 87 60.5s39.166 36.167 53.499 57.5s21.5 45 21.5 71
c0 40.667 -9.5 71.667 -28.5 93s-47.833 32 -86.5 32c-46.667 0 -81.5 -12.333 -104.5 -37s-36.833 -67 -41.5 -127l-127 12c1.33301 52.667 13.5 98.667 36.5 138s54.667 69.666 95 90.999s87.5 32 141.5 32c80 0 141.833 -21 185.5 -63s65.5 -99 65.5 -171
c0 -37.333 -8.83301 -70.666 -26.5 -99.999s-39 -54.333 -64 -75s-57.833 -44.667 -98.5 -72c-35.333 -24 -63.166 -44 -83.499 -60s-36.5 -33.667 -48.5 -53h213l28 64l117 -40l-61 -140h-450c-23.333 0 -39.5 3 -48.5 9z" />
    <glyph glyph-name="three" unicode="3" horiz-adv-x="670" 
d="M147 43c-52.667 35.333 -90 87.666 -112 156.999l123 40c12.667 -49.333 34.5 -85.166 65.5 -107.499s70.833 -33.5 119.5 -33.5c104 0 156 44 156 132c0 38 -9.66699 66.833 -29 86.5s-46 29.5 -80 29.5c-14 0 -27.667 -2 -41 -6l-14 -18c-12 -15.333 -24 -23 -36 -23
s-29.333 7.66699 -52 23c-14 10 -21 20 -21 30c0 9.33301 5 22 15 38l133 203h-162l-30 -88l-103 66l44 128h419c18.667 0 32.667 -2.5 42 -7.5s14 -13.833 14 -26.5c0 -7.33301 -2 -17 -6 -29c-6 -17.333 -13.333 -28.833 -22 -34.5s-22 -8.5 -40 -8.5h-20l-101 -152
c14 4.66699 30.667 7 50 7c32 0 61.333 -8.33301 88 -25s48 -41.5 64 -74.5s24 -72.5 24 -118.5c0 -48 -11.5 -90.167 -34.5 -126.5s-56.5 -64.5 -100.5 -84.5s-96.333 -30 -157 -30c-78 0 -143.333 17.667 -196 53z" />
    <glyph glyph-name="four" unicode="4" horiz-adv-x="639" 
d="M381 141h-297c-18 0 -32.333 4.66699 -43 14s-16 21 -16 35s5.33301 27.333 16 40l378 452c16 18 32.667 27 50 27c14 0 27 -5 39 -15c20 -16 30 -31 30 -45c0 -8 -3.66699 -17.333 -11 -28l-12 -16v-358h89v-106h-89v-141h-134v141zM388 247v229l-191 -229h191z" />
    <glyph glyph-name="five" unicode="5" horiz-adv-x="643" 
d="M158 22.5c-49.333 21.667 -90.334 53.166 -123.001 94.499l82 80c32.667 -36.667 64 -62.167 94 -76.5s66.333 -21.5 109 -21.5c46.667 0 83.667 12 111 36s41 62.333 41 115c0 50.667 -13 88 -39 112s-60.667 36 -104 36c-37.333 0 -68.833 -8 -94.5 -24
s-49.167 -42 -70.5 -78l-97 35l36 272c-7.33301 2 -12.666 5.33301 -15.999 10s-5 11.334 -5 20.001c0 8 0.666992 14.667 2 20c3.33301 18.667 8.66602 31.167 15.999 37.5s19.333 9.5 36 9.5h427v-111h-345l-17 -127c39.333 30 86.666 45 141.999 45
c81.333 0 145.833 -22.167 193.5 -66.5s71.5 -107.833 71.5 -190.5c0 -56 -12.167 -103.5 -36.5 -142.5s-58.166 -68.333 -101.499 -88s-93 -29.5 -149 -29.5c-59.333 0 -113.666 10.833 -162.999 32.5z" />
    <glyph glyph-name="six" unicode="6" horiz-adv-x="641" 
d="M112 77.5c-51.333 58.333 -76.999 143.833 -76.999 256.5c0 82 12.5 151.167 37.5 207.5s60.167 98.5 105.5 126.5s98.666 42 159.999 42c70 0 124.833 -15 164.5 -45s65.167 -71.333 76.5 -124l-110 -38c-10.667 32.667 -26 57.167 -46 73.5s-49 24.5 -87 24.5
c-34.667 0 -65.667 -9 -93 -27s-49 -44.333 -65 -79s-24 -75.667 -24 -123h5c22 30.667 49.667 54.5 83 71.5s71 25.5 113 25.5c50.667 0 95 -9.66699 133 -29s67.167 -46.833 87.5 -82.5s30.5 -77.167 30.5 -124.5c0 -48 -10.833 -90.333 -32.5 -127s-53 -65.167 -94 -85.5
s-89.5 -30.5 -145.5 -30.5c-96.667 0 -170.667 29.167 -222 87.5zM434.001 134.5c24 23.667 36 56.5 36 98.5c0 40 -12 71.167 -36 93.5s-57.333 33.5 -100 33.5c-44 0 -78.333 -11.167 -103 -33.5s-37 -53.5 -37 -93.5c0 -42 12.333 -74.833 37 -98.5s59 -35.5 103 -35.5
c42.667 0 76 11.833 100 35.5z" />
    <glyph glyph-name="seven" unicode="7" horiz-adv-x="616" 
d="M207.5 205c15.667 59.333 39.999 114.835 72.999 166.502s77.833 108.5 134.5 170.5c10 11.333 15 27 15 47h-271l8 -45l-119 -50l-22 128c-0.666992 3.33301 -1 8 -1 14c0 18.667 5.66699 34 17 46s27 18 47 18h450c21.333 0 35.333 -3.66699 42 -11s10 -23 10 -47
c0 -18 -3.16699 -30.667 -9.5 -38s-15.5 -11 -27.5 -11c-1.33301 -22.667 -4.16602 -41 -8.49902 -55s-13.833 -29.333 -28.5 -46c-54.667 -60.667 -95.5 -112.334 -122.5 -155.001s-46 -87 -57 -133s-16.5 -103.667 -16.5 -173v-31h-134
c-2 77.333 4.83301 145.666 20.5 204.999z" />
    <glyph glyph-name="eight" unicode="8" horiz-adv-x="640" 
d="M110 45c-50 36.667 -75.002 88 -75.002 154c0 37.333 11.333 70.333 34 99s52.334 50.334 89.001 65.001c-28 13.333 -50.667 33.333 -68 60s-26 54.667 -26 84c0 62.667 22.833 112.167 68.5 148.5s108.167 54.5 187.5 54.5s141.833 -18.167 187.5 -54.5
s68.5 -85.833 68.5 -148.5c0 -29.333 -8.66699 -57.333 -26 -84s-40 -46.667 -68 -60c36.667 -14.667 66.334 -36.334 89.001 -65.001s34 -61.667 34 -99c0 -66 -25 -117.333 -75 -154s-120 -55 -210 -55s-160 18.333 -210 55zM407.498 434
c21.667 17.333 32.4961 41.333 32.4961 72s-10.667 54.167 -32 70.5s-50.666 24.5 -87.999 24.5s-66.666 -8.16699 -87.999 -24.5s-32 -39.833 -32 -70.5s10.833 -54.667 32.5 -72s50.834 -26 87.501 -26s65.834 8.66699 87.501 26zM430.494 125.5
c25.667 17.667 38.5 42.5 38.5 74.5c0 34.667 -12.833 61.5 -38.5 80.5s-62.5 28.5 -110.5 28.5s-84.833 -9.5 -110.5 -28.5s-38.5 -45.833 -38.5 -80.5c0 -32 12.833 -56.833 38.5 -74.5s62.5 -26.5 110.5 -26.5s84.833 8.83301 110.5 26.5z" />
    <glyph glyph-name="nine" unicode="9" horiz-adv-x="641" 
d="M143 35.5c-42.667 30.333 -69.667 71.5 -81 123.5l110 38c21.333 -65.333 69 -98 143 -98c52 0 93.667 20.167 125 60.5s47 96.5 47 168.5h-5c-46 -64.667 -108 -97 -186 -97c-52.667 0 -98.667 9.66699 -138 29s-69.666 46.833 -90.999 82.5s-32 77.167 -32 124.5
c0 48 10.833 90.333 32.5 127s53 65.167 94 85.5s89.5 30.5 145.5 30.5c96.667 0 170.667 -29.5 222 -88.5s77 -145.167 77 -258.5c0 -123.333 -25.667 -216.333 -77 -279s-123.333 -94 -216 -94c-70.667 0 -127.334 15.167 -170.001 45.5zM410 373.5
c24.667 22.333 37 53.5 37 93.5c0 42 -12.333 74.833 -37 98.5s-59 35.5 -103 35.5c-42.667 0 -76 -11.833 -100 -35.5s-36 -56.5 -36 -98.5c0 -40 12 -71.167 36 -93.5s57.333 -33.5 100 -33.5c44 0 78.333 11.167 103 33.5z" />
    <glyph glyph-name="colon" unicode=":" horiz-adv-x="232" 
d="M58 386.5c-15.333 15 -22.998 33.499 -22.998 55.499s7.66699 40.833 23 56.5s34.666 23.5 57.999 23.5s42.666 -7.83301 57.999 -23.5s23 -34.5 23 -56.5c0 -21.333 -7.83301 -39.666 -23.5 -54.999s-34.834 -23 -57.501 -23c-23.333 0 -42.666 7.5 -57.999 22.5z
M58.002 25.499c-15.333 15 -22.998 33.499 -22.998 55.499s7.66699 40.833 23 56.5s34.666 23.5 57.999 23.5s42.666 -7.83301 57.999 -23.5s23 -34.5 23 -56.5c0 -21.333 -7.83301 -39.666 -23.5 -54.999s-34.834 -23 -57.501 -23c-23.333 0 -42.666 7.5 -57.999 22.5z" />
    <glyph glyph-name="semicolon" unicode=";" horiz-adv-x="241" 
d="M66 386.5c-15.333 15 -22.998 33.499 -22.998 55.499s7.66699 40.833 23 56.5s34.666 23.5 57.999 23.5s42.666 -7.83301 57.999 -23.5s23 -34.5 23 -56.5c0 -21.333 -7.83301 -39.666 -23.5 -54.999s-34.834 -23 -57.501 -23c-23.333 0 -42.666 7.5 -57.999 22.5z
M35.002 -56.001c14.667 6 28.833 14.667 42.5 26s23.167 23 28.5 35c-18 0.666992 -33 7.66699 -45 21s-18 28.333 -18 45c0 23.333 7.66699 42 23 56s35.333 21 60 21c26 0 45.833 -7.66699 59.5 -23s20.5 -36.666 20.5 -63.999c0 -38 -11.333 -72.833 -34 -104.5
s-56.667 -57.834 -102 -78.501z" />
    <glyph glyph-name="less" unicode="&#x3c;" horiz-adv-x="619" 
d="M77 214c-14.667 6 -25.333 13.168 -32 21.501s-10 19.166 -10 32.499c0 18.667 4.16699 33.667 12.5 45s20.5 17 36.5 17c6 0 10.333 -0.333008 13 -1l12 -2l475 199v-125l-356 -138l356 -137v-125z" />
    <glyph glyph-name="equal" unicode="=" horiz-adv-x="560" 
d="M70 435h420v-106h-420v106zM70 241h420v-106h-420v106z" />
    <glyph glyph-name="greater" unicode="&#x3e;" horiz-adv-x="619" 
d="M35 126l356.001 136.999l-356 138v125l475 -199l12 2c2.66699 0.666992 7 1 13 1c16 0 28.167 -5.66699 36.5 -17s12.5 -26.333 12.5 -45c0 -13.333 -3.33301 -24.166 -10 -32.499s-17.334 -15.5 -32.001 -21.5l-507 -213v125z" />
    <glyph glyph-name="question" unicode="?" horiz-adv-x="534" 
d="M195 246c0 24 4.50098 45.3359 13.501 64.0029s19.667 34.667 32 48s28.833 29 49.5 47c24.667 21.333 43 39.833 55 55.5s18 33.5 18 53.5c0 28 -7.16699 49.5 -21.5 64.5s-36.5 22.5 -66.5 22.5c-31.333 0 -57.5 -8.5 -78.5 -25.5s-38.5 -43.5 -52.5 -79.5l-109 51
c17.333 51.333 48 91.333 92 120s94.333 43 151 43c45.333 0 84.666 -8.5 117.999 -25.5s58.833 -40.333 76.5 -70s26.5 -63.167 26.5 -100.5c0 -24 -4.33301 -45.333 -13 -64s-19.167 -34.334 -31.5 -47.001s-28.833 -27.334 -49.5 -44.001
c-26 -21.333 -45.167 -39.833 -57.5 -55.5s-18.5 -34.834 -18.5 -57.501v-35h-134v35zM201.501 22.0029c-15.667 14.667 -23.5 34.334 -23.5 59.001s7.83301 44.334 23.5 59.001s36.167 22 61.5 22s45.833 -7.33301 61.5 -22s23.5 -34.334 23.5 -59.001
s-7.83301 -44.334 -23.5 -59.001s-36.167 -22 -61.5 -22s-45.833 7.33301 -61.5 22z" />
    <glyph glyph-name="at" unicode="@" horiz-adv-x="879" 
d="M218.5 5c-59 30 -104.335 73.168 -136.002 129.501s-47.5 122.5 -47.5 198.5c0 81.333 16.667 152.833 50 214.5s80.5 109.167 141.5 142.5s132.167 50 213.5 50c82.667 0 154.5 -14.333 215.5 -43s107.667 -69.167 140 -121.5s48.5 -113.5 48.5 -183.5
c0 -54 -9.33301 -101.167 -28 -141.5s-44.5 -71.333 -77.5 -93s-70.167 -32.5 -111.5 -32.5c-22 0 -43 6.33301 -63 19s-35.333 30 -46 52h-2c-13.333 -23.333 -31.666 -41.166 -54.999 -53.499s-48.333 -18.5 -75 -18.5c-49.333 0 -89.333 17 -120 51s-46 80.667 -46 140
c0 56 8.83301 103.833 26.5 143.5s42.167 69.667 73.5 90s67 30.5 107 30.5c22 0 41.333 -4.16699 58 -12.5s30.334 -19.5 41.001 -33.5l7 32h100l-51 -286c-0.666992 -3.33301 -1 -8.33301 -1 -15c0 -12.667 2.83301 -22.5 8.5 -29.5s13.5 -10.5 23.5 -10.5
c29.333 0 52.5 15.167 69.5 45.5s25.5 71.166 25.5 122.499c0 81.333 -22.167 141.5 -66.5 180.5s-111.5 58.5 -201.5 58.5c-85.333 0 -151.5 -26 -198.5 -78s-70.5 -125.333 -70.5 -220c0 -84.667 22.167 -149.834 66.5 -195.501s107.5 -68.5 189.5 -68.5
c77.333 0 144.333 12.667 201 38v-100c-53.333 -31.333 -120.333 -47 -201 -47c-80 0 -149.5 15 -208.5 45zM451.998 252.001c13.333 18 23.334 49.001 30.001 93.001c2.66699 16.667 4 33.667 4 51c0 30.667 -4.83301 53.667 -14.5 69s-22.834 23 -39.501 23
c-27.333 0 -48.833 -15 -64.5 -45s-23.5 -71.667 -23.5 -125c0 -30.667 5.16699 -53.834 15.5 -69.501s24.5 -23.5 42.5 -23.5c20 0 36.667 9 50 27z" />
    <glyph glyph-name="A" unicode="A" horiz-adv-x="714" 
d="M284 660c14 38.667 40 58 78 58c24 0 43 -5 57 -15s21 -23.667 21 -41c0 -4 -1.33301 -10 -4 -18l243 -644h-140l-66 185h-232l-66 -185h-140zM444 291l-86 241l-86 -241h172z" />
    <glyph glyph-name="B" unicode="B" horiz-adv-x="622" 
d="M65 576c0 14 -1.83301 24.833 -5.5 32.5s-8.5 14.167 -14.5 19.5c-2.66699 2.66699 -5 5.5 -7 8.5s-3 6.16699 -3 9.5c0 2 0.666992 5 2 9c5.33301 15.333 14.166 29.666 26.499 42.999s25.166 20 38.499 20c14.667 0 27.334 -6 38.001 -18h201
c68.667 0 123.5 -17 164.5 -51s61.5 -80.667 61.5 -140c0 -34.667 -7 -63 -21 -85s-36.333 -41 -67 -57v-4c36 -16.667 63 -37 81 -61s27 -53.667 27 -89c0 -67.333 -21.667 -119.666 -65 -156.999s-102.666 -56 -177.999 -56h-279v576zM334 417
c30.667 0 54.5 8.16699 71.5 24.5s25.5 38.833 25.5 67.5c0 26.667 -8.5 47.5 -25.5 62.5s-40.833 22.5 -71.5 22.5h-137v-177h137zM339 106c36.667 0 64.5 9.16699 83.5 27.5s28.5 44.833 28.5 79.5c0 31.333 -9.5 55.5 -28.5 72.5s-46.833 25.5 -83.5 25.5h-142v-205h142z
" />
    <glyph glyph-name="C" unicode="C" horiz-adv-x="654" 
d="M124.5 85c-59.667 63.333 -89.5 152.001 -89.5 266.001c0 113.333 29 201.5 87 264.5s140 94.5 246 94.5c48 0 92.167 -8.33301 132.5 -25s72.5 -39.667 96.5 -69l-52 -90c-24 25.333 -49.167 44.166 -75.5 56.499s-60.166 18.5 -101.499 18.5
c-63.333 0 -112 -21.833 -146 -65.5s-51 -105.167 -51 -184.5s18 -141.166 54 -185.499s87 -66.5 153 -66.5c34.667 0 65 5.66699 91 17s50 29.666 72 54.999l78 -74c-26.667 -32.667 -61.834 -58.667 -105.501 -78s-89.5 -29 -137.5 -29c-108 0 -191.833 31.667 -251.5 95z
" />
    <glyph glyph-name="D" unicode="D" horiz-adv-x="663" 
d="M65 576c0 14 -1.83203 24.833 -5.49902 32.5s-8.5 14.167 -14.5 19.5c-2.66699 2.66699 -5 5.5 -7 8.5s-3 6.16699 -3 9.5c0 2 0.666992 5 2 9c5.33301 15.333 14.166 29.666 26.499 42.999s25.166 20 38.499 20c14.667 0 27.334 -6 38.001 -18h138
c72 0 134.333 -14.5 187 -43.5s93 -69.667 121 -122s42 -113.166 42 -182.499c0 -110 -30 -196.167 -90 -258.5s-145 -93.5 -255 -93.5h-218v576zM283.001 116c70.667 0 123.167 19.5 157.5 58.5s51.5 98.167 51.5 177.5c0 75.333 -18.333 132.833 -55 172.5
s-90.667 59.5 -162 59.5h-76v-468h84z" />
    <glyph glyph-name="E" unicode="E" horiz-adv-x="553" 
d="M65 576c0 14 -1.83203 24.834 -5.49902 32.501s-8.5 14.167 -14.5 19.5c-2.66699 2.66699 -5 5.5 -7 8.5s-3 6.16699 -3 9.5c0 2 0.666992 5 2 9c5.33301 15.333 14.166 29.666 26.499 42.999s25.166 20 38.499 20c14.667 0 27.334 -6 38.001 -18h369v-116h-310v-162h226
v-110h-226v-196h319v-116h-453v576z" />
    <glyph glyph-name="F" unicode="F" horiz-adv-x="544" 
d="M65 576c0 14 -1.83203 24.834 -5.49902 32.501s-8.5 14.167 -14.5 19.5c-2.66699 2.66699 -5 5.5 -7 8.5s-3 6.16699 -3 9.5c0 2 0.666992 5 2 9c5.33301 15.333 14.166 29.666 26.499 42.999s25.166 20 38.499 20c14.667 0 27.334 -6 38.001 -18h369v-116h-310v-175h226
v-110h-226v-299h-134v576z" />
    <glyph glyph-name="G" unicode="G" horiz-adv-x="676" 
d="M188.5 33c-49.667 28.667 -87.665 70 -113.998 124s-39.5 118.667 -39.5 194c0 113.333 29 201.5 87 264.5s140 94.5 246 94.5c48 0 92.167 -8.33301 132.5 -25s72.5 -39.667 96.5 -69l-52 -90c-24 25.333 -49.167 44.166 -75.5 56.499s-60.166 18.5 -101.499 18.5
c-63.333 0 -112 -21.833 -146 -65.5s-51 -105.167 -51 -184.5c0 -78.667 17.5 -140.334 52.5 -185.001s83.167 -67 144.5 -67c25.333 0 46 1.83301 62 5.5s31.667 9.83398 47 18.501v158h-153v111h212c11.333 12 24 18 38 18c13.333 0 26.166 -6.66699 38.499 -20
s21.166 -27.666 26.499 -42.999c1.33301 -4 2 -7 2 -9c0 -3.33301 -1 -6.5 -3 -9.5s-4.33301 -5.83301 -7 -8.5c-6 -5.33301 -10.833 -11.833 -14.5 -19.5s-5.5 -18.5 -5.5 -32.5v-202c-43.333 -27.333 -83.5 -46.833 -120.5 -58.5s-78.5 -17.5 -124.5 -17.5
c-68.667 0 -127.834 14.333 -177.501 43z" />
    <glyph glyph-name="H" unicode="H" horiz-adv-x="631" 
d="M45 700h134v-275h273v275h134v-700h-134v311h-273v-311h-134v700z" />
    <glyph glyph-name="I" unicode="I" horiz-adv-x="304" 
d="M85 700h134v-700h-134v700z" />
    <glyph glyph-name="J" unicode="J" horiz-adv-x="451" 
d="M104.5 4.5c-30.333 9.66699 -56.833 23.502 -79.5 41.502l53 91c20.667 -12.667 40.167 -21.834 58.5 -27.501s37.833 -8.5 58.5 -8.5c28.667 0 49.5 7.16699 62.5 21.5s19.5 37.166 19.5 68.499v509h134v-506c0 -62 -18.833 -111.5 -56.5 -148.5
s-89.5 -55.5 -155.5 -55.5c-32.667 0 -64.167 4.83301 -94.5 14.5z" />
    <glyph glyph-name="K" unicode="K" horiz-adv-x="626" 
d="M45 700h134v-243l218 243h163l-304 -334l335 -366h-164l-248 274v-274h-134v700z" />
    <glyph glyph-name="L" unicode="L" horiz-adv-x="534" 
d="M61.5 6.5c-11.667 11 -19.833 23.833 -24.5 38.5c-1.33301 4 -2 7 -2 9c0 3.33301 1 6.5 3 9.5s4.33301 5.83301 7 8.5c6 5.33301 10.833 11.833 14.5 19.5s5.5 18.5 5.5 32.5v576h134v-584h300v-116h-359c-12 -6.66699 -25.667 -10 -41 -10
c-13.333 0 -25.833 5.5 -37.5 16.5z" />
    <glyph glyph-name="M" unicode="M" horiz-adv-x="799" 
d="M362.5 0c-11 6.66699 -18.499 16 -22.499 28l-130 408l-40 -437h-135l69 631l-4 8c-4 7.33301 -6 15.333 -6 24c0 15.333 5.83301 28.5 17.5 39.5s28.5 16.5 50.5 16.5c27.333 0 47.166 -4.83301 59.499 -14.5s21.833 -25.834 28.5 -48.501l149 -465l150 465
c7.33301 22.667 17.166 38.834 29.499 48.501s31.833 14.5 58.5 14.5c22 0 38.833 -5.5 50.5 -16.5s17.5 -24.167 17.5 -39.5c0 -8.66699 -2 -16.667 -6 -24l-4 -7l69 -632h-135l-40 438l-118 -371l3 -10c2 -6 3 -11.333 3 -16c0 -16 -7.16699 -28.333 -21.5 -37
s-32.166 -13 -53.499 -13c-15.333 0 -28.5 3.33301 -39.5 10z" />
    <glyph glyph-name="N" unicode="N" horiz-adv-x="628" 
d="M58 597c0 7.33301 -1.16504 13.168 -3.49805 17.501s-5.5 8.83301 -9.5 13.5c-6.66699 8 -10 15.333 -10 22c0 6 0.666992 10.667 2 14c5.33301 17.333 14.666 30.666 27.999 39.999s28.666 14 45.999 14c26 0 45.333 -10 58 -30l280 -448v460h134v-700h-113l-278 443
v-443h-134v597z" />
    <glyph glyph-name="O" unicode="O" horiz-adv-x="692" 
d="M178 34.5c-46.667 29.667 -82.167 71.5 -106.5 125.5s-36.5 117.333 -36.5 190s12.167 136 36.5 190s59.833 95.833 106.5 125.5s102.667 44.5 168 44.5s121.333 -14.833 168 -44.5s82.167 -71.5 106.5 -125.5s36.5 -117.333 36.5 -190s-12.167 -136 -36.5 -190
s-59.833 -95.833 -106.5 -125.5s-102.667 -44.5 -168 -44.5s-121.333 14.833 -168 44.5zM476 165.5c30 44.333 45 105.833 45 184.5s-15 140.167 -45 184.5s-73.333 66.5 -130 66.5s-100 -22.167 -130 -66.5s-45 -105.833 -45 -184.5s15 -140.167 45 -184.5
s73.333 -66.5 130 -66.5s100 22.167 130 66.5z" />
    <glyph glyph-name="P" unicode="P" horiz-adv-x="613" 
d="M61 594c0 14 -4.66602 25.001 -13.999 33.001c-4 4 -7 7.5 -9 10.5s-3 7.5 -3 13.5c0 4 0.333008 7 1 9c3.33301 16.667 11.166 30.5 23.499 41.5s26.833 16.5 43.5 16.5c18.667 0 35 -6 49 -18h136c93.333 0 165 -20.833 215 -62.5s75 -99.834 75 -174.501
s-24.333 -133 -73 -175s-119 -63 -211 -63h-99v-225h-134v594zM291.001 341.001c48.667 0 86 10.167 112 30.5s39 50.833 39 91.5c0 40 -13 70.167 -39 90.5s-63.333 30.5 -112 30.5h-96v-243h96z" />
    <glyph glyph-name="Q" unicode="Q" horiz-adv-x="692" 
d="M604.5 129c-35 -60 -84.833 -100.669 -149.5 -122.002l134 -169h-159l-112 153c-59.333 4 -110.333 21.333 -153 52s-75 72.334 -97 125.001s-33 113.334 -33 182.001c0 72.667 12.167 136 36.5 190s59.833 95.833 106.5 125.5s102.667 44.5 168 44.5
s121.333 -14.833 168 -44.5s82.167 -71.5 106.5 -125.5s36.5 -117.333 36.5 -190c0 -87.333 -17.5 -161 -52.5 -221zM216 165.498c30 -44.333 73.333 -66.5 130 -66.5s100 22.167 130 66.5s45 105.833 45 184.5s-15 140.167 -45 184.5s-73.333 66.5 -130 66.5
s-100 -22.167 -130 -66.5s-45 -105.833 -45 -184.5s15 -140.167 45 -184.5z" />
    <glyph glyph-name="R" unicode="R" horiz-adv-x="613" 
d="M61 594c0 8.66699 -1.16602 14.998 -3.49902 18.998s-6.16602 8.66699 -11.499 14c-7.33301 6 -11 13.333 -11 22c0 4.66699 0.333008 8.33398 1 11.001c3.33301 16.667 11.166 30.5 23.499 41.5s26.833 16.5 43.5 16.5c18.667 0 35 -6 49 -18h136
c94.667 0 166.667 -18.667 216 -56s74 -92.666 74 -165.999c0 -60 -16.333 -107.833 -49 -143.5s-80.334 -58.167 -143.001 -67.5l176 -267h-152l-169 256h-46v-256h-134v594zM291.001 370.998c50.667 0 88.5 8 113.5 24s37.5 43.667 37.5 83s-12.5 66.833 -37.5 82.5
s-62.833 23.5 -113.5 23.5h-96v-213h96z" />
    <glyph glyph-name="S" unicode="S" horiz-adv-x="605" 
d="M158.5 21.5c-49 21 -90.166 50.4971 -123.499 88.4971l79 80c29.333 -32.667 60.5 -56 93.5 -70s70.833 -21 113.5 -21c36.667 0 64.667 6.66699 84 20s29 32 29 56c0 17.333 -3.83301 31.833 -11.5 43.5s-22.5 23.5 -44.5 35.5s-55.333 26 -100 42
c-79.333 28.667 -136.5 60.834 -171.5 96.501s-52.5 79.167 -52.5 130.5c0 59.333 23 105.333 69 138s106.333 49 181 49c46.667 0 91.667 -7.83301 135 -23.5s81 -37.5 113 -65.5l-69 -88c-30.667 25.333 -58.834 43 -84.501 53s-57.167 15 -94.5 15
c-36 0 -64 -6.5 -84 -19.5s-30 -32.167 -30 -57.5c0 -17.333 4.33301 -32 13 -44s24.167 -24 46.5 -36s54.833 -26.333 97.5 -43c57.333 -22 101.833 -43.167 133.5 -63.5s54.5 -43.166 68.5 -68.499s21 -56.666 21 -93.999c0 -59.333 -22.5 -105 -67.5 -137
s-106.5 -48 -184.5 -48c-57.333 0 -110.5 10.5 -159.5 31.5z" />
    <glyph glyph-name="T" unicode="T" horiz-adv-x="604" 
d="M235 584h-200v116h534v-116h-200v-584h-134v584z" />
    <glyph glyph-name="U" unicode="U" horiz-adv-x="644" 
d="M114.5 62c-49.667 48 -74.498 114.667 -74.498 200v438h134v-444c0 -49.333 13 -87.833 39 -115.5s62.333 -41.5 109 -41.5s83 13.833 109 41.5s39 66.167 39 115.5v444h134v-438c0 -85.333 -24.833 -152 -74.5 -200s-118.834 -72 -207.501 -72s-157.834 24 -207.501 72z
" />
    <glyph glyph-name="V" unicode="V" horiz-adv-x="690" 
d="M265 41c0 8.66699 2.66699 17.667 8 27l-238 632h138l173 -489l172 489h137l-245 -660c-6 -16.667 -15.333 -29.167 -28 -37.5s-27 -12.5 -43 -12.5c-12 0 -24.333 2.66699 -37 8c-24.667 10.667 -37 25 -37 43z" />
    <glyph glyph-name="W" unicode="W" horiz-adv-x="843" 
d="M153 16.5c-7.33301 9 -11.0029 18.8311 -11.0029 29.498c0 4 1.33301 10.667 4 20l3 8l-114 626h135l70 -457l121 428c3.33301 12.667 10.333 22.334 21 29.001s23.667 10 39 10c24.667 0 43.834 -4.33301 57.501 -13s20.5 -20 20.5 -34
c0 -3.33301 -0.666992 -7.66602 -2 -12.999l-3 -10l110 -395l69 455h135l-116 -626l3 -8c2.66699 -9.33301 4 -16 4 -20c0 -10.667 -3.66699 -20.5 -11 -29.5s-18.666 -15.5 -33.999 -19.5c-14 -4 -26.667 -6 -38 -6c-16.667 0 -30.5 5 -41.5 15s-19.5 25.667 -25.5 47
l-127 454l-130 -454c-6 -21.333 -14.5 -37 -25.5 -47s-24.833 -15 -41.5 -15c-11.333 0 -24 2 -38 6c-15.333 4 -26.666 10.5 -33.999 19.5z" />
    <glyph glyph-name="X" unicode="X" horiz-adv-x="702" 
d="M276 375l-220 325h150l145 -222l145 222h150l-220 -325l241 -375h-150l-166 272l-166 -272h-150z" />
    <glyph glyph-name="Y" unicode="Y" horiz-adv-x="664" 
d="M267 268l-232 432h145l152 -310l152 310h145l-232 -432v-268h-130v268z" />
    <glyph glyph-name="Z" unicode="Z" horiz-adv-x="632" 
d="M103 -12c-14.667 0 -34 12.999 -58 38.999c-6.66699 7.33301 -10 14.333 -10 21c0 5.33301 1.33301 10.5 4 15.5s7 11.167 13 18.5l352 502h-345v116h428l7 7c7.33301 8.66699 18.333 13 33 13s28 -5 40 -15c19.333 -16.667 29 -32 29 -46
c0 -11.333 -6 -25.666 -18 -42.999l-351 -500h370v-116h-465l-14 -8c-4.66699 -2.66699 -9.66699 -4 -15 -4z" />
    <glyph glyph-name="bracketleft" unicode="[" horiz-adv-x="264" 
d="M40 746h219v-106h-85v-668h85v-106h-219v880z" />
    <glyph glyph-name="backslash" unicode="\" horiz-adv-x="480" 
d="M35 710h135l275 -722h-135z" />
    <glyph glyph-name="bracketright" unicode="]" horiz-adv-x="264" 
d="M5 -28h85v668h-85v106h219v-880h-219v106z" />
    <glyph glyph-name="asciicircum" unicode="^" horiz-adv-x="494" 
d="M189 696c6 11.333 13.667 19.5 23 24.5s22 7.5 38 7.5c18 0 32.833 -4.33301 44.5 -13s17.5 -20 17.5 -34c0 -8 -1.33301 -15 -4 -21l-2 -5l153 -224h-139l-79 144l-67 -144h-139z" />
    <glyph glyph-name="underscore" unicode="_" horiz-adv-x="592" 
d="M35 -46h522v-106h-522v106z" />
    <glyph glyph-name="grave" unicode="`" horiz-adv-x="303" 
d="M35 728h149l84 -189h-109z" />
    <glyph glyph-name="a" unicode="a" horiz-adv-x="586" 
d="M140 19c-32.667 19.333 -58.333 47.3301 -77 83.9971s-28 80.334 -28 131.001c0 54 9.5 100.667 28.5 140s45.667 69.333 80 90s74.5 31 120.5 31c54 0 99 -20.333 135 -61v51h127v-349c0 -23.333 2 -42.666 6 -57.999s10.333 -30.666 19 -45.999l-107 -42
c-20 22 -31.333 47 -34 75h-2c-18.667 -24 -41.5 -42.5 -68.5 -55.5s-56.5 -19.5 -88.5 -19.5c-41.333 0 -78.333 9.66699 -111 29zM366.001 132.497c20 25 30.001 58.501 30.001 100.501v18c0 38.667 -9.83301 71.5 -29.5 98.5s-47.834 40.5 -84.501 40.5
c-37.333 0 -65.833 -13.333 -85.5 -40s-29.5 -65.334 -29.5 -116.001c0 -45.333 9.5 -79.833 28.5 -103.5s46.5 -35.5 82.5 -35.5c38.667 0 68 12.5 88 37.5z" />
    <glyph glyph-name="b" unicode="b" horiz-adv-x="590" 
d="M35 31c8.66699 15.333 14.999 30.832 18.999 46.499s6 35.167 6 58.5v598h132v-297c18 17.333 39.667 31.333 65 42s52.333 16 81 16c66 0 118.667 -22 158 -66s59 -106 59 -186c0 -50 -9.83301 -94.167 -29.5 -132.5s-46.667 -68 -81 -89s-72.166 -31.5 -113.499 -31.5
c-64.667 0 -116.334 25 -155.001 75c-3.33301 -29.333 -14.666 -54.666 -33.999 -75.999zM393.999 133.499c19.333 25.667 29.001 62.167 29.001 109.5c0 98 -39 147 -117 147c-37.333 0 -66 -13.5 -86 -40.5s-30 -59.833 -30 -98.5v-18c0 -42 10.167 -75.5 30.5 -100.5
s50.166 -37.5 89.499 -37.5c36.667 0 64.667 12.833 84 38.5z" />
    <glyph glyph-name="c" unicode="c" horiz-adv-x="534" 
d="M106 57c-47.333 44.667 -70.999 106.333 -70.999 185c0 79.333 23.333 141.333 70 186s111 67 193 67c38 0 73.333 -6.16699 106 -18.5s59 -28.5 79 -48.5l-45 -87c-38.667 31.333 -83.334 47 -134.001 47c-42 0 -75 -12 -99 -36s-36 -60.667 -36 -110
c0 -48.667 12.167 -85 36.5 -109s58.166 -36 101.499 -36c24.667 0 46.834 3.83301 66.501 11.5s38.5 20.167 56.5 37.5l69 -72c-22 -26 -50.333 -46.5 -85 -61.5s-71.667 -22.5 -111 -22.5c-84 0 -149.667 22.333 -197 67z" />
    <glyph glyph-name="d" unicode="d" horiz-adv-x="590" 
d="M414 65c-38.667 -50 -90.334 -75 -155.001 -75c-42.667 0 -81 9.66699 -115 29s-60.667 47.333 -80 84s-29 80.334 -29 131.001c0 54 9.66699 100.667 29 140s46.333 69.333 81 90s75 31 121 31c28.667 0 53.5 -5.16699 74.5 -15.5s40.167 -24.5 57.5 -42.5v297h132v-598
c0 -23.333 2 -42.833 6 -58.5s10.333 -31.167 19 -46.5l-107 -42c-19.333 21.333 -30.666 46.666 -33.999 75.999zM369.5 132.5c20.333 25 30.501 58.501 30.501 100.501v18c0 39.333 -9.83301 72.333 -29.5 99s-48.5 40 -86.5 40s-67 -13.333 -87 -40
s-30 -65.334 -30 -116.001c0 -45.333 9.66699 -79.833 29 -103.5s47.333 -35.5 84 -35.5c39.333 0 69.166 12.5 89.499 37.5z" />
    <glyph glyph-name="e" unicode="e" horiz-adv-x="560" 
d="M104.5 57c-46.333 44.667 -69.502 105.332 -69.502 181.999c0 50 9.33301 94.333 28 133s46.334 68.834 83.001 90.501s81 32.5 133 32.5c50.667 0 94.667 -10.5 132 -31.5s65.666 -49.667 84.999 -86s29 -76.833 29 -121.5c0 -22 -7.16699 -38.833 -21.5 -50.5
s-34.166 -17.5 -59.499 -17.5h-278c0 -27.333 11.833 -49.333 35.5 -66s54.5 -25 92.5 -25c31.333 0 57.833 4.5 79.5 13.5s40.834 21.833 57.501 38.5l66 -70c-22 -28 -50.333 -49.833 -85 -65.5s-74 -23.5 -118 -23.5c-80 0 -143.167 22.333 -189.5 67zM393.998 290.998
c0 29.333 -10.833 53.166 -32.5 71.499s-49.167 27.5 -82.5 27.5c-32 0 -58.833 -9.16699 -80.5 -27.5s-32.5 -42.166 -32.5 -71.499h228z" />
    <glyph glyph-name="f" unicode="f" horiz-adv-x="429" 
d="M114 379l-89.001 0.00195312l28 106h61v83c0 49.333 16.5 89.666 49.5 120.999s77.833 47 134.5 47c17.333 0 36 -2.5 56 -7.5s36.667 -11.5 50 -19.5l-24 -96c-8.66699 4 -19.667 7.66699 -33 11s-25.666 5 -36.999 5c-20.667 0 -36.5 -5.33301 -47.5 -16
s-16.5 -26.334 -16.5 -47.001v-81h144l-27 -106h-117v-379h-132v379z" />
    <glyph glyph-name="g" unicode="g" horiz-adv-x="590" 
d="M87 -174l38.999 95c40.667 -21.333 86.334 -32 137.001 -32c50 0 85 12.333 105 37s30 59.667 30 105v27c-16.667 -18 -36.667 -32.167 -60 -42.5s-49 -15.5 -77 -15.5c-68 0 -122.667 21.5 -164 64.5s-62 104.167 -62 183.5c0 52.667 9.33301 97.667 28 135
s44.334 65.666 77.001 84.999s70.334 29 113.001 29c64 0 117.667 -25 161 -75c3.33301 29.333 14.666 54.666 33.999 75.999l107 -42c-8.66699 -15.333 -15 -30.666 -19 -45.999s-6 -35 -6 -59v-308c0 -85.333 -22.833 -150.166 -68.5 -194.499
s-111.834 -66.5 -198.501 -66.5c-60 0 -118.667 14.667 -176 44zM369.999 145.5c20 27 29.998 59.832 29.998 98.499v10c0 42 -10.167 75.5 -30.5 100.5s-50.166 37.5 -89.499 37.5c-36.667 0 -64.667 -12.167 -84 -36.5s-29 -60.166 -29 -107.499
c0 -49.333 9.83301 -85.5 29.5 -108.5s48.834 -34.5 87.501 -34.5c37.333 0 66 13.5 86 40.5z" />
    <glyph glyph-name="h" unicode="h" horiz-adv-x="554" 
d="M374.5 52.5c-5 21.667 -7.50098 46.1689 -7.50098 73.502v161c0 67.333 -28 101 -84 101c-33.333 0 -60.166 -13 -80.499 -39s-30.5 -59 -30.5 -99v-250h-132v734h132v-302c19.333 19.333 41.333 34.666 66 45.999s51 17 79 17c121.333 0 182 -69.333 182 -208v-158
c0 -36.667 6.66699 -68.334 20 -95.001l-120 -44c-11.333 20 -19.5 40.833 -24.5 62.5z" />
    <glyph glyph-name="i" unicode="i" horiz-adv-x="280" 
d="M75.5 564c-17 16 -25.5 36.333 -25.5 61s8.5 45 25.5 61s38.5 24 64.5 24s47.5 -8 64.5 -24s25.5 -36.333 25.5 -61s-8.5 -45 -25.5 -61s-38.5 -24 -64.5 -24s-47.5 8 -64.5 24zM74 485h132v-485h-132v485z" />
    <glyph glyph-name="j" unicode="j" horiz-adv-x="453" 
d="M248.5 564c-17 16 -25.5 36.333 -25.5 61s8.5 45 25.5 61s38.5 24 64.5 24s47.5 -8 64.5 -24s25.5 -36.333 25.5 -61s-8.5 -45 -25.5 -61s-38.5 -24 -64.5 -24s-47.5 8 -64.5 24zM96.5 -202c-31 10.667 -54.833 24.333 -71.5 41l48 88c34 -25.333 69.333 -38 106 -38
c23.333 0 40.5 6.5 51.5 19.5s16.5 34.833 16.5 65.5v511h132v-503c0 -66 -16 -115.833 -48 -149.5s-79.333 -50.5 -142 -50.5c-30.667 0 -61.5 5.33301 -92.5 16z" />
    <glyph glyph-name="k" unicode="k" horiz-adv-x="512" 
d="M45 734h132v-390l135 141h162l-232 -230l255 -255h-170l-150 157v-157h-132v734z" />
    <glyph glyph-name="l" unicode="l" horiz-adv-x="222" 
d="M45 734h132v-734h-132v734z" />
    <glyph glyph-name="m" unicode="m" horiz-adv-x="801" 
d="M621.5 52.5c-5 21.667 -7.50098 46.1699 -7.50098 73.5029v163c0 34 -5.66699 59 -17 75s-28.333 24 -51 24c-52.667 0 -79 -33 -79 -99v-289h-130v290c0 35.333 -5.16699 60.5 -15.5 75.5s-26.833 22.5 -49.5 22.5c-28.667 0 -49.667 -10.167 -63 -30.5
s-20 -50.833 -20 -91.5v-266h-132v349c0 20 -1.5 37.333 -4.5 52s-8.83301 31 -17.5 49l110 45c6 -10.667 11.5 -23.334 16.5 -38.001s7.83301 -27.334 8.5 -38.001c14 24.667 32.667 43.5 56 56.5s48.333 19.5 75 19.5c52.667 0 91.667 -24.667 117 -74
c21.333 26 44.333 44.833 69 56.5s54 17.5 88 17.5c54.667 0 96.834 -16 126.501 -48s44.5 -74 44.5 -126v-192c0 -36.667 6.66699 -68.334 20 -95.001l-120 -44c-11.333 20 -19.5 40.833 -24.5 62.5z" />
    <glyph glyph-name="n" unicode="n" horiz-adv-x="571" 
d="M391.5 52.5c-5 21.667 -7.5 46.1699 -7.5 73.5029v161c0 67.333 -28 101 -84 101c-33.333 0 -60.166 -13 -80.499 -39s-30.5 -59 -30.5 -99v-250h-132v349c0 20 -1.5 37.333 -4.5 52s-8.83301 31 -17.5 49l117 45c6 -10.667 11.5 -23.334 16.5 -38.001
s7.83301 -27.334 8.5 -38.001c19.333 22.667 43.166 41 71.499 55s58.5 21 90.5 21c62 0 107 -17.833 135 -53.5s42 -87.167 42 -154.5v-158c0 -36.667 6.66699 -68.334 20 -95.001l-120 -44c-11.333 20 -19.5 40.833 -24.5 62.5z" />
    <glyph glyph-name="o" unicode="o" horiz-adv-x="568" 
d="M152.5 20.5c-37.667 21 -66.667 50.667 -87 89s-30.5 82.5 -30.5 132.5s10.167 94.167 30.5 132.5s49.333 68 87 89s81.5 31.5 131.5 31.5s93.833 -10.5 131.5 -31.5s66.667 -50.667 87 -89s30.5 -82.5 30.5 -132.5s-10.167 -94.167 -30.5 -132.5s-49.333 -68 -87 -89
s-81.5 -31.5 -131.5 -31.5s-93.833 10.5 -131.5 31.5zM370 134.5c19.333 25.667 29 61.5 29 107.5s-9.66699 81.833 -29 107.5s-48 38.5 -86 38.5s-66.667 -12.833 -86 -38.5s-29 -61.5 -29 -107.5s9.66699 -81.833 29 -107.5s48 -38.5 86 -38.5s66.667 12.833 86 38.5z" />
    <glyph glyph-name="p" unicode="p" horiz-adv-x="590" 
d="M60 351c0 24 -1.99902 43.667 -5.99902 59s-10.333 30.666 -19 45.999l107 42c19.333 -21.333 30.666 -46.666 33.999 -75.999c43.333 50 97 75 161 75c42 0 79.5 -10 112.5 -30s58.833 -49 77.5 -87s28 -83.333 28 -136s-9.5 -98 -28.5 -136s-45.5 -66.833 -79.5 -86.5
s-73.333 -29.5 -118 -29.5c-28 0 -53.667 5.16699 -77 15.5s-43.333 24.5 -60 42.5v-269h-132v570zM423.001 244c0 47.333 -9.66797 83.833 -29.001 109.5s-47.333 38.5 -84 38.5c-39.333 0 -69.166 -12.5 -89.499 -37.5s-30.5 -58.5 -30.5 -100.5v-18
c0 -38.667 10 -71.5 30 -98.5s48.667 -40.5 86 -40.5c78 0 117 49 117 147z" />
    <glyph glyph-name="q" unicode="q" horiz-adv-x="593" 
d="M398 -88l0.000976562 138c-16.667 -18 -36.667 -32.167 -60 -42.5s-49 -15.5 -77 -15.5c-44.667 0 -84 9.83301 -118 29.5s-60.5 48.5 -79.5 86.5s-28.5 83.333 -28.5 136s9.33301 98 28 136s44.5 67 77.5 87s70.5 30 112.5 30c64 0 117.667 -25 161 -75
c3.33301 29.333 14.666 54.666 33.999 75.999l107 -42c-8.66699 -15.333 -15 -30.666 -19 -45.999s-6 -35 -6 -59v-439c0 -36 9.33301 -68.667 28 -98l-116 -46c-29.333 44 -44 92 -44 144zM370.001 137.5c20 27 29.999 59.833 29.999 98.5v18
c0 42 -10.167 75.5 -30.5 100.5s-50.166 37.5 -89.499 37.5c-36.667 0 -64.667 -12.833 -84 -38.5s-29 -62.167 -29 -109.5c0 -98 39 -147 117 -147c37.333 0 66 13.5 86 40.5z" />
    <glyph glyph-name="r" unicode="r" horiz-adv-x="416" 
d="M57 349c0 20 -1.50195 37.334 -4.50195 52.001s-8.83301 31 -17.5 49l117 45c6 -10.667 11.5 -23.334 16.5 -38.001s7.83301 -27.334 8.5 -38.001c18 25.333 36.833 44.333 56.5 57s42.167 19 67.5 19c20 0 37.5 -2.66699 52.5 -8s30.833 -14.333 47.5 -27l-49 -91
c-11.333 6.66699 -21.666 11.5 -30.999 14.5s-19.666 4.5 -30.999 4.5c-34.667 0 -60.167 -10.667 -76.5 -32s-24.5 -53.666 -24.5 -96.999v-259h-132v349z" />
    <glyph glyph-name="s" unicode="s" horiz-adv-x="508" 
d="M144.5 15.5c-41.667 17 -78.1699 41.5049 -109.503 73.5049l74 79c22.667 -24 48.334 -42.333 77.001 -55s59.334 -19 92.001 -19c20.667 0 36.334 3.16699 47.001 9.5s16 15.166 16 26.499c0 8.66699 -2.16699 16 -6.5 22s-13.833 12.333 -28.5 19s-37 14.667 -67 24
c-66 20.667 -112.667 43.167 -140 67.5s-41 56.166 -41 95.499c0 43.333 17.333 77 52 101s83.334 36 146.001 36c70.667 0 134.334 -20 191.001 -60l-45 -86c-28 15.333 -53.333 26.166 -76 32.499s-46.334 9.5 -71.001 9.5c-22 0 -38.333 -2.83301 -49 -8.5
s-16 -13.834 -16 -24.501c0 -8.66699 2.83301 -15.834 8.5 -21.501s15.5 -11.5 29.5 -17.5s35.333 -13.333 64 -22c45.333 -14 80.833 -28.333 106.5 -43s44.5 -32 56.5 -52s18 -45 18 -75c0 -41.333 -17.333 -74.5 -52 -99.5s-82.334 -37.5 -143.001 -37.5
c-47.333 0 -91.833 8.5 -133.5 25.5z" />
    <glyph glyph-name="t" unicode="t" horiz-adv-x="399" 
d="M151.5 30c-25 26 -37.5 63.333 -37.5 112v237h-89l28 106h63v101l128 59v-160h130l-26 -106h-102v-240c0 -15.333 3.33301 -26.333 10 -33s17 -10 31 -10c16.667 0 31.667 3.33301 45 10l31 -95c-11.333 -5.33301 -26.833 -10 -46.5 -14s-38.5 -6 -56.5 -6
c-47.333 0 -83.5 13 -108.5 39z" />
    <glyph glyph-name="u" unicode="u" horiz-adv-x="556" 
d="M132 15.5c-28.667 17 -51.168 41.3311 -67.501 72.998s-24.5 68.167 -24.5 109.5v287h132v-287c0 -67.333 31.667 -101 95 -101c33.333 0 58.333 11.167 75 33.5s25 51.833 25 88.5v266h132v-349c0 -20 1.5 -37.333 4.5 -52s8.83301 -31 17.5 -49l-117 -45
c-6 10.667 -11.5 23.334 -16.5 38.001s-7.83301 27.334 -8.5 38.001c-33.333 -50.667 -82.666 -76 -147.999 -76c-37.333 0 -70.333 8.5 -99 25.5z" />
    <glyph glyph-name="v" unicode="v" horiz-adv-x="573" 
d="M228.5 3c-11.667 8.66699 -17.502 19.667 -17.502 33c0 6.66699 0.666992 11.667 2 15l2 6l-180 428h138l114 -311l113 311h138l-191 -458c-5.33301 -12.667 -13.666 -22 -24.999 -28s-27.666 -9 -48.999 -9c-18 0 -32.833 4.33301 -44.5 13z" />
    <glyph glyph-name="w" unicode="w" horiz-adv-x="722" 
d="M169.5 3c-10.333 8.66699 -15.499 21 -15.499 37c0 6 0.333008 10.667 1 14l1 6l-121 425h136l62 -287l77 266c3.33301 10.667 9.66602 18.5 18.999 23.5s23 7.5 41 7.5c23.333 0 39.833 -3.66699 49.5 -11s14.5 -18.333 14.5 -33c0 -6.66699 -0.333008 -11.667 -1 -15
l-4 -22l61 -216l61 287h136l-121 -425l1 -6c0.666992 -3.33301 1 -8 1 -14c0 -16 -5.16699 -28.333 -15.5 -37s-25.833 -13 -46.5 -13c-21.333 0 -37.333 3.66699 -48 11s-18 18.333 -22 33l-75 264l-75 -264c-4 -14.667 -11.333 -25.667 -22 -33s-26.667 -11 -48 -11
c-20.667 0 -36.167 4.33301 -46.5 13z" />
    <glyph glyph-name="x" unicode="x" horiz-adv-x="552" 
d="M189 251l-154 234h148l93 -154l93 154h148l-154 -234l154 -251h-150l-91 165l-91 -165h-150z" />
    <glyph glyph-name="y" unicode="y" horiz-adv-x="589" 
d="M69 -123c45.333 15.333 81.166 35.5 107.499 60.5s44.833 60.167 55.5 105.5l-197 442h153l112 -298l102 298h152l-197 -487c-25.333 -62 -56.666 -110 -93.999 -144s-89.333 -61.667 -156 -83z" />
    <glyph glyph-name="z" unicode="z" horiz-adv-x="545" 
d="M102 -10c-10 0 -20.501 3.66504 -31.501 10.998s-20.833 19 -29.5 35c-4 8 -6 15.333 -6 22c0 12.667 6.66699 23.334 20 32.001c5.33301 3.33301 10.333 7.66602 15 12.999l256 276h-266v106h335c14 0 23.667 1.66699 29 5c4.66699 3.33301 11 5 19 5
c8.66699 0 17.5 -2.16699 26.5 -6.5s17.167 -11.166 24.5 -20.499c10.667 -14 16 -26 16 -36c0 -11.333 -5.33301 -22.666 -16 -33.999l-271 -292h284v-106h-356c-13.333 0 -23.666 -2 -30.999 -6c-4.66699 -2.66699 -10.667 -4 -18 -4z" />
    <glyph glyph-name="braceleft" unicode="{" horiz-adv-x="367" 
d="M140 -104c-22 20 -33 47 -33 81v238c0 25.333 -10.667 38 -32 38h-40v106h40c21.333 0 32 12.667 32 38v238c0 34 11 61 33 81s51 30 87 30h105v-106h-70c-6.66699 0 -11.834 -2 -15.501 -6s-5.5 -9.33301 -5.5 -16v-212c0 -25.333 -3 -45.5 -9 -60.5
s-18 -28.167 -36 -39.5c18 -11.333 30 -24.5 36 -39.5s9 -35.167 9 -60.5v-212c0 -6.66699 1.83301 -12 5.5 -16s8.83398 -6 15.501 -6h70v-106h-105c-36 0 -65 10 -87 30z" />
    <glyph glyph-name="bar" unicode="|" horiz-adv-x="214" 
d="M40 800h134v-940h-134v940z" />
    <glyph glyph-name="braceright" unicode="}" horiz-adv-x="367" 
d="M35 -28h70c6.66699 0 11.834 2 15.501 6s5.5 9.33301 5.5 16v212c0 25.333 3 45.5 9 60.5s18 28.167 36 39.5c-18 11.333 -30 24.5 -36 39.5s-9 35.167 -9 60.5v212c0 6.66699 -1.83301 12 -5.5 16s-8.83398 6 -15.501 6h-70v106h105c36 0 65 -10 87 -30s33 -47 33 -81
v-238c0 -25.333 10.667 -38 32 -38h40v-106h-40c-21.333 0 -32 -12.667 -32 -38v-238c0 -34 -11 -61 -33 -81s-51 -30 -87 -30h-105v106z" />
    <glyph glyph-name="asciitilde" unicode="~" horiz-adv-x="603" 
d="M35 241c37.333 64 90 96 158 96c17.333 0 34.333 -2.33301 51 -7s36.334 -11.667 59.001 -21c26 -9.33301 45.5 -15.833 58.5 -19.5s26.5 -5.5 40.5 -5.5c23.333 0 41.666 4.5 54.999 13.5s25.666 22.833 36.999 41.5l74 -66c-16 -33.333 -37.167 -58.333 -63.5 -75
s-56.166 -25 -89.499 -25c-16.667 0 -33.5 2.33301 -50.5 7s-37.5 11.667 -61.5 21c-26.667 9.33301 -46.667 15.833 -60 19.5s-27 5.5 -41 5.5c-36 0 -65.667 -19.667 -89 -59z" />
    <glyph glyph-name="uni00A0" unicode="&#xa0;" horiz-adv-x="258" 
 />
    <glyph glyph-name="exclamdown" unicode="&#xa1;" horiz-adv-x="260" 
d="M68.5 324c-15.667 14.667 -23.5 34.334 -23.5 59.001s7.83301 44.334 23.5 59.001s36.167 22 61.5 22s45.833 -7.33301 61.5 -22s23.5 -34.334 23.5 -59.001s-7.83301 -44.334 -23.5 -59.001s-36.167 -22 -61.5 -22s-45.833 7.33301 -61.5 22zM72 253h116l8 -489h-135z
" />
    <glyph glyph-name="cent" unicode="&#xa2;" horiz-adv-x="534" 
d="M424 17c-30 -14.667 -62.332 -23.333 -96.999 -26v-89h-52v89c-75.333 5.33301 -134.166 29.833 -176.499 73.5s-63.5 102.834 -63.5 177.501c0 75.333 21.167 135.166 63.5 179.499s101.166 68.5 176.499 72.5v94h52v-94c32 -2.66699 61.667 -10 89 -22
s49.666 -26.667 66.999 -44l-45 -87c-33.333 26.667 -70.333 42 -111 46v-289c20 1.33301 38.167 5.83301 54.5 13.5s32.5 19.167 48.5 34.5l69 -72c-20 -23.333 -45 -42.333 -75 -57zM196.501 143.001c18.333 -23.333 44.5 -38 78.5 -44v287
c-33.333 -5.33301 -59.333 -19.833 -78 -43.5s-28 -57.167 -28 -100.5c0 -42.667 9.16699 -75.667 27.5 -99z" />
    <glyph glyph-name="sterling" unicode="&#xa3;" horiz-adv-x="598" 
d="M45 93c26 5.33301 50.168 17.666 72.501 36.999s40.333 42.5 54 69.5s20.5 54.167 20.5 81.5c0 7.33301 -0.333008 13 -1 17h-156l26 106h96c-10.667 18 -18.667 35.5 -24 52.5s-8 34.833 -8 53.5c0 36.667 10.333 70.334 31 101.001s49 54.834 85 72.501
s76.333 26.5 121 26.5c41.333 0 79.666 -7.83301 114.999 -23.5s64 -36.834 86 -63.501l-48 -89c-40 44.667 -91 67 -153 67c-32.667 0 -57.667 -8.33301 -75 -25s-26 -38.667 -26 -66c0 -20 2.66699 -38.333 8 -55s14.333 -33.667 27 -51h175l-28 -106h-117
c0 -72.667 -28.667 -136.667 -86 -192h316v-106h-511v93z" />
    <glyph glyph-name="currency" unicode="&#xa4;" horiz-adv-x="602" 
d="M21 133l82.998 88c-28.667 32 -43 70.667 -43 116c0 42 12 77.667 36 107l-82 87l84 81l88 -94c37.333 16.667 75.333 25 114 25s76.667 -8.33301 114 -25l88 94l84 -81l-82 -87c24 -29.333 36 -65 36 -107c0 -45.333 -14.333 -84 -43 -116l83 -88l-84 -81l-93 99
c-35.333 -14 -69.666 -21 -102.999 -21s-67.666 7 -102.999 21l-93 -99zM384.998 262c20 17.333 30 42.333 30 75c0 32 -10 56.667 -30 74s-48 26 -84 26s-64 -8.66699 -84 -26s-30 -42 -30 -74c0 -32.667 10 -57.667 30 -75s48 -26 84 -26s64 8.66699 84 26z" />
    <glyph glyph-name="yen" unicode="&#xa5;" horiz-adv-x="664" 
d="M398 269h140v-46h-141v-66h141v-46h-141v-111h-130v111h-140v46h140v66h-140v46h139l-231 431h145l152 -310l152 310h145z" />
    <glyph glyph-name="brokenbar" unicode="&#xa6;" horiz-adv-x="214" 
d="M40 800h134v-394h-134v394zM40 254h134v-394h-134v394z" />
    <glyph glyph-name="section" unicode="&#xa7;" horiz-adv-x="508" 
d="M144.5 -32.5c-41.667 17 -78.168 41.502 -109.501 73.502l74 79c22.667 -24 48.334 -42.333 77.001 -55s59.334 -19 92.001 -19c20 0 35.5 4.66699 46.5 14s16.5 20 16.5 32c0 14 -6.5 26.667 -19.5 38s-40.5 23.666 -82.5 36.999c-64.667 20.667 -111 45 -139 73
s-42 61.667 -42 101c0 44 19 83 57 117c-20 14.667 -34.5 31.334 -43.5 50.001s-13.5 41 -13.5 67c0 44 17.667 79.5 53 106.5s83.666 40.5 144.999 40.5c70.667 0 134.334 -20 191.001 -60l-45 -86c-28 15.333 -53.333 26.166 -76 32.499s-46.334 9.5 -71.001 9.5
c-20.667 0 -36.667 -4.33301 -48 -13s-17 -18.667 -17 -30c0 -12 2.66699 -21.667 8 -29s15 -14 29 -20s35.667 -13.333 65 -22c45.333 -14 80.833 -28.333 106.5 -43s44.5 -32 56.5 -52s18 -45 18 -75c0 -22 -5 -43.833 -15 -65.5s-24 -40.834 -42 -57.501
c20 -15.333 34.5 -32.833 43.5 -52.5s13.5 -42.834 13.5 -69.501c0 -27.333 -7.66699 -52.166 -23 -74.499s-37.833 -40 -67.5 -53s-64.5 -19.5 -104.5 -19.5c-47.333 0 -91.833 8.5 -133.5 25.5zM340.999 325.002c0 10.667 -4.16797 21.832 -12.501 33.499
s-22.166 21.5 -41.499 29.5c-18.667 8 -40 14.667 -64 20c-22 -13.333 -33 -33.666 -33 -60.999c0 -26 16 -45.667 48 -59c20 -8.66699 46.333 -18 79 -28c16 22 24 43.667 24 65z" />
    <glyph glyph-name="dieresis" unicode="&#xa8;" horiz-adv-x="433" 
d="M56.5 570c-14.333 14 -21.5 31.667 -21.5 53s7.16699 39 21.5 53s32.5 21 54.5 21s39.833 -7.16699 53.5 -21.5s20.5 -31.833 20.5 -52.5s-6.83301 -38.167 -20.5 -52.5s-31.5 -21.5 -53.5 -21.5s-40.167 7 -54.5 21zM269.5 570c-14.333 14 -21.5 31.667 -21.5 53
s7.16699 39 21.5 53s32.5 21 54.5 21s39.833 -7.16699 53.5 -21.5s20.5 -31.833 20.5 -52.5s-6.83301 -38.167 -20.5 -52.5s-31.5 -21.5 -53.5 -21.5s-40.167 7 -54.5 21z" />
    <glyph glyph-name="copyright" unicode="&#xa9;" horiz-adv-x="846" 
d="M226.5 34c-59 30 -105.663 72.333 -139.996 127s-51.5 117.334 -51.5 188.001s17.167 133.5 51.5 188.5s81.166 97.5 140.499 127.5s124.666 45 195.999 45s136.666 -15 195.999 -45s106.166 -72.5 140.499 -127.5s51.5 -117.833 51.5 -188.5
s-17.167 -133.334 -51.5 -188.001s-81 -97 -140 -127s-124.5 -45 -196.5 -45s-137.5 15 -196.5 45zM556.004 126c40 18.667 72 46.834 96 84.501s36 83.834 36 138.501s-12 101 -36 139s-56.167 66.333 -96.5 85s-84.5 28 -132.5 28s-92.167 -9.33301 -132.5 -28
s-72.5 -47 -96.5 -85s-36 -84.333 -36 -139s12 -100.834 36 -138.501s56 -65.834 96 -84.501s84.333 -28 133 -28s93 9.33301 133 28zM314.004 163c-34 16.667 -60.8301 40.999 -80.4971 72.999s-29.5 69.333 -29.5 112c0 43.333 9.5 80.833 28.5 112.5s45.5 56 79.5 73
s72.333 25.5 115 25.5c33.333 0 64.666 -6 93.999 -18s55.333 -29.333 78 -52l-52 -77c-34.667 30 -73.334 45 -116.001 45c-30 0 -54 -9.5 -72 -28.5s-27 -45.833 -27 -80.5c0 -34 9.66699 -60.5 29 -79.5s45.666 -28.5 78.999 -28.5c20 0 37.667 3.33301 53 10
s31.333 18.334 48 35.001l68 -69c-52 -52 -112 -78 -180 -78c-42.667 0 -81 8.33301 -115 25z" />
    <glyph glyph-name="ordfeminine" unicode="&#xaa;" horiz-adv-x="426" 
d="M75.5 426.5c-27 28.333 -40.4961 67.832 -40.4961 118.499c0 52.667 14.667 94.667 44 126s66.666 47 111.999 47c35.333 0 64.666 -13.333 87.999 -40v34h96v-233c0 -15.333 1.16699 -28 3.5 -38s6.5 -20 12.5 -30l-82 -27c-12.667 14 -20.334 30 -23.001 48h-1
c-12 -15.333 -26.833 -27.166 -44.5 -35.499s-36.834 -12.5 -57.501 -12.5c-44.667 0 -80.5 14.167 -107.5 42.5zM278.004 544.999l-0.000976562 11c0 25.333 -6 46 -18 62s-30 24 -54 24c-23.333 0 -41.166 -8 -53.499 -24s-18.5 -40.333 -18.5 -73
c0 -57.333 23 -86 69 -86c50 0 75 28.667 75 86z" />
    <glyph glyph-name="guillemotleft" unicode="&#xab;" horiz-adv-x="519" 
d="M43 233c-5.33301 8 -8 17 -8 27s2.66699 19 8 27l127 190h129l-139 -217l139 -217h-129zM228 233c-5.33301 8 -8 17 -8 27s2.66699 19 8 27l127 190h129l-139 -217l139 -217h-129z" />
    <glyph glyph-name="logicalnot" unicode="&#xac;" horiz-adv-x="482" 
d="M313 232h-278v106h412v-239h-134v133z" />
    <glyph glyph-name="uni00AD" unicode="&#xad;" horiz-adv-x="522" 
d="M35 338h452v-106h-452v106z" />
    <glyph glyph-name="registered" unicode="&#xae;" horiz-adv-x="846" 
d="M226.5 34c-59 30 -105.663 72.333 -139.996 127s-51.5 117.334 -51.5 188.001s17.167 133.5 51.5 188.5s81.166 97.5 140.499 127.5s124.666 45 195.999 45s136.666 -15 195.999 -45s106.166 -72.5 140.499 -127.5s51.5 -117.833 51.5 -188.5
s-17.167 -133.334 -51.5 -188.001s-81 -97 -140 -127s-124.5 -45 -196.5 -45s-137.5 15 -196.5 45zM556.004 126c40 18.667 72 46.834 96 84.501s36 83.834 36 138.501s-12 101 -36 139s-56.167 66.333 -96.5 85s-84.5 28 -132.5 28s-92.167 -9.33301 -132.5 -28
s-72.5 -47 -96.5 -85s-36 -84.333 -36 -139s12 -100.834 36 -138.501s56 -65.834 96 -84.501s84.333 -28 133 -28s93 9.33301 133 28zM270.004 464c0 5.33301 -1.33301 10 -4 14s-4.33398 6.33301 -5.00098 7c-6 6 -9 12.333 -9 19c0 4 1 9 3 15
c5.33301 12.667 12.833 22.667 22.5 30s21.167 11 34.5 11c14 0 25 -5.33301 33 -16h105c48.667 0 86.834 -11.667 114.501 -35s41.5 -57 41.5 -101c0 -30 -9.5 -55 -28.5 -75s-44.833 -34.333 -77.5 -43l89 -130h-123l-71 114h-16v-114h-109v304zM434.004 358
c41.333 0 62 16.667 62 50c0 34.667 -19.667 52 -59 52h-58v-102h55z" />
    <glyph glyph-name="macron" unicode="&#xaf;" horiz-adv-x="422" 
d="M35 640h352v-101h-352v101z" />
    <glyph glyph-name="degree" unicode="&#xb0;" horiz-adv-x="338" 
d="M59 505.5c-29.333 25.667 -44 58.5 -44 98.5s14.667 73 44 99s66 39 110 39s80.667 -13 110 -39s44 -59 44 -99s-14.667 -72.833 -44 -98.5s-66 -38.5 -110 -38.5s-80.667 12.833 -110 38.5zM204 569.5c9.33301 9 14 20.5 14 34.5c0 14.667 -4.66699 26.667 -14 36
s-21 14 -35 14s-25.667 -4.66699 -35 -14s-14 -21.333 -14 -36c0 -14 4.66699 -25.5 14 -34.5s21 -13.5 35 -13.5s25.667 4.5 35 13.5z" />
    <glyph glyph-name="plusminus" unicode="&#xb1;" horiz-adv-x="560" 
d="M510 388v-106h-163v-138h-134v138h-163v106h163v138h134v-138h163zM50 106h460v-106h-460v106z" />
    <glyph glyph-name="uni00B2" unicode="&#xb2;" horiz-adv-x="509" 
d="M47.5 423c-8.33301 6 -12.499 18 -12.499 36c0 24.667 3.16699 41.167 9.5 49.5s16.5 12.833 30.5 13.5c14 26 32.5 47.667 55.5 65s51.5 35 85.5 53c33.333 18 57.666 33.667 72.999 47s23 30.333 23 51c0 48 -20.667 72 -62 72c-19.333 0 -34.833 -2.66699 -46.5 -8
s-21 -15.666 -28 -30.999s-11.5 -38 -13.5 -68l-120 12c0 38 8.33301 71.833 25 101.5s40.667 52.834 72 69.501s68 25 110 25c62 0 109.333 -15.667 142 -47s49 -73.333 49 -126c0 -24.667 -5.66699 -46 -17 -64s-25.166 -32.833 -41.499 -44.5
s-37.5 -24.834 -63.5 -39.501c-22.667 -12.667 -40.834 -23.834 -54.501 -33.501s-24.5 -20.5 -32.5 -32.5h112l21 49l110 -38l-51 -121h-332c-20.667 0 -35.167 3 -43.5 9z" />
    <glyph glyph-name="uni00B3" unicode="&#xb3;" horiz-adv-x="527" 
d="M119.5 441.5c-40.333 25.667 -68.5 64.166 -84.5 115.499l116 37c8 -32.667 22 -55.834 42 -69.501s45.333 -20.5 76 -20.5c34.667 0 59.167 6.5 73.5 19.5s21.5 31.5 21.5 55.5c0 20 -6 35.333 -18 46s-28.333 16 -49 16c-2.66699 0 -7.66699 -0.666992 -15 -2l-8 -10
c-10 -13.333 -20.667 -20 -32 -20c-12 0 -28.667 7 -50 21c-6.66699 4.66699 -11.667 8.83398 -15 12.501s-5 8.16699 -5 13.5c0 8.66699 4.66699 20 14 34l75 111h-77l-20 -60l-95 62l33 97h311c17.333 0 30.166 -2.33301 38.499 -7s12.5 -13 12.5 -25
c0 -6 -1.66699 -15 -5 -27c-5.33301 -16.667 -12 -27.5 -20 -32.5s-20.333 -7.5 -37 -7.5h-14l-50 -70c8 2.66699 20 4 36 4c20 0 39 -6.16699 57 -18.5s32.667 -30.166 44 -53.499s17 -51.333 17 -84c0 -53.333 -19.667 -96 -59 -128s-94 -48 -164 -48
c-59.333 0 -109.166 12.833 -149.499 38.5z" />
    <glyph glyph-name="acute" unicode="&#xb4;" horiz-adv-x="303" 
d="M119 728h149l-124 -189h-109z" />
    <glyph glyph-name="paragraph" unicode="&#xb6;" horiz-adv-x="684" 
d="M276 274c-47.333 0 -89.168 8.5 -125.501 25.5s-64.666 41.333 -84.999 73s-30.5 68.5 -30.5 110.5c0 67.333 22.333 120.333 67 159s105 58 181 58h366v-106h-53v-774h-134v774h-52v-774h-134v454z" />
    <glyph glyph-name="periodcentered" unicode="&#xb7;" horiz-adv-x="224" 
d="M57 287.5c-14.667 14.333 -22 31.833 -22 52.5s7.33301 38.167 22 52.5s33 21.5 55 21.5s40.333 -7.16699 55 -21.5s22 -31.833 22 -52.5s-7.33301 -38.167 -22 -52.5s-33 -21.5 -55 -21.5s-40.333 7.16699 -55 21.5z" />
    <glyph glyph-name="cedilla" unicode="&#xb8;" horiz-adv-x="315" 
d="M35 -184l34 62c24.667 -17.333 48 -26 70 -26c23.333 0 35 9.66699 35 29s-11.667 29 -35 29c-6.66699 0 -14.334 -1 -23.001 -3l-24 26l45 73h96l-30 -47c51.333 -10.667 77 -40 77 -88c0 -28 -11.167 -51.333 -33.5 -70s-52.166 -28 -89.499 -28
c-44 0 -84.667 14.333 -122 43z" />
    <glyph glyph-name="uni00B9" unicode="&#xb9;" horiz-adv-x="318" 
d="M141 719l-46 -40l-70 81l154 128c19.333 16.667 36 25 50 25s27 -8.33301 39 -25c10 -14.667 15 -26 15 -34c0 -6 -3 -12 -9 -18l-7 -7l1 -417h-127v307z" />
    <glyph glyph-name="ordmasculine" unicode="&#xba;" horiz-adv-x="411" 
d="M82.5 430c-31.667 30.667 -47.5 71 -47.5 121s15.833 90.333 47.5 121s72.5 46 122.5 46c50.667 0 91.834 -15.333 123.501 -46s47.5 -71 47.5 -121s-15.833 -90.333 -47.5 -121s-72.834 -46 -123.501 -46c-50 0 -90.833 15.333 -122.5 46zM259 483
c11.333 15.333 17 38 17 68s-5.66699 52.667 -17 68s-29.333 23 -54 23s-42.667 -7.66699 -54 -23s-17 -38 -17 -68s5.66699 -52.667 17 -68s29.333 -23 54 -23s42.667 7.66699 54 23z" />
    <glyph glyph-name="guillemotright" unicode="&#xbb;" horiz-adv-x="519" 
d="M174 260l-139 217h129l127 -190c5.33301 -8 8 -17 8 -27s-2.66699 -19 -8 -27l-127 -190h-129zM359 260l-139 217h129l127 -190c5.33301 -8 8 -17 8 -27s-2.66699 -19 -8 -27l-127 -190h-129z" />
    <glyph glyph-name="onequarter" unicode="&#xbc;" horiz-adv-x="917" 
d="M151 556l-46 -40l-70 81l154 128c19.333 16.667 36 25 50 25s27 -8.33301 39 -25c10 -14.667 15 -26 15 -34c0 -6 -3 -12 -9 -18l-7 -7l1 -417h-127v307zM540 710h137l-345 -720h-137zM696 90l-193 0.000976562c-16.667 0 -30.167 4.5 -40.5 13.5
s-15.5 19.833 -15.5 32.5c0 13.333 5.33301 25.666 16 36.999l263 298c14.667 16.667 30.667 25 48 25c11.333 0 22.333 -4 33 -12c20.667 -16 31 -30.667 31 -44c0 -8 -3.33301 -16.333 -10 -25l-6 -8v-218h60v-99h-60v-90h-126v90zM703 189.001v103l-93 -103h93z" />
    <glyph glyph-name="onehalf" unicode="&#xbd;" horiz-adv-x="1002" 
d="M151 556l-46 -40l-70 81l154 128c19.333 16.667 36 25 50 25s27 -8.33301 39 -25c10 -14.667 15 -26 15 -34c0 -6 -3 -12 -9 -18l-7 -7l1 -417h-127v307zM540 710h137l-345 -720h-137zM540.5 8c-8.33301 6 -12.499 18 -12.499 36c0 24.667 3.16699 41.167 9.5 49.5
s16.5 12.833 30.5 13.5c14 26 32.5 47.667 55.5 65s51.5 35 85.5 53c33.333 18 57.666 33.667 72.999 47s23 30.333 23 51c0 48 -20.667 72 -62 72c-19.333 0 -34.833 -2.66699 -46.5 -8s-21 -15.666 -28 -30.999s-11.5 -38 -13.5 -68l-120 12c0 38 8.33301 71.833 25 101.5
s40.667 52.834 72 69.501s68 25 110 25c62 0 109.333 -15.667 142 -47s49 -73.333 49 -126c0 -24.667 -5.66699 -46 -17 -64s-25.166 -32.833 -41.499 -44.5s-37.5 -24.834 -63.5 -39.501c-22.667 -12.667 -40.834 -23.834 -54.501 -33.501s-24.5 -20.5 -32.5 -32.5h112
l21 49l110 -38l-51 -121h-332c-20.667 0 -35.167 3 -43.5 9z" />
    <glyph glyph-name="threequarters" unicode="&#xbe;" horiz-adv-x="1077" 
d="M700 710h137l-345 -720h-137zM119.5 249.5c-40.333 25.667 -68.5 64.166 -84.5 115.499l116 37c8 -32.667 22 -55.834 42 -69.501s45.333 -20.5 76 -20.5c34.667 0 59.167 6.5 73.5 19.5s21.5 31.5 21.5 55.5c0 20 -6 35.333 -18 46s-28.333 16 -49 16
c-2.66699 0 -7.66699 -0.666992 -15 -2l-8 -10c-10 -13.333 -20.667 -20 -32 -20c-12 0 -28.667 7 -50 21c-6.66699 4.66699 -11.667 8.83398 -15 12.501s-5 8.16699 -5 13.5c0 8.66699 4.66699 20 14 34l75 111h-77l-20 -60l-95 62l33 97h311
c17.333 0 30.166 -2.33301 38.499 -7s12.5 -13 12.5 -25c0 -6 -1.66699 -15 -5 -27c-5.33301 -16.667 -12 -27.5 -20 -32.5s-20.333 -7.5 -37 -7.5h-14l-50 -70c8 2.66699 20 4 36 4c20 0 39 -6.16699 57 -18.5s32.667 -30.166 44 -53.499s17 -51.333 17 -84
c0 -53.333 -19.667 -96 -59 -128s-94 -48 -164 -48c-59.333 0 -109.166 12.833 -149.499 38.5zM856 89.999l-193 0.000976562c-16.667 0 -30.167 4.5 -40.5 13.5s-15.5 19.833 -15.5 32.5c0 13.333 5.33301 25.666 16 36.999l263 298c14.667 16.667 30.667 25 48 25
c11.333 0 22.333 -4 33 -12c20.667 -16 31 -30.667 31 -44c0 -8 -3.33301 -16.333 -10 -25l-6 -8v-218h60v-99h-60v-90h-126v90zM863 189v103l-93 -103h93z" />
    <glyph glyph-name="questiondown" unicode="&#xbf;" horiz-adv-x="534" 
d="M209.5 320c-15.667 14.667 -23.5 34.334 -23.5 59.001s7.83301 44.334 23.5 59.001s36.167 22 61.5 22s45.833 -7.33301 61.5 -22s23.5 -34.334 23.5 -59.001s-7.83301 -44.334 -23.5 -59.001s-36.167 -22 -61.5 -22s-45.833 7.33301 -61.5 22zM138 -224.5
c-33.333 17 -58.834 40.3301 -76.501 69.9971s-26.5 63.167 -26.5 100.5c0 24 4.33301 45.333 13 64s19.167 34.334 31.5 47.001s28.833 27.334 49.5 44.001c26 21.333 45.167 39.833 57.5 55.5s18.5 34.834 18.5 57.501v35h134v-35c0 -24 -4.5 -45.333 -13.5 -64
s-19.667 -34.667 -32 -48s-28.833 -29 -49.5 -47c-24.667 -21.333 -43 -39.833 -55 -55.5s-18 -33.5 -18 -53.5c0 -28 7.16699 -49.5 21.5 -64.5s36.5 -22.5 66.5 -22.5c31.333 0 57.5 8.5 78.5 25.5s38.5 43.5 52.5 79.5l109 -51c-17.333 -51.333 -48 -91.333 -92 -120
s-94.333 -43 -151 -43c-45.333 0 -84.666 8.5 -117.999 25.5z" />
    <glyph glyph-name="Agrave" unicode="&#xc0;" horiz-adv-x="714" 
d="M284 660c14 38.667 40 58 78 58c24 0 43 -5 57 -15s21 -23.667 21 -41c0 -4 -1.33301 -10 -4 -18l243 -644h-140l-66 185h-232l-66 -185h-140zM444 291l-86 241l-86 -241h172zM184 958h149l84 -189h-109z" />
    <glyph glyph-name="Aacute" unicode="&#xc1;" horiz-adv-x="714" 
d="M284 660c14 38.667 40 58 78 58c24 0 43 -5 57 -15s21 -23.667 21 -41c0 -4 -1.33301 -10 -4 -18l243 -644h-140l-66 185h-232l-66 -185h-140zM444 291l-86 241l-86 -241h172zM389 958h149l-124 -189h-109z" />
    <glyph glyph-name="Acircumflex" unicode="&#xc2;" horiz-adv-x="714" 
d="M284 660c14 38.667 40 58 78 58c24 0 43 -5 57 -15s21 -23.667 21 -41c0 -4 -1.33301 -10 -4 -18l243 -644h-140l-66 185h-232l-66 -185h-140zM444 291l-86 241l-86 -241h172zM305 928c10.667 12.667 20.501 21.5 29.501 26.5s20.5 7.5 34.5 7.5
c19.333 0 34.166 -4 44.499 -12s15.5 -17.333 15.5 -28c0 -2 -0.666992 -5 -2 -9l-2 -6l131 -138h-136l-60 81l-55 -81h-133z" />
    <glyph glyph-name="Atilde" unicode="&#xc3;" horiz-adv-x="714" 
d="M284 660c14 38.667 40 58 78 58c24 0 43 -5 57 -15s21 -23.667 21 -41c0 -4 -1.33301 -10 -4 -18l243 -644h-140l-66 185h-232l-66 -185h-140zM444 291l-86 241l-86 -241h172zM182 812c6 29.333 19.165 53.5 39.498 72.5s42.833 28.5 67.5 28.5
c17.333 0 32.833 -2.66699 46.5 -8s28.5 -13 44.5 -23c7.33301 -4.66699 14.833 -8.66699 22.5 -12s14.5 -5 20.5 -5c12.667 0 22.334 3.5 29.001 10.5s11.334 18.833 14.001 35.5l67 -32c0 -32.667 -8.33301 -58.5 -25 -77.5s-39 -28.5 -67 -28.5
c-15.333 0 -29.833 2.5 -43.5 7.5s-28.5 11.833 -44.5 20.5c-11.333 6 -20.666 10.5 -27.999 13.5s-14.333 4.5 -21 4.5c-11.333 0 -21.333 -3.66699 -30 -11s-14.334 -19 -17.001 -35z" />
    <glyph glyph-name="Adieresis" unicode="&#xc4;" horiz-adv-x="714" 
d="M284 660c14 38.667 40 58 78 58c24 0 43 -5 57 -15s21 -23.667 21 -41c0 -4 -1.33301 -10 -4 -18l243 -644h-140l-66 185h-232l-66 -185h-140zM444 291l-86 241l-86 -241h172zM195 800c-14.667 14 -22 31.667 -22 53s7.33301 39 22 53s33.334 21 56.001 21
c22 0 40.167 -7.16699 54.5 -21.5s21.5 -31.833 21.5 -52.5s-7.16699 -38.167 -21.5 -52.5s-32.5 -21.5 -54.5 -21.5c-22.667 0 -41.334 7 -56.001 21zM421 800c-14.667 14 -22 31.667 -22 53s7.33301 39 22 53s33.334 21 56.001 21c22 0 40.167 -7.16699 54.5 -21.5
s21.5 -31.833 21.5 -52.5s-7.16699 -38.167 -21.5 -52.5s-32.5 -21.5 -54.5 -21.5c-22.667 0 -41.334 7 -56.001 21z" />
    <glyph glyph-name="Aring" unicode="&#xc5;" horiz-adv-x="714" 
d="M284 660c14 38.667 40 58 78 58c24 0 43 -5 57 -15s21 -23.667 21 -41c0 -4 -1.33301 -10 -4 -18l243 -644h-140l-66 185h-232l-66 -185h-140zM444 291l-86 241l-86 -241h172zM275 772.5c-24.667 19 -37 45.833 -37 80.5s12.333 61.667 37 81s53.667 29 87 29
s62.333 -9.66699 87 -29s37 -46.333 37 -81s-12.333 -61.5 -37 -80.5s-53.667 -28.5 -87 -28.5s-62.333 9.5 -87 28.5zM391 825c8 6.66699 12 16 12 28c0 12.667 -3.83301 22.5 -11.5 29.5s-17.5 10.5 -29.5 10.5s-21.833 -3.5 -29.5 -10.5s-11.5 -16.833 -11.5 -29.5
c0 -12 4 -21.333 12 -28s17.667 -10 29 -10s21 3.33301 29 10z" />
    <glyph glyph-name="AE" unicode="&#xc6;" horiz-adv-x="836" 
d="M298 700h494v-116h-290v-162h206v-110h-206v-196h299v-116h-431v185h-129l-66 -185h-140zM370 291v271l-98 -271h98z" />
    <glyph glyph-name="Ccedilla" unicode="&#xc7;" horiz-adv-x="654" 
d="M526.5 25c-37.667 -18.667 -77.835 -30 -120.502 -34l-21 -32c51.333 -10.667 77 -40 77 -88c0 -28 -11.167 -51.333 -33.5 -70s-52.166 -28 -89.499 -28c-44 0 -84.667 14.333 -122 43l34 62c24.667 -17.333 48 -26 70 -26c23.333 0 35 9.66699 35 29s-11.667 29 -35 29
c-6 0 -13.667 -1 -23 -3l-24 26l38 61c-88.667 12.667 -157 49.834 -205 111.501s-72 143.5 -72 245.5c0 113.333 29 201.5 87 264.5s140 94.5 246 94.5c48 0 92.167 -8.33301 132.5 -25s72.5 -39.667 96.5 -69l-52 -90c-24 25.333 -49.167 44.166 -75.5 56.499
s-60.166 18.5 -101.499 18.5c-63.333 0 -112 -21.833 -146 -65.5s-51 -105.167 -51 -184.5s18 -141.166 54 -185.499s87 -66.5 153 -66.5c34.667 0 65 5.66699 91 17s50 29.666 72 54.999l78 -74c-24 -29.333 -54.833 -53.333 -92.5 -72z" />
    <glyph glyph-name="Egrave" unicode="&#xc8;" horiz-adv-x="553" 
d="M65 576c0 14 -1.83203 24.834 -5.49902 32.501s-8.5 14.167 -14.5 19.5c-2.66699 2.66699 -5 5.5 -7 8.5s-3 6.16699 -3 9.5c0 2 0.666992 5 2 9c5.33301 15.333 14.166 29.666 26.499 42.999s25.166 20 38.499 20c14.667 0 27.334 -6 38.001 -18h369v-116h-310v-162h226
v-110h-226v-196h319v-116h-453v576zM111.001 958.001h149l84 -189h-109z" />
    <glyph glyph-name="Eacute" unicode="&#xc9;" horiz-adv-x="553" 
d="M65 576c0 14 -1.83203 24.834 -5.49902 32.501s-8.5 14.167 -14.5 19.5c-2.66699 2.66699 -5 5.5 -7 8.5s-3 6.16699 -3 9.5c0 2 0.666992 5 2 9c5.33301 15.333 14.166 29.666 26.499 42.999s25.166 20 38.499 20c14.667 0 27.334 -6 38.001 -18h369v-116h-310v-162h226
v-110h-226v-196h319v-116h-453v576zM316.001 958.001h149l-124 -189h-109z" />
    <glyph glyph-name="Ecircumflex" unicode="&#xca;" horiz-adv-x="553" 
d="M65 576c0 14 -1.83203 24.834 -5.49902 32.501s-8.5 14.167 -14.5 19.5c-2.66699 2.66699 -5 5.5 -7 8.5s-3 6.16699 -3 9.5c0 2 0.666992 5 2 9c5.33301 15.333 14.166 29.666 26.499 42.999s25.166 20 38.499 20c14.667 0 27.334 -6 38.001 -18h369v-116h-310v-162h226
v-110h-226v-196h319v-116h-453v576zM232.001 928.001c10.667 12.667 20.501 21.5 29.501 26.5s20.5 7.5 34.5 7.5c19.333 0 34.166 -4 44.499 -12s15.5 -17.333 15.5 -28c0 -2 -0.666992 -5 -2 -9l-2 -6l131 -138h-136l-60 81l-55 -81h-133z" />
    <glyph glyph-name="Edieresis" unicode="&#xcb;" horiz-adv-x="553" 
d="M65 576c0 14 -1.83203 24.834 -5.49902 32.501s-8.5 14.167 -14.5 19.5c-2.66699 2.66699 -5 5.5 -7 8.5s-3 6.16699 -3 9.5c0 2 0.666992 5 2 9c5.33301 15.333 14.166 29.666 26.499 42.999s25.166 20 38.499 20c14.667 0 27.334 -6 38.001 -18h369v-116h-310v-162h226
v-110h-226v-196h319v-116h-453v576zM122.001 800.001c-14.667 14 -22 31.667 -22 53s7.33301 39 22 53s33.334 21 56.001 21c22 0 40.167 -7.16699 54.5 -21.5s21.5 -31.833 21.5 -52.5s-7.16699 -38.167 -21.5 -52.5s-32.5 -21.5 -54.5 -21.5
c-22.667 0 -41.334 7 -56.001 21zM348.001 800.001c-14.667 14 -22 31.667 -22 53s7.33301 39 22 53s33.334 21 56.001 21c22 0 40.167 -7.16699 54.5 -21.5s21.5 -31.833 21.5 -52.5s-7.16699 -38.167 -21.5 -52.5s-32.5 -21.5 -54.5 -21.5c-22.667 0 -41.334 7 -56.001 21
z" />
    <glyph glyph-name="Igrave" unicode="&#xcc;" horiz-adv-x="304" 
d="M85 700h134v-700h-134v700zM-26 958h149l84 -189h-109z" />
    <glyph glyph-name="Iacute" unicode="&#xcd;" horiz-adv-x="304" 
d="M85 700h134v-700h-134v700zM179 958h149l-124 -189h-109z" />
    <glyph glyph-name="Icircumflex" unicode="&#xce;" horiz-adv-x="304" 
d="M85 700h134v-700h-134v700zM95 928c10.667 12.667 20.501 21.5 29.501 26.5s20.5 7.5 34.5 7.5c19.333 0 34.166 -4 44.499 -12s15.5 -17.333 15.5 -28c0 -2 -0.666992 -5 -2 -9l-2 -6l131 -138h-136l-60 81l-55 -81h-133z" />
    <glyph glyph-name="Idieresis" unicode="&#xcf;" horiz-adv-x="304" 
d="M85 700h134v-700h-134v700zM-15 800c-14.667 14 -22 31.667 -22 53s7.33301 39 22 53s33.334 21 56.001 21c22 0 40.167 -7.16699 54.5 -21.5s21.5 -31.833 21.5 -52.5s-7.16699 -38.167 -21.5 -52.5s-32.5 -21.5 -54.5 -21.5c-22.667 0 -41.334 7 -56.001 21zM211 800
c-14.667 14 -22 31.667 -22 53s7.33301 39 22 53s33.334 21 56.001 21c22 0 40.167 -7.16699 54.5 -21.5s21.5 -31.833 21.5 -52.5s-7.16699 -38.167 -21.5 -52.5s-32.5 -21.5 -54.5 -21.5c-22.667 0 -41.334 7 -56.001 21z" />
    <glyph glyph-name="Eth" unicode="&#xd0;" horiz-adv-x="683" 
d="M485 656.5c52.667 -29 93.002 -69.667 121.002 -122s42 -113.166 42 -182.499c0 -110 -30 -196.167 -90 -258.5s-145 -93.5 -255 -93.5h-218v301h-50v96h50v179c0 14 -1.83301 24.833 -5.5 32.5s-8.5 14.167 -14.5 19.5c-2.66699 2.66699 -5 5.5 -7 8.5
s-3 6.16699 -3 9.5c0 2 0.666992 5 2 9c5.33301 15.333 14.166 29.666 26.499 42.999s25.166 20 38.499 20c14 0 26.667 -6 38 -18h138c72 0 134.333 -14.5 187 -43.5zM460.502 174.5c34.333 39 51.5 98.167 51.5 177.5c0 75.333 -18.333 132.833 -55 172.5
s-90.667 59.5 -162 59.5h-76v-187h152v-96h-152v-185h84c70.667 0 123.167 19.5 157.5 58.5z" />
    <glyph glyph-name="Ntilde" unicode="&#xd1;" horiz-adv-x="628" 
d="M58 597c0 7.33301 -1.16504 13.168 -3.49805 17.501s-5.5 8.83301 -9.5 13.5c-6.66699 8 -10 15.333 -10 22c0 6 0.666992 10.667 2 14c5.33301 17.333 14.666 30.666 27.999 39.999s28.666 14 45.999 14c26 0 45.333 -10 58 -30l280 -448v460h134v-700h-113l-278 443
v-443h-134v597zM149.002 812.002c6 29.333 19.165 53.5 39.498 72.5s42.833 28.5 67.5 28.5c17.333 0 32.833 -2.66699 46.5 -8s28.5 -13 44.5 -23c7.33301 -4.66699 14.833 -8.66699 22.5 -12s14.5 -5 20.5 -5c12.667 0 22.334 3.5 29.001 10.5s11.334 18.833 14.001 35.5
l67 -32c0 -32.667 -8.33301 -58.5 -25 -77.5s-39 -28.5 -67 -28.5c-15.333 0 -29.833 2.5 -43.5 7.5s-28.5 11.833 -44.5 20.5c-11.333 6 -20.666 10.5 -27.999 13.5s-14.333 4.5 -21 4.5c-11.333 0 -21.333 -3.66699 -30 -11s-14.334 -19 -17.001 -35z" />
    <glyph glyph-name="Ograve" unicode="&#xd2;" horiz-adv-x="692" 
d="M178 34.5c-46.667 29.667 -82.167 71.5 -106.5 125.5s-36.5 117.333 -36.5 190s12.167 136 36.5 190s59.833 95.833 106.5 125.5s102.667 44.5 168 44.5s121.333 -14.833 168 -44.5s82.167 -71.5 106.5 -125.5s36.5 -117.333 36.5 -190s-12.167 -136 -36.5 -190
s-59.833 -95.833 -106.5 -125.5s-102.667 -44.5 -168 -44.5s-121.333 14.833 -168 44.5zM476 165.5c30 44.333 45 105.833 45 184.5s-15 140.167 -45 184.5s-73.333 66.5 -130 66.5s-100 -22.167 -130 -66.5s-45 -105.833 -45 -184.5s15 -140.167 45 -184.5
s73.333 -66.5 130 -66.5s100 22.167 130 66.5zM168 958h149l84 -189h-109z" />
    <glyph glyph-name="Oacute" unicode="&#xd3;" horiz-adv-x="692" 
d="M178 34.5c-46.667 29.667 -82.167 71.5 -106.5 125.5s-36.5 117.333 -36.5 190s12.167 136 36.5 190s59.833 95.833 106.5 125.5s102.667 44.5 168 44.5s121.333 -14.833 168 -44.5s82.167 -71.5 106.5 -125.5s36.5 -117.333 36.5 -190s-12.167 -136 -36.5 -190
s-59.833 -95.833 -106.5 -125.5s-102.667 -44.5 -168 -44.5s-121.333 14.833 -168 44.5zM476 165.5c30 44.333 45 105.833 45 184.5s-15 140.167 -45 184.5s-73.333 66.5 -130 66.5s-100 -22.167 -130 -66.5s-45 -105.833 -45 -184.5s15 -140.167 45 -184.5
s73.333 -66.5 130 -66.5s100 22.167 130 66.5zM373 958h149l-124 -189h-109z" />
    <glyph glyph-name="Ocircumflex" unicode="&#xd4;" horiz-adv-x="692" 
d="M178 34.5c-46.667 29.667 -82.167 71.5 -106.5 125.5s-36.5 117.333 -36.5 190s12.167 136 36.5 190s59.833 95.833 106.5 125.5s102.667 44.5 168 44.5s121.333 -14.833 168 -44.5s82.167 -71.5 106.5 -125.5s36.5 -117.333 36.5 -190s-12.167 -136 -36.5 -190
s-59.833 -95.833 -106.5 -125.5s-102.667 -44.5 -168 -44.5s-121.333 14.833 -168 44.5zM476 165.5c30 44.333 45 105.833 45 184.5s-15 140.167 -45 184.5s-73.333 66.5 -130 66.5s-100 -22.167 -130 -66.5s-45 -105.833 -45 -184.5s15 -140.167 45 -184.5
s73.333 -66.5 130 -66.5s100 22.167 130 66.5zM289 928c10.667 12.667 20.501 21.5 29.501 26.5s20.5 7.5 34.5 7.5c19.333 0 34.166 -4 44.499 -12s15.5 -17.333 15.5 -28c0 -2 -0.666992 -5 -2 -9l-2 -6l131 -138h-136l-60 81l-55 -81h-133z" />
    <glyph glyph-name="Otilde" unicode="&#xd5;" horiz-adv-x="692" 
d="M178 34.5c-46.667 29.667 -82.167 71.5 -106.5 125.5s-36.5 117.333 -36.5 190s12.167 136 36.5 190s59.833 95.833 106.5 125.5s102.667 44.5 168 44.5s121.333 -14.833 168 -44.5s82.167 -71.5 106.5 -125.5s36.5 -117.333 36.5 -190s-12.167 -136 -36.5 -190
s-59.833 -95.833 -106.5 -125.5s-102.667 -44.5 -168 -44.5s-121.333 14.833 -168 44.5zM476 165.5c30 44.333 45 105.833 45 184.5s-15 140.167 -45 184.5s-73.333 66.5 -130 66.5s-100 -22.167 -130 -66.5s-45 -105.833 -45 -184.5s15 -140.167 45 -184.5
s73.333 -66.5 130 -66.5s100 22.167 130 66.5zM166 812c6 29.333 19.165 53.5 39.498 72.5s42.833 28.5 67.5 28.5c17.333 0 32.833 -2.66699 46.5 -8s28.5 -13 44.5 -23c7.33301 -4.66699 14.833 -8.66699 22.5 -12s14.5 -5 20.5 -5c12.667 0 22.334 3.5 29.001 10.5
s11.334 18.833 14.001 35.5l67 -32c0 -32.667 -8.33301 -58.5 -25 -77.5s-39 -28.5 -67 -28.5c-15.333 0 -29.833 2.5 -43.5 7.5s-28.5 11.833 -44.5 20.5c-11.333 6 -20.666 10.5 -27.999 13.5s-14.333 4.5 -21 4.5c-11.333 0 -21.333 -3.66699 -30 -11
s-14.334 -19 -17.001 -35z" />
    <glyph glyph-name="Odieresis" unicode="&#xd6;" horiz-adv-x="692" 
d="M178 34.5c-46.667 29.667 -82.167 71.5 -106.5 125.5s-36.5 117.333 -36.5 190s12.167 136 36.5 190s59.833 95.833 106.5 125.5s102.667 44.5 168 44.5s121.333 -14.833 168 -44.5s82.167 -71.5 106.5 -125.5s36.5 -117.333 36.5 -190s-12.167 -136 -36.5 -190
s-59.833 -95.833 -106.5 -125.5s-102.667 -44.5 -168 -44.5s-121.333 14.833 -168 44.5zM476 165.5c30 44.333 45 105.833 45 184.5s-15 140.167 -45 184.5s-73.333 66.5 -130 66.5s-100 -22.167 -130 -66.5s-45 -105.833 -45 -184.5s15 -140.167 45 -184.5
s73.333 -66.5 130 -66.5s100 22.167 130 66.5zM179 800c-14.667 14 -22 31.667 -22 53s7.33301 39 22 53s33.334 21 56.001 21c22 0 40.167 -7.16699 54.5 -21.5s21.5 -31.833 21.5 -52.5s-7.16699 -38.167 -21.5 -52.5s-32.5 -21.5 -54.5 -21.5
c-22.667 0 -41.334 7 -56.001 21zM405 800c-14.667 14 -22 31.667 -22 53s7.33301 39 22 53s33.334 21 56.001 21c22 0 40.167 -7.16699 54.5 -21.5s21.5 -31.833 21.5 -52.5s-7.16699 -38.167 -21.5 -52.5s-32.5 -21.5 -54.5 -21.5c-22.667 0 -41.334 7 -56.001 21z" />
    <glyph glyph-name="multiply" unicode="&#xd7;" horiz-adv-x="560" 
d="M55 141l143 139l-143 143l83 81l143 -142l142 142l83 -81l-143 -143l143 -143l-83 -81l-142 142l-143 -138z" />
    <glyph glyph-name="Oslash" unicode="&#xd8;" horiz-adv-x="692" 
d="M624 531c22 -52 33 -112.333 33 -181c0 -72.667 -12.167 -136 -36.5 -190s-59.833 -95.833 -106.5 -125.5s-102.667 -44.5 -168 -44.5c-62.667 0 -116.667 13.667 -162 41l-57 -102l-45 25l60 108c-34.667 31.333 -61.167 71.5 -79.5 120.5s-27.5 104.833 -27.5 167.5
c0 72.667 12.167 136 36.5 190s59.833 95.833 106.5 125.5s102.667 44.5 168 44.5c52 0 98.333 -9.66699 139 -29l50 90l45 -25l-51 -91c41.333 -30.667 73 -72 95 -124zM207 180l222 400c-24 14 -51.667 21 -83 21c-56.667 0 -100 -22.167 -130 -66.5
s-45 -105.833 -45 -184.5c0 -71.333 12 -128 36 -170zM476 165.5c30 44.333 45 105.833 45 184.5c0 85.333 -17.667 150.333 -53 195l-226 -409c28 -24.667 62.667 -37 104 -37c56.667 0 100 22.167 130 66.5z" />
    <glyph glyph-name="Ugrave" unicode="&#xd9;" horiz-adv-x="644" 
d="M114.5 62c-49.667 48 -74.498 114.667 -74.498 200v438h134v-444c0 -49.333 13 -87.833 39 -115.5s62.333 -41.5 109 -41.5s83 13.833 109 41.5s39 66.167 39 115.5v444h134v-438c0 -85.333 -24.833 -152 -74.5 -200s-118.834 -72 -207.501 -72s-157.834 24 -207.501 72z
M144.002 958h149l84 -189h-109z" />
    <glyph glyph-name="Uacute" unicode="&#xda;" horiz-adv-x="644" 
d="M114.5 62c-49.667 48 -74.498 114.667 -74.498 200v438h134v-444c0 -49.333 13 -87.833 39 -115.5s62.333 -41.5 109 -41.5s83 13.833 109 41.5s39 66.167 39 115.5v444h134v-438c0 -85.333 -24.833 -152 -74.5 -200s-118.834 -72 -207.501 -72s-157.834 24 -207.501 72z
M349.002 958h149l-124 -189h-109z" />
    <glyph glyph-name="Ucircumflex" unicode="&#xdb;" horiz-adv-x="644" 
d="M114.5 62c-49.667 48 -74.498 114.667 -74.498 200v438h134v-444c0 -49.333 13 -87.833 39 -115.5s62.333 -41.5 109 -41.5s83 13.833 109 41.5s39 66.167 39 115.5v444h134v-438c0 -85.333 -24.833 -152 -74.5 -200s-118.834 -72 -207.501 -72s-157.834 24 -207.501 72z
M265.002 928c10.667 12.667 20.501 21.5 29.501 26.5s20.5 7.5 34.5 7.5c19.333 0 34.166 -4 44.499 -12s15.5 -17.333 15.5 -28c0 -2 -0.666992 -5 -2 -9l-2 -6l131 -138h-136l-60 81l-55 -81h-133z" />
    <glyph glyph-name="Udieresis" unicode="&#xdc;" horiz-adv-x="644" 
d="M114.5 62c-49.667 48 -74.498 114.667 -74.498 200v438h134v-444c0 -49.333 13 -87.833 39 -115.5s62.333 -41.5 109 -41.5s83 13.833 109 41.5s39 66.167 39 115.5v444h134v-438c0 -85.333 -24.833 -152 -74.5 -200s-118.834 -72 -207.501 -72s-157.834 24 -207.501 72z
M155.002 800c-14.667 14 -22 31.667 -22 53s7.33301 39 22 53s33.334 21 56.001 21c22 0 40.167 -7.16699 54.5 -21.5s21.5 -31.833 21.5 -52.5s-7.16699 -38.167 -21.5 -52.5s-32.5 -21.5 -54.5 -21.5c-22.667 0 -41.334 7 -56.001 21zM381.002 800
c-14.667 14 -22 31.667 -22 53s7.33301 39 22 53s33.334 21 56.001 21c22 0 40.167 -7.16699 54.5 -21.5s21.5 -31.833 21.5 -52.5s-7.16699 -38.167 -21.5 -52.5s-32.5 -21.5 -54.5 -21.5c-22.667 0 -41.334 7 -56.001 21z" />
    <glyph glyph-name="Yacute" unicode="&#xdd;" horiz-adv-x="664" 
d="M267 268l-232 432h145l152 -310l152 310h145l-232 -432v-268h-130v268zM359 958h149l-124 -189h-109z" />
    <glyph glyph-name="Thorn" unicode="&#xde;" horiz-adv-x="592" 
d="M50 700h134v-127h99c86 0 153.167 -19.667 201.5 -59s72.5 -94 72.5 -164s-24.167 -124.667 -72.5 -164s-115.5 -59 -201.5 -59h-99v-127h-134v700zM280 243c44.667 0 79.334 9.5 104.001 28.5s37 45.167 37 78.5s-12.333 59.5 -37 78.5s-59.334 28.5 -104.001 28.5h-96
v-214h96z" />
    <glyph glyph-name="germandbls" unicode="&#xdf;" horiz-adv-x="615" 
d="M40 487c0 42.667 10.834 80.998 32.501 114.998s51.667 60.5 90 79.5s81.833 28.5 130.5 28.5c48 0 90.833 -7.83301 128.5 -23.5s67.167 -38.167 88.5 -67.5s32 -63.666 32 -102.999c0 -34 -9.33301 -63.333 -28 -88s-45.334 -43 -80.001 -55v-2
c48 -11.333 84.333 -31 109 -59s37 -63.667 37 -107c0 -64.667 -19.333 -116.667 -58 -156s-93.334 -59 -164.001 -59c-25.333 0 -51.333 2.33301 -78 7s-50.667 11.334 -72 20.001l35 99c32 -14 66.667 -21 104 -21c33.333 0 57.833 10 73.5 30s23.5 47 23.5 81
c0 40 -12.5 68.167 -37.5 84.5s-65.5 24.5 -121.5 24.5h-43v104h43c42 0 72.667 8 92 24s29 40.333 29 73c0 59.333 -37.667 89 -113 89c-39.333 0 -69.166 -9.83301 -89.499 -29.5s-30.5 -48.5 -30.5 -86.5v-739h-133v737z" />
    <glyph glyph-name="agrave" unicode="&#xe0;" horiz-adv-x="586" 
d="M140 19c-32.667 19.333 -58.333 47.3301 -77 83.9971s-28 80.334 -28 131.001c0 54 9.5 100.667 28.5 140s45.667 69.333 80 90s74.5 31 120.5 31c54 0 99 -20.333 135 -61v51h127v-349c0 -23.333 2 -42.666 6 -57.999s10.333 -30.666 19 -45.999l-107 -42
c-20 22 -31.333 47 -34 75h-2c-18.667 -24 -41.5 -42.5 -68.5 -55.5s-56.5 -19.5 -88.5 -19.5c-41.333 0 -78.333 9.66699 -111 29zM366.001 132.497c20 25 30.001 58.501 30.001 100.501v18c0 38.667 -9.83301 71.5 -29.5 98.5s-47.834 40.5 -84.501 40.5
c-37.333 0 -65.833 -13.333 -85.5 -40s-29.5 -65.334 -29.5 -116.001c0 -45.333 9.5 -79.833 28.5 -103.5s46.5 -35.5 82.5 -35.5c38.667 0 68 12.5 88 37.5zM101.002 742.998h149l84 -189h-109z" />
    <glyph glyph-name="aacute" unicode="&#xe1;" horiz-adv-x="586" 
d="M140 19c-32.667 19.333 -58.333 47.3301 -77 83.9971s-28 80.334 -28 131.001c0 54 9.5 100.667 28.5 140s45.667 69.333 80 90s74.5 31 120.5 31c54 0 99 -20.333 135 -61v51h127v-349c0 -23.333 2 -42.666 6 -57.999s10.333 -30.666 19 -45.999l-107 -42
c-20 22 -31.333 47 -34 75h-2c-18.667 -24 -41.5 -42.5 -68.5 -55.5s-56.5 -19.5 -88.5 -19.5c-41.333 0 -78.333 9.66699 -111 29zM366.001 132.497c20 25 30.001 58.501 30.001 100.501v18c0 38.667 -9.83301 71.5 -29.5 98.5s-47.834 40.5 -84.501 40.5
c-37.333 0 -65.833 -13.333 -85.5 -40s-29.5 -65.334 -29.5 -116.001c0 -45.333 9.5 -79.833 28.5 -103.5s46.5 -35.5 82.5 -35.5c38.667 0 68 12.5 88 37.5zM306.002 742.998h149l-124 -189h-109z" />
    <glyph glyph-name="acircumflex" unicode="&#xe2;" horiz-adv-x="586" 
d="M140 19c-32.667 19.333 -58.333 47.3301 -77 83.9971s-28 80.334 -28 131.001c0 54 9.5 100.667 28.5 140s45.667 69.333 80 90s74.5 31 120.5 31c54 0 99 -20.333 135 -61v51h127v-349c0 -23.333 2 -42.666 6 -57.999s10.333 -30.666 19 -45.999l-107 -42
c-20 22 -31.333 47 -34 75h-2c-18.667 -24 -41.5 -42.5 -68.5 -55.5s-56.5 -19.5 -88.5 -19.5c-41.333 0 -78.333 9.66699 -111 29zM366.001 132.497c20 25 30.001 58.501 30.001 100.501v18c0 38.667 -9.83301 71.5 -29.5 98.5s-47.834 40.5 -84.501 40.5
c-37.333 0 -65.833 -13.333 -85.5 -40s-29.5 -65.334 -29.5 -116.001c0 -45.333 9.5 -79.833 28.5 -103.5s46.5 -35.5 82.5 -35.5c38.667 0 68 12.5 88 37.5zM222.002 712.998c10.667 12.667 20.501 21.5 29.501 26.5s20.5 7.5 34.5 7.5c19.333 0 34.166 -4 44.499 -12
s15.5 -17.333 15.5 -28c0 -2 -0.666992 -5 -2 -9l-2 -6l131 -138h-136l-60 81l-55 -81h-133z" />
    <glyph glyph-name="atilde" unicode="&#xe3;" horiz-adv-x="586" 
d="M140 19c-32.667 19.333 -58.333 47.3301 -77 83.9971s-28 80.334 -28 131.001c0 54 9.5 100.667 28.5 140s45.667 69.333 80 90s74.5 31 120.5 31c54 0 99 -20.333 135 -61v51h127v-349c0 -23.333 2 -42.666 6 -57.999s10.333 -30.666 19 -45.999l-107 -42
c-20 22 -31.333 47 -34 75h-2c-18.667 -24 -41.5 -42.5 -68.5 -55.5s-56.5 -19.5 -88.5 -19.5c-41.333 0 -78.333 9.66699 -111 29zM366.001 132.497c20 25 30.001 58.501 30.001 100.501v18c0 38.667 -9.83301 71.5 -29.5 98.5s-47.834 40.5 -84.501 40.5
c-37.333 0 -65.833 -13.333 -85.5 -40s-29.5 -65.334 -29.5 -116.001c0 -45.333 9.5 -79.833 28.5 -103.5s46.5 -35.5 82.5 -35.5c38.667 0 68 12.5 88 37.5zM99.002 596.998c6 29.333 19.165 53.5 39.498 72.5s42.833 28.5 67.5 28.5c17.333 0 32.833 -2.66699 46.5 -8
s28.5 -13 44.5 -23c7.33301 -4.66699 14.833 -8.66699 22.5 -12s14.5 -5 20.5 -5c12.667 0 22.334 3.5 29.001 10.5s11.334 18.833 14.001 35.5l67 -32c0 -32.667 -8.33301 -58.5 -25 -77.5s-39 -28.5 -67 -28.5c-15.333 0 -29.833 2.5 -43.5 7.5s-28.5 11.833 -44.5 20.5
c-11.333 6 -20.666 10.5 -27.999 13.5s-14.333 4.5 -21 4.5c-11.333 0 -21.333 -3.66699 -30 -11s-14.334 -19 -17.001 -35z" />
    <glyph glyph-name="adieresis" unicode="&#xe4;" horiz-adv-x="586" 
d="M140 19c-32.667 19.333 -58.333 47.3301 -77 83.9971s-28 80.334 -28 131.001c0 54 9.5 100.667 28.5 140s45.667 69.333 80 90s74.5 31 120.5 31c54 0 99 -20.333 135 -61v51h127v-349c0 -23.333 2 -42.666 6 -57.999s10.333 -30.666 19 -45.999l-107 -42
c-20 22 -31.333 47 -34 75h-2c-18.667 -24 -41.5 -42.5 -68.5 -55.5s-56.5 -19.5 -88.5 -19.5c-41.333 0 -78.333 9.66699 -111 29zM366.001 132.497c20 25 30.001 58.501 30.001 100.501v18c0 38.667 -9.83301 71.5 -29.5 98.5s-47.834 40.5 -84.501 40.5
c-37.333 0 -65.833 -13.333 -85.5 -40s-29.5 -65.334 -29.5 -116.001c0 -45.333 9.5 -79.833 28.5 -103.5s46.5 -35.5 82.5 -35.5c38.667 0 68 12.5 88 37.5zM112.002 584.998c-14.667 14 -22 31.667 -22 53s7.33301 39 22 53s33.334 21 56.001 21
c22 0 40.167 -7.16699 54.5 -21.5s21.5 -31.833 21.5 -52.5s-7.16699 -38.167 -21.5 -52.5s-32.5 -21.5 -54.5 -21.5c-22.667 0 -41.334 7 -56.001 21zM338.002 584.998c-14.667 14 -22 31.667 -22 53s7.33301 39 22 53s33.334 21 56.001 21
c22 0 40.167 -7.16699 54.5 -21.5s21.5 -31.833 21.5 -52.5s-7.16699 -38.167 -21.5 -52.5s-32.5 -21.5 -54.5 -21.5c-22.667 0 -41.334 7 -56.001 21z" />
    <glyph glyph-name="aring" unicode="&#xe5;" horiz-adv-x="586" 
d="M140 19c-32.667 19.333 -58.333 47.3301 -77 83.9971s-28 80.334 -28 131.001c0 54 9.5 100.667 28.5 140s45.667 69.333 80 90s74.5 31 120.5 31c54 0 99 -20.333 135 -61v51h127v-349c0 -23.333 2 -42.666 6 -57.999s10.333 -30.666 19 -45.999l-107 -42
c-20 22 -31.333 47 -34 75h-2c-18.667 -24 -41.5 -42.5 -68.5 -55.5s-56.5 -19.5 -88.5 -19.5c-41.333 0 -78.333 9.66699 -111 29zM366.001 132.497c20 25 30.001 58.501 30.001 100.501v18c0 38.667 -9.83301 71.5 -29.5 98.5s-47.834 40.5 -84.501 40.5
c-37.333 0 -65.833 -13.333 -85.5 -40s-29.5 -65.334 -29.5 -116.001c0 -45.333 9.5 -79.833 28.5 -103.5s46.5 -35.5 82.5 -35.5c38.667 0 68 12.5 88 37.5zM192.002 557.498c-24.667 19 -37 45.833 -37 80.5s12.333 61.667 37 81s53.667 29 87 29s62.333 -9.66699 87 -29
s37 -46.333 37 -81s-12.333 -61.5 -37 -80.5s-53.667 -28.5 -87 -28.5s-62.333 9.5 -87 28.5zM308.002 609.998c8 6.66699 12 16 12 28c0 12.667 -3.83301 22.5 -11.5 29.5s-17.5 10.5 -29.5 10.5s-21.833 -3.5 -29.5 -10.5s-11.5 -16.833 -11.5 -29.5
c0 -12 4 -21.333 12 -28s17.667 -10 29 -10s21 3.33301 29 10z" />
    <glyph glyph-name="ae" unicode="&#xe6;" horiz-adv-x="909" 
d="M89.5 33c-36.333 28.667 -54.5029 67.6689 -54.5029 117.002c0 51.333 18.667 90.666 56 117.999s88.333 41 153 41h128v5c0 20 -10 37.667 -30 53s-45.333 23 -76 23c-30 0 -56.5 -4.66699 -79.5 -14s-46.833 -24 -71.5 -44l-66 73
c26.667 27.333 59.334 49.166 98.001 65.499s79.334 24.5 122.001 24.5c36.667 0 70 -7.5 100 -22.5s53.667 -34.5 71 -58.5h1c19.333 24 45.666 43.5 78.999 58.5s69.333 22.5 108 22.5c80 0 141 -21.5 183 -64.5s63 -100.5 63 -172.5c0 -22 -6.66699 -37.833 -20 -47.5
s-33.666 -14.5 -60.999 -14.5h-287v-8c0 -24.667 12 -46 36 -64s55.667 -27 95 -27c30.667 0 57.5 4.66699 80.5 14s44.5 24.333 64.5 45l66 -75c-57.333 -60.667 -127.666 -91 -210.999 -91c-45.333 0 -86 9.66699 -122 29s-61.667 42.333 -77 69h-1
c-20.667 -28 -50 -51.333 -88 -70s-78 -28 -120 -28c-56.667 0 -103.167 14.333 -139.5 43zM740.997 297.002c0 28 -10.333 50.499 -31 67.499s-49 25.5 -85 25.5c-22 0 -42.167 -4.16699 -60.5 -12.5s-32.833 -19.166 -43.5 -32.499s-16 -27.333 -16 -42v-6h236z
M339.497 123.501c22.333 17.667 33.501 38.833 33.501 63.5v21h-133c-48.667 0 -73 -18.333 -73 -55c0 -37.333 26.667 -56 80 -56c39.333 0 70.166 8.83301 92.499 26.5z" />
    <glyph glyph-name="ccedilla" unicode="&#xe7;" horiz-adv-x="534" 
d="M426 18c-29.333 -14.667 -60.667 -23.666 -94 -26.999l-21 -32c51.333 -10.667 77 -40 77 -88c0 -28 -11.167 -51.333 -33.5 -70s-52.166 -28 -89.499 -28c-44 0 -84.667 14.333 -122 43l34 62c24.667 -17.333 48 -26 70 -26c23.333 0 35 9.66699 35 29
s-11.667 29 -35 29c-6.66699 0 -14.334 -1 -23.001 -3l-24 26l38 62c-64.667 11.333 -114.667 38.333 -150 81s-53 98 -53 166c0 79.333 23.333 141.333 70 186s111 67 193 67c38 0 73.333 -6.16699 106 -18.5s59 -28.5 79 -48.5l-45 -87
c-38.667 31.333 -83.334 47 -134.001 47c-42 0 -75 -12 -99 -36s-36 -60.667 -36 -110c0 -48.667 12.167 -85 36.5 -109s58.166 -36 101.499 -36c24.667 0 46.834 3.83301 66.501 11.5s38.5 20.167 56.5 37.5l69 -72c-19.333 -22.667 -43.666 -41.334 -72.999 -56.001z" />
    <glyph glyph-name="egrave" unicode="&#xe8;" horiz-adv-x="560" 
d="M104.5 57c-46.333 44.667 -69.502 105.332 -69.502 181.999c0 50 9.33301 94.333 28 133s46.334 68.834 83.001 90.501s81 32.5 133 32.5c50.667 0 94.667 -10.5 132 -31.5s65.666 -49.667 84.999 -86s29 -76.833 29 -121.5c0 -22 -7.16699 -38.833 -21.5 -50.5
s-34.166 -17.5 -59.499 -17.5h-278c0 -27.333 11.833 -49.333 35.5 -66s54.5 -25 92.5 -25c31.333 0 57.833 4.5 79.5 13.5s40.834 21.833 57.501 38.5l66 -70c-22 -28 -50.333 -49.833 -85 -65.5s-74 -23.5 -118 -23.5c-80 0 -143.167 22.333 -189.5 67zM393.998 290.998
c0 29.333 -10.833 53.166 -32.5 71.499s-49.167 27.5 -82.5 27.5c-32 0 -58.833 -9.16699 -80.5 -27.5s-32.5 -42.166 -32.5 -71.499h228zM110.998 742.998h149l84 -189h-109z" />
    <glyph glyph-name="eacute" unicode="&#xe9;" horiz-adv-x="560" 
d="M104.5 57c-46.333 44.667 -69.502 105.332 -69.502 181.999c0 50 9.33301 94.333 28 133s46.334 68.834 83.001 90.501s81 32.5 133 32.5c50.667 0 94.667 -10.5 132 -31.5s65.666 -49.667 84.999 -86s29 -76.833 29 -121.5c0 -22 -7.16699 -38.833 -21.5 -50.5
s-34.166 -17.5 -59.499 -17.5h-278c0 -27.333 11.833 -49.333 35.5 -66s54.5 -25 92.5 -25c31.333 0 57.833 4.5 79.5 13.5s40.834 21.833 57.501 38.5l66 -70c-22 -28 -50.333 -49.833 -85 -65.5s-74 -23.5 -118 -23.5c-80 0 -143.167 22.333 -189.5 67zM393.998 290.998
c0 29.333 -10.833 53.166 -32.5 71.499s-49.167 27.5 -82.5 27.5c-32 0 -58.833 -9.16699 -80.5 -27.5s-32.5 -42.166 -32.5 -71.499h228zM315.998 742.998h149l-124 -189h-109z" />
    <glyph glyph-name="ecircumflex" unicode="&#xea;" horiz-adv-x="560" 
d="M104.5 57c-46.333 44.667 -69.502 105.332 -69.502 181.999c0 50 9.33301 94.333 28 133s46.334 68.834 83.001 90.501s81 32.5 133 32.5c50.667 0 94.667 -10.5 132 -31.5s65.666 -49.667 84.999 -86s29 -76.833 29 -121.5c0 -22 -7.16699 -38.833 -21.5 -50.5
s-34.166 -17.5 -59.499 -17.5h-278c0 -27.333 11.833 -49.333 35.5 -66s54.5 -25 92.5 -25c31.333 0 57.833 4.5 79.5 13.5s40.834 21.833 57.501 38.5l66 -70c-22 -28 -50.333 -49.833 -85 -65.5s-74 -23.5 -118 -23.5c-80 0 -143.167 22.333 -189.5 67zM393.998 290.998
c0 29.333 -10.833 53.166 -32.5 71.499s-49.167 27.5 -82.5 27.5c-32 0 -58.833 -9.16699 -80.5 -27.5s-32.5 -42.166 -32.5 -71.499h228zM231.998 712.998c10.667 12.667 20.501 21.5 29.501 26.5s20.5 7.5 34.5 7.5c19.333 0 34.166 -4 44.499 -12s15.5 -17.333 15.5 -28
c0 -2 -0.666992 -5 -2 -9l-2 -6l131 -138h-136l-60 81l-55 -81h-133z" />
    <glyph glyph-name="edieresis" unicode="&#xeb;" horiz-adv-x="560" 
d="M104.5 57c-46.333 44.667 -69.502 105.332 -69.502 181.999c0 50 9.33301 94.333 28 133s46.334 68.834 83.001 90.501s81 32.5 133 32.5c50.667 0 94.667 -10.5 132 -31.5s65.666 -49.667 84.999 -86s29 -76.833 29 -121.5c0 -22 -7.16699 -38.833 -21.5 -50.5
s-34.166 -17.5 -59.499 -17.5h-278c0 -27.333 11.833 -49.333 35.5 -66s54.5 -25 92.5 -25c31.333 0 57.833 4.5 79.5 13.5s40.834 21.833 57.501 38.5l66 -70c-22 -28 -50.333 -49.833 -85 -65.5s-74 -23.5 -118 -23.5c-80 0 -143.167 22.333 -189.5 67zM393.998 290.998
c0 29.333 -10.833 53.166 -32.5 71.499s-49.167 27.5 -82.5 27.5c-32 0 -58.833 -9.16699 -80.5 -27.5s-32.5 -42.166 -32.5 -71.499h228zM121.998 584.998c-14.667 14 -22 31.667 -22 53s7.33301 39 22 53s33.334 21 56.001 21c22 0 40.167 -7.16699 54.5 -21.5
s21.5 -31.833 21.5 -52.5s-7.16699 -38.167 -21.5 -52.5s-32.5 -21.5 -54.5 -21.5c-22.667 0 -41.334 7 -56.001 21zM347.998 584.998c-14.667 14 -22 31.667 -22 53s7.33301 39 22 53s33.334 21 56.001 21c22 0 40.167 -7.16699 54.5 -21.5s21.5 -31.833 21.5 -52.5
s-7.16699 -38.167 -21.5 -52.5s-32.5 -21.5 -54.5 -21.5c-22.667 0 -41.334 7 -56.001 21z" />
    <glyph glyph-name="igrave" unicode="&#xec;" horiz-adv-x="280" 
d="M74 485h132v-485h-132v485zM-38 743h149l84 -189h-109z" />
    <glyph glyph-name="iacute" unicode="&#xed;" horiz-adv-x="280" 
d="M74 485h132v-485h-132v485zM167 743h149l-124 -189h-109z" />
    <glyph glyph-name="icircumflex" unicode="&#xee;" horiz-adv-x="280" 
d="M74 485h132v-485h-132v485zM83 713c10.667 12.667 20.501 21.5 29.501 26.5s20.5 7.5 34.5 7.5c19.333 0 34.166 -4 44.499 -12s15.5 -17.333 15.5 -28c0 -2 -0.666992 -5 -2 -9l-2 -6l131 -138h-136l-60 81l-55 -81h-133z" />
    <glyph glyph-name="idieresis" unicode="&#xef;" horiz-adv-x="280" 
d="M74 485h132v-485h-132v485zM-27 585c-14.667 14 -22 31.667 -22 53s7.33301 39 22 53s33.334 21 56.001 21c22 0 40.167 -7.16699 54.5 -21.5s21.5 -31.833 21.5 -52.5s-7.16699 -38.167 -21.5 -52.5s-32.5 -21.5 -54.5 -21.5c-22.667 0 -41.334 7 -56.001 21zM199 585
c-14.667 14 -22 31.667 -22 53s7.33301 39 22 53s33.334 21 56.001 21c22 0 40.167 -7.16699 54.5 -21.5s21.5 -31.833 21.5 -52.5s-7.16699 -38.167 -21.5 -52.5s-32.5 -21.5 -54.5 -21.5c-22.667 0 -41.334 7 -56.001 21z" />
    <glyph glyph-name="eth" unicode="&#xf0;" horiz-adv-x="658" 
d="M174 22.5c-44 21.667 -78.166 52.168 -102.499 91.501s-36.5 84.666 -36.5 135.999s11.667 96.333 35 135s56.666 68.667 99.999 90s94.333 32 153 32c26 0 52.333 -4.66699 79 -14l3 3c-24.667 32.667 -51.667 58.667 -81 78l-153 -71l-44 95l95 42
c-26 14 -58.333 27.333 -97 40l47 93c38 -12 69.5 -23.333 94.5 -34s51.167 -24.334 78.5 -41.001l156 73l44 -95l-104 -48c56 -49.333 100.333 -106.166 133 -170.499s49 -129.833 49 -196.5c0 -50 -12.333 -95.667 -37 -137s-59.5 -74 -104.5 -98s-96.833 -36 -155.5 -36
c-57.333 0 -108 10.833 -152 32.5zM440.501 140.501c29.667 27.667 44.5 64.167 44.5 109.5c0 44 -14.667 79.833 -44 107.5s-67 41.5 -113 41.5s-83.667 -13.833 -113 -41.5s-44 -63.5 -44 -107.5c0 -45.333 14.5 -81.833 43.5 -109.5s66.5 -41.5 112.5 -41.5
s83.833 13.833 113.5 41.5z" />
    <glyph glyph-name="ntilde" unicode="&#xf1;" horiz-adv-x="571" 
d="M391.5 52.5c-5 21.667 -7.5 46.1699 -7.5 73.5029v161c0 67.333 -28 101 -84 101c-33.333 0 -60.166 -13 -80.499 -39s-30.5 -59 -30.5 -99v-250h-132v349c0 20 -1.5 37.333 -4.5 52s-8.83301 31 -17.5 49l117 45c6 -10.667 11.5 -23.334 16.5 -38.001
s7.83301 -27.334 8.5 -38.001c19.333 22.667 43.166 41 71.499 55s58.5 21 90.5 21c62 0 107 -17.833 135 -53.5s42 -87.167 42 -154.5v-158c0 -36.667 6.66699 -68.334 20 -95.001l-120 -44c-11.333 20 -19.5 40.833 -24.5 62.5zM112 597.003
c6 29.333 19.165 53.5 39.498 72.5s42.833 28.5 67.5 28.5c17.333 0 32.833 -2.66699 46.5 -8s28.5 -13 44.5 -23c7.33301 -4.66699 14.833 -8.66699 22.5 -12s14.5 -5 20.5 -5c12.667 0 22.334 3.5 29.001 10.5s11.334 18.833 14.001 35.5l67 -32
c0 -32.667 -8.33301 -58.5 -25 -77.5s-39 -28.5 -67 -28.5c-15.333 0 -29.833 2.5 -43.5 7.5s-28.5 11.833 -44.5 20.5c-11.333 6 -20.666 10.5 -27.999 13.5s-14.333 4.5 -21 4.5c-11.333 0 -21.333 -3.66699 -30 -11s-14.334 -19 -17.001 -35z" />
    <glyph glyph-name="ograve" unicode="&#xf2;" horiz-adv-x="568" 
d="M152.5 20.5c-37.667 21 -66.667 50.667 -87 89s-30.5 82.5 -30.5 132.5s10.167 94.167 30.5 132.5s49.333 68 87 89s81.5 31.5 131.5 31.5s93.833 -10.5 131.5 -31.5s66.667 -50.667 87 -89s30.5 -82.5 30.5 -132.5s-10.167 -94.167 -30.5 -132.5s-49.333 -68 -87 -89
s-81.5 -31.5 -131.5 -31.5s-93.833 10.5 -131.5 31.5zM370 134.5c19.333 25.667 29 61.5 29 107.5s-9.66699 81.833 -29 107.5s-48 38.5 -86 38.5s-66.667 -12.833 -86 -38.5s-29 -61.5 -29 -107.5s9.66699 -81.833 29 -107.5s48 -38.5 86 -38.5s66.667 12.833 86 38.5z
M106 743h149l84 -189h-109z" />
    <glyph glyph-name="oacute" unicode="&#xf3;" horiz-adv-x="568" 
d="M152.5 20.5c-37.667 21 -66.667 50.667 -87 89s-30.5 82.5 -30.5 132.5s10.167 94.167 30.5 132.5s49.333 68 87 89s81.5 31.5 131.5 31.5s93.833 -10.5 131.5 -31.5s66.667 -50.667 87 -89s30.5 -82.5 30.5 -132.5s-10.167 -94.167 -30.5 -132.5s-49.333 -68 -87 -89
s-81.5 -31.5 -131.5 -31.5s-93.833 10.5 -131.5 31.5zM370 134.5c19.333 25.667 29 61.5 29 107.5s-9.66699 81.833 -29 107.5s-48 38.5 -86 38.5s-66.667 -12.833 -86 -38.5s-29 -61.5 -29 -107.5s9.66699 -81.833 29 -107.5s48 -38.5 86 -38.5s66.667 12.833 86 38.5z
M311 743h149l-124 -189h-109z" />
    <glyph glyph-name="ocircumflex" unicode="&#xf4;" horiz-adv-x="568" 
d="M152.5 20.5c-37.667 21 -66.667 50.667 -87 89s-30.5 82.5 -30.5 132.5s10.167 94.167 30.5 132.5s49.333 68 87 89s81.5 31.5 131.5 31.5s93.833 -10.5 131.5 -31.5s66.667 -50.667 87 -89s30.5 -82.5 30.5 -132.5s-10.167 -94.167 -30.5 -132.5s-49.333 -68 -87 -89
s-81.5 -31.5 -131.5 -31.5s-93.833 10.5 -131.5 31.5zM370 134.5c19.333 25.667 29 61.5 29 107.5s-9.66699 81.833 -29 107.5s-48 38.5 -86 38.5s-66.667 -12.833 -86 -38.5s-29 -61.5 -29 -107.5s9.66699 -81.833 29 -107.5s48 -38.5 86 -38.5s66.667 12.833 86 38.5z
M227 713c10.667 12.667 20.501 21.5 29.501 26.5s20.5 7.5 34.5 7.5c19.333 0 34.166 -4 44.499 -12s15.5 -17.333 15.5 -28c0 -2 -0.666992 -5 -2 -9l-2 -6l131 -138h-136l-60 81l-55 -81h-133z" />
    <glyph glyph-name="otilde" unicode="&#xf5;" horiz-adv-x="568" 
d="M152.5 20.5c-37.667 21 -66.667 50.667 -87 89s-30.5 82.5 -30.5 132.5s10.167 94.167 30.5 132.5s49.333 68 87 89s81.5 31.5 131.5 31.5s93.833 -10.5 131.5 -31.5s66.667 -50.667 87 -89s30.5 -82.5 30.5 -132.5s-10.167 -94.167 -30.5 -132.5s-49.333 -68 -87 -89
s-81.5 -31.5 -131.5 -31.5s-93.833 10.5 -131.5 31.5zM370 134.5c19.333 25.667 29 61.5 29 107.5s-9.66699 81.833 -29 107.5s-48 38.5 -86 38.5s-66.667 -12.833 -86 -38.5s-29 -61.5 -29 -107.5s9.66699 -81.833 29 -107.5s48 -38.5 86 -38.5s66.667 12.833 86 38.5z
M104 597c6 29.333 19.165 53.5 39.498 72.5s42.833 28.5 67.5 28.5c17.333 0 32.833 -2.66699 46.5 -8s28.5 -13 44.5 -23c7.33301 -4.66699 14.833 -8.66699 22.5 -12s14.5 -5 20.5 -5c12.667 0 22.334 3.5 29.001 10.5s11.334 18.833 14.001 35.5l67 -32
c0 -32.667 -8.33301 -58.5 -25 -77.5s-39 -28.5 -67 -28.5c-15.333 0 -29.833 2.5 -43.5 7.5s-28.5 11.833 -44.5 20.5c-11.333 6 -20.666 10.5 -27.999 13.5s-14.333 4.5 -21 4.5c-11.333 0 -21.333 -3.66699 -30 -11s-14.334 -19 -17.001 -35z" />
    <glyph glyph-name="odieresis" unicode="&#xf6;" horiz-adv-x="568" 
d="M152.5 20.5c-37.667 21 -66.667 50.667 -87 89s-30.5 82.5 -30.5 132.5s10.167 94.167 30.5 132.5s49.333 68 87 89s81.5 31.5 131.5 31.5s93.833 -10.5 131.5 -31.5s66.667 -50.667 87 -89s30.5 -82.5 30.5 -132.5s-10.167 -94.167 -30.5 -132.5s-49.333 -68 -87 -89
s-81.5 -31.5 -131.5 -31.5s-93.833 10.5 -131.5 31.5zM370 134.5c19.333 25.667 29 61.5 29 107.5s-9.66699 81.833 -29 107.5s-48 38.5 -86 38.5s-66.667 -12.833 -86 -38.5s-29 -61.5 -29 -107.5s9.66699 -81.833 29 -107.5s48 -38.5 86 -38.5s66.667 12.833 86 38.5z
M117 585c-14.667 14 -22 31.667 -22 53s7.33301 39 22 53s33.334 21 56.001 21c22 0 40.167 -7.16699 54.5 -21.5s21.5 -31.833 21.5 -52.5s-7.16699 -38.167 -21.5 -52.5s-32.5 -21.5 -54.5 -21.5c-22.667 0 -41.334 7 -56.001 21zM343 585c-14.667 14 -22 31.667 -22 53
s7.33301 39 22 53s33.334 21 56.001 21c22 0 40.167 -7.16699 54.5 -21.5s21.5 -31.833 21.5 -52.5s-7.16699 -38.167 -21.5 -52.5s-32.5 -21.5 -54.5 -21.5c-22.667 0 -41.334 7 -56.001 21z" />
    <glyph glyph-name="divide" unicode="&#xf7;" horiz-adv-x="560" 
d="M226 414c-14 14 -21 31 -21 51s7 37 21 51s32 21 54 21s40 -7 54 -21s21 -31 21 -51s-7 -37 -21 -51s-32 -21 -54 -21s-40 7 -54 21zM54 338h452v-106h-452v106zM226 54c-14 14 -21 31 -21 51s7 37 21 51s32 21 54 21s40 -7 54 -21s21 -31 21 -51s-7 -37 -21 -51
s-32 -21 -54 -21s-40 7 -54 21z" />
    <glyph glyph-name="oslash" unicode="&#xf8;" horiz-adv-x="568" 
d="M506 368c18 -36.667 27 -78.667 27 -126c0 -50 -10.167 -94.167 -30.5 -132.5s-49.333 -68 -87 -89s-81.5 -31.5 -131.5 -31.5c-38 0 -72.667 6 -104 18l-43 -78l-45 25l43 77c-32 22 -56.667 51.167 -74 87.5s-26 77.5 -26 123.5c0 50 10.167 94.167 30.5 132.5
s49.333 68 87 89s81.5 31.5 131.5 31.5c35.333 0 68.333 -5.66699 99 -17l43 78l45 -25l-42 -76c33.333 -21.333 59 -50.333 77 -87zM195 139l134 240.999c-14 5.33301 -29 8 -45 8c-38 0 -66.667 -12.833 -86 -38.5s-29 -61.5 -29 -107.5
c0 -43.333 8.66699 -77.666 26 -102.999zM370 134.499c19.333 25.667 29.001 61.5 29.001 107.5s-9.66699 81.667 -29 107l-135 -243c13.333 -6.66699 29.666 -10 48.999 -10c38 0 66.667 12.833 86 38.5z" />
    <glyph glyph-name="ugrave" unicode="&#xf9;" horiz-adv-x="556" 
d="M132 15.5c-28.667 17 -51.168 41.3311 -67.501 72.998s-24.5 68.167 -24.5 109.5v287h132v-287c0 -67.333 31.667 -101 95 -101c33.333 0 58.333 11.167 75 33.5s25 51.833 25 88.5v266h132v-349c0 -20 1.5 -37.333 4.5 -52s8.83301 -31 17.5 -49l-117 -45
c-6 10.667 -11.5 23.334 -16.5 38.001s-7.83301 27.334 -8.5 38.001c-33.333 -50.667 -82.666 -76 -147.999 -76c-37.333 0 -70.333 8.5 -99 25.5zM103.999 742.998h149l84 -189h-109z" />
    <glyph glyph-name="uacute" unicode="&#xfa;" horiz-adv-x="556" 
d="M132 15.5c-28.667 17 -51.168 41.3311 -67.501 72.998s-24.5 68.167 -24.5 109.5v287h132v-287c0 -67.333 31.667 -101 95 -101c33.333 0 58.333 11.167 75 33.5s25 51.833 25 88.5v266h132v-349c0 -20 1.5 -37.333 4.5 -52s8.83301 -31 17.5 -49l-117 -45
c-6 10.667 -11.5 23.334 -16.5 38.001s-7.83301 27.334 -8.5 38.001c-33.333 -50.667 -82.666 -76 -147.999 -76c-37.333 0 -70.333 8.5 -99 25.5zM308.999 742.998h149l-124 -189h-109z" />
    <glyph glyph-name="ucircumflex" unicode="&#xfb;" horiz-adv-x="556" 
d="M132 15.5c-28.667 17 -51.168 41.3311 -67.501 72.998s-24.5 68.167 -24.5 109.5v287h132v-287c0 -67.333 31.667 -101 95 -101c33.333 0 58.333 11.167 75 33.5s25 51.833 25 88.5v266h132v-349c0 -20 1.5 -37.333 4.5 -52s8.83301 -31 17.5 -49l-117 -45
c-6 10.667 -11.5 23.334 -16.5 38.001s-7.83301 27.334 -8.5 38.001c-33.333 -50.667 -82.666 -76 -147.999 -76c-37.333 0 -70.333 8.5 -99 25.5zM224.999 712.998c10.667 12.667 20.501 21.5 29.501 26.5s20.5 7.5 34.5 7.5c19.333 0 34.166 -4 44.499 -12
s15.5 -17.333 15.5 -28c0 -2 -0.666992 -5 -2 -9l-2 -6l131 -138h-136l-60 81l-55 -81h-133z" />
    <glyph glyph-name="udieresis" unicode="&#xfc;" horiz-adv-x="556" 
d="M132 15.5c-28.667 17 -51.168 41.3311 -67.501 72.998s-24.5 68.167 -24.5 109.5v287h132v-287c0 -67.333 31.667 -101 95 -101c33.333 0 58.333 11.167 75 33.5s25 51.833 25 88.5v266h132v-349c0 -20 1.5 -37.333 4.5 -52s8.83301 -31 17.5 -49l-117 -45
c-6 10.667 -11.5 23.334 -16.5 38.001s-7.83301 27.334 -8.5 38.001c-33.333 -50.667 -82.666 -76 -147.999 -76c-37.333 0 -70.333 8.5 -99 25.5zM114.999 584.998c-14.667 14 -22 31.667 -22 53s7.33301 39 22 53s33.334 21 56.001 21c22 0 40.167 -7.16699 54.5 -21.5
s21.5 -31.833 21.5 -52.5s-7.16699 -38.167 -21.5 -52.5s-32.5 -21.5 -54.5 -21.5c-22.667 0 -41.334 7 -56.001 21zM340.999 584.998c-14.667 14 -22 31.667 -22 53s7.33301 39 22 53s33.334 21 56.001 21c22 0 40.167 -7.16699 54.5 -21.5s21.5 -31.833 21.5 -52.5
s-7.16699 -38.167 -21.5 -52.5s-32.5 -21.5 -54.5 -21.5c-22.667 0 -41.334 7 -56.001 21z" />
    <glyph glyph-name="yacute" unicode="&#xfd;" horiz-adv-x="589" 
d="M69 -123c45.333 15.333 81.166 35.5 107.499 60.5s44.833 60.167 55.5 105.5l-197 442h153l112 -298l102 298h152l-197 -487c-25.333 -62 -56.666 -110 -93.999 -144s-89.333 -61.667 -156 -83zM323 743h149l-124 -189h-109z" />
    <glyph glyph-name="thorn" unicode="&#xfe;" horiz-adv-x="570" 
d="M40 704h131.998v-265c16.667 18 37.334 32.167 62.001 42.5s52.334 15.5 83.001 15.5c42 0 79.5 -10 112.5 -30s58.833 -49 77.5 -87s28 -83.333 28 -136s-9.5 -98 -28.5 -136s-45.5 -66.833 -79.5 -86.5s-73.333 -29.5 -118 -29.5c-28 0 -53.667 5.16699 -77 15.5
s-43.333 24.5 -60 42.5v-269h-132v923zM402.998 244c0 47.333 -9.66797 83.833 -29.001 109.5s-47.333 38.5 -84 38.5c-39.333 0 -69.166 -12.5 -89.499 -37.5s-30.5 -58.5 -30.5 -100.5v-18c0 -38.667 10 -71.5 30 -98.5s48.667 -40.5 86 -40.5c78 0 117 49 117 147z" />
    <glyph glyph-name="ydieresis" unicode="&#xff;" horiz-adv-x="589" 
d="M69 -123c45.333 15.333 81.166 35.5 107.499 60.5s44.833 60.167 55.5 105.5l-197 442h153l112 -298l102 298h152l-197 -487c-25.333 -62 -56.666 -110 -93.999 -144s-89.333 -61.667 -156 -83zM129 585c-14.667 14 -22 31.667 -22 53s7.33301 39 22 53
s33.334 21 56.001 21c22 0 40.167 -7.16699 54.5 -21.5s21.5 -31.833 21.5 -52.5s-7.16699 -38.167 -21.5 -52.5s-32.5 -21.5 -54.5 -21.5c-22.667 0 -41.334 7 -56.001 21zM355 585c-14.667 14 -22 31.667 -22 53s7.33301 39 22 53s33.334 21 56.001 21
c22 0 40.167 -7.16699 54.5 -21.5s21.5 -31.833 21.5 -52.5s-7.16699 -38.167 -21.5 -52.5s-32.5 -21.5 -54.5 -21.5c-22.667 0 -41.334 7 -56.001 21z" />
    <glyph glyph-name="Amacron" unicode="&#x100;" horiz-adv-x="714" 
d="M284 660c14 38.667 40 58 78 58c24 0 43 -5 57 -15s21 -23.667 21 -41c0 -4 -1.33301 -10 -4 -18l243 -644h-140l-66 185h-232l-66 -185h-140zM444 291l-86 241l-86 -241h172zM186 870h352v-101h-352v101z" />
    <glyph glyph-name="amacron" unicode="&#x101;" horiz-adv-x="586" 
d="M140 19c-32.667 19.333 -58.333 47.3301 -77 83.9971s-28 80.334 -28 131.001c0 54 9.5 100.667 28.5 140s45.667 69.333 80 90s74.5 31 120.5 31c54 0 99 -20.333 135 -61v51h127v-349c0 -23.333 2 -42.666 6 -57.999s10.333 -30.666 19 -45.999l-107 -42
c-20 22 -31.333 47 -34 75h-2c-18.667 -24 -41.5 -42.5 -68.5 -55.5s-56.5 -19.5 -88.5 -19.5c-41.333 0 -78.333 9.66699 -111 29zM366.001 132.497c20 25 30.001 58.501 30.001 100.501v18c0 38.667 -9.83301 71.5 -29.5 98.5s-47.834 40.5 -84.501 40.5
c-37.333 0 -65.833 -13.333 -85.5 -40s-29.5 -65.334 -29.5 -116.001c0 -45.333 9.5 -79.833 28.5 -103.5s46.5 -35.5 82.5 -35.5c38.667 0 68 12.5 88 37.5zM103.002 654.998h352v-101h-352v101z" />
    <glyph glyph-name="Abreve" unicode="&#x102;" horiz-adv-x="714" 
d="M284 660c14 38.667 40 58 78 58c24 0 43 -5 57 -15s21 -23.667 21 -41c0 -4 -1.33301 -10 -4 -18l243 -644h-140l-66 185h-232l-66 -185h-140zM444 291l-86 241l-86 -241h172zM244.5 805c-31 26.667 -46.502 65.667 -46.502 117v11h113v-12
c0 -21.333 4.33301 -37.5 13 -48.5s21.334 -16.5 38.001 -16.5s29.334 5.5 38.001 16.5s13 27.167 13 48.5v12h113v-11c0 -51.333 -15.5 -90.333 -46.5 -117s-70.167 -40 -117.5 -40s-86.5 13.333 -117.5 40z" />
    <glyph glyph-name="abreve" unicode="&#x103;" horiz-adv-x="586" 
d="M140 19c-32.667 19.333 -58.333 47.3301 -77 83.9971s-28 80.334 -28 131.001c0 54 9.5 100.667 28.5 140s45.667 69.333 80 90s74.5 31 120.5 31c54 0 99 -20.333 135 -61v51h127v-349c0 -23.333 2 -42.666 6 -57.999s10.333 -30.666 19 -45.999l-107 -42
c-20 22 -31.333 47 -34 75h-2c-18.667 -24 -41.5 -42.5 -68.5 -55.5s-56.5 -19.5 -88.5 -19.5c-41.333 0 -78.333 9.66699 -111 29zM366.001 132.497c20 25 30.001 58.501 30.001 100.501v18c0 38.667 -9.83301 71.5 -29.5 98.5s-47.834 40.5 -84.501 40.5
c-37.333 0 -65.833 -13.333 -85.5 -40s-29.5 -65.334 -29.5 -116.001c0 -45.333 9.5 -79.833 28.5 -103.5s46.5 -35.5 82.5 -35.5c38.667 0 68 12.5 88 37.5zM161.502 589.998c-31 26.667 -46.502 65.667 -46.502 117v11h113v-12c0 -21.333 4.33301 -37.5 13 -48.5
s21.334 -16.5 38.001 -16.5s29.334 5.5 38.001 16.5s13 27.167 13 48.5v12h113v-11c0 -51.333 -15.5 -90.333 -46.5 -117s-70.167 -40 -117.5 -40s-86.5 13.333 -117.5 40z" />
    <glyph glyph-name="Aogonek" unicode="&#x104;" horiz-adv-x="714" 
d="M284 660c14 38.667 40 58 78 58c24 0 43 -5 57 -15s21 -23.667 21 -41c0 -4 -1.33301 -10 -4 -18l243 -644h-140l-66 185h-232l-66 -185h-140zM444 291l-86 241l-86 -241h172zM511 -202c-22 19.333 -32.998 45.668 -32.998 79.001c0 27.333 8.66699 51.666 26 72.999
s40.333 38 69 50h106c-60.667 -36 -91 -70.667 -91 -104c0 -21.333 12 -32 36 -32c16.667 0 32 4.66699 46 14l27 -77c-14.667 -11.333 -29.834 -19.5 -45.501 -24.5s-33.834 -7.5 -54.501 -7.5c-35.333 0 -64 9.66699 -86 29z" />
    <glyph glyph-name="aogonek" unicode="&#x105;" horiz-adv-x="586" 
d="M569 -167c-14.667 -11.333 -29.8311 -19.501 -45.498 -24.501s-33.834 -7.5 -54.501 -7.5c-35.333 0 -64 9.66699 -86 29s-33 45.666 -33 78.999c0 23.333 6.5 44.666 19.5 63.999s30.833 35.333 53.5 48c-6.66699 12 -11 26.667 -13 44h-2
c-18.667 -24 -41.5 -42.5 -68.5 -55.5s-56.5 -19.5 -88.5 -19.5c-41.333 0 -78.333 9.66699 -111 29s-58.334 47.333 -77.001 84s-28 80.334 -28 131.001c0 54 9.5 100.667 28.5 140s45.667 69.333 80 90s74.5 31 120.5 31c54 0 99 -20.333 135 -61v51h127v-349
c0 -23.333 2 -42.666 6 -57.999s10.333 -30.666 19 -45.999c-60.667 -36 -91 -70.667 -91 -104c0 -21.333 12 -32 36 -32c16.667 0 32 4.66699 46 14zM396.003 250.999c0 38.667 -9.83203 71.501 -29.499 98.501s-47.834 40.5 -84.501 40.5
c-37.333 0 -65.833 -13.333 -85.5 -40s-29.5 -65.334 -29.5 -116.001c0 -45.333 9.5 -79.833 28.5 -103.5s46.5 -35.5 82.5 -35.5c38.667 0 68 12.5 88 37.5s30 58.5 30 100.5v18z" />
    <glyph glyph-name="Cacute" unicode="&#x106;" horiz-adv-x="654" 
d="M124.5 85c-59.667 63.333 -89.5 152.001 -89.5 266.001c0 113.333 29 201.5 87 264.5s140 94.5 246 94.5c48 0 92.167 -8.33301 132.5 -25s72.5 -39.667 96.5 -69l-52 -90c-24 25.333 -49.167 44.166 -75.5 56.499s-60.166 18.5 -101.499 18.5
c-63.333 0 -112 -21.833 -146 -65.5s-51 -105.167 -51 -184.5s18 -141.166 54 -185.499s87 -66.5 153 -66.5c34.667 0 65 5.66699 91 17s50 29.666 72 54.999l78 -74c-26.667 -32.667 -61.834 -58.667 -105.501 -78s-89.5 -29 -137.5 -29c-108 0 -191.833 31.667 -251.5 95z
M378 958.001h149l-124 -189h-109z" />
    <glyph glyph-name="cacute" unicode="&#x107;" horiz-adv-x="534" 
d="M106 57c-47.333 44.667 -70.999 106.333 -70.999 185c0 79.333 23.333 141.333 70 186s111 67 193 67c38 0 73.333 -6.16699 106 -18.5s59 -28.5 79 -48.5l-45 -87c-38.667 31.333 -83.334 47 -134.001 47c-42 0 -75 -12 -99 -36s-36 -60.667 -36 -110
c0 -48.667 12.167 -85 36.5 -109s58.166 -36 101.499 -36c24.667 0 46.834 3.83301 66.501 11.5s38.5 20.167 56.5 37.5l69 -72c-22 -26 -50.333 -46.5 -85 -61.5s-71.667 -22.5 -111 -22.5c-84 0 -149.667 22.333 -197 67zM314.001 742.999h149l-124 -189h-109z" />
    <glyph glyph-name="Ccircumflex" unicode="&#x108;" horiz-adv-x="654" 
d="M124.5 85c-59.667 63.333 -89.5 152.001 -89.5 266.001c0 113.333 29 201.5 87 264.5s140 94.5 246 94.5c48 0 92.167 -8.33301 132.5 -25s72.5 -39.667 96.5 -69l-52 -90c-24 25.333 -49.167 44.166 -75.5 56.499s-60.166 18.5 -101.499 18.5
c-63.333 0 -112 -21.833 -146 -65.5s-51 -105.167 -51 -184.5s18 -141.166 54 -185.499s87 -66.5 153 -66.5c34.667 0 65 5.66699 91 17s50 29.666 72 54.999l78 -74c-26.667 -32.667 -61.834 -58.667 -105.501 -78s-89.5 -29 -137.5 -29c-108 0 -191.833 31.667 -251.5 95z
M294 928.001c10.667 12.667 20.501 21.5 29.501 26.5s20.5 7.5 34.5 7.5c19.333 0 34.166 -4 44.499 -12s15.5 -17.333 15.5 -28c0 -2 -0.666992 -5 -2 -9l-2 -6l131 -138h-136l-60 81l-55 -81h-133z" />
    <glyph glyph-name="ccircumflex" unicode="&#x109;" horiz-adv-x="534" 
d="M106 57c-47.333 44.667 -70.999 106.333 -70.999 185c0 79.333 23.333 141.333 70 186s111 67 193 67c38 0 73.333 -6.16699 106 -18.5s59 -28.5 79 -48.5l-45 -87c-38.667 31.333 -83.334 47 -134.001 47c-42 0 -75 -12 -99 -36s-36 -60.667 -36 -110
c0 -48.667 12.167 -85 36.5 -109s58.166 -36 101.499 -36c24.667 0 46.834 3.83301 66.501 11.5s38.5 20.167 56.5 37.5l69 -72c-22 -26 -50.333 -46.5 -85 -61.5s-71.667 -22.5 -111 -22.5c-84 0 -149.667 22.333 -197 67zM230.001 712.999
c10.667 12.667 20.501 21.5 29.501 26.5s20.5 7.5 34.5 7.5c19.333 0 34.166 -4 44.499 -12s15.5 -17.333 15.5 -28c0 -2 -0.666992 -5 -2 -9l-2 -6l131 -138h-136l-60 81l-55 -81h-133z" />
    <glyph glyph-name="Cdotaccent" unicode="&#x10a;" horiz-adv-x="654" 
d="M124.5 85c-59.667 63.333 -89.5 152.001 -89.5 266.001c0 113.333 29 201.5 87 264.5s140 94.5 246 94.5c48 0 92.167 -8.33301 132.5 -25s72.5 -39.667 96.5 -69l-52 -90c-24 25.333 -49.167 44.166 -75.5 56.499s-60.166 18.5 -101.499 18.5
c-63.333 0 -112 -21.833 -146 -65.5s-51 -105.167 -51 -184.5s18 -141.166 54 -185.499s87 -66.5 153 -66.5c34.667 0 65 5.66699 91 17s50 29.666 72 54.999l78 -74c-26.667 -32.667 -61.834 -58.667 -105.501 -78s-89.5 -29 -137.5 -29c-108 0 -191.833 31.667 -251.5 95z
M297.5 800.001c-14.333 14 -21.5 31.667 -21.5 53s7.16699 39 21.5 53s32.5 21 54.5 21s39.833 -7.16699 53.5 -21.5s20.5 -31.833 20.5 -52.5s-6.83301 -38.167 -20.5 -52.5s-31.5 -21.5 -53.5 -21.5s-40.167 7 -54.5 21z" />
    <glyph glyph-name="cdotaccent" unicode="&#x10b;" horiz-adv-x="534" 
d="M106 57c-47.333 44.667 -70.999 106.333 -70.999 185c0 79.333 23.333 141.333 70 186s111 67 193 67c38 0 73.333 -6.16699 106 -18.5s59 -28.5 79 -48.5l-45 -87c-38.667 31.333 -83.334 47 -134.001 47c-42 0 -75 -12 -99 -36s-36 -60.667 -36 -110
c0 -48.667 12.167 -85 36.5 -109s58.166 -36 101.499 -36c24.667 0 46.834 3.83301 66.501 11.5s38.5 20.167 56.5 37.5l69 -72c-22 -26 -50.333 -46.5 -85 -61.5s-71.667 -22.5 -111 -22.5c-84 0 -149.667 22.333 -197 67zM233.501 584.999
c-14.333 14 -21.5 31.667 -21.5 53s7.16699 39 21.5 53s32.5 21 54.5 21s39.833 -7.16699 53.5 -21.5s20.5 -31.833 20.5 -52.5s-6.83301 -38.167 -20.5 -52.5s-31.5 -21.5 -53.5 -21.5s-40.167 7 -54.5 21z" />
    <glyph glyph-name="Ccaron" unicode="&#x10c;" horiz-adv-x="654" 
d="M124.5 85c-59.667 63.333 -89.5 152.001 -89.5 266.001c0 113.333 29 201.5 87 264.5s140 94.5 246 94.5c48 0 92.167 -8.33301 132.5 -25s72.5 -39.667 96.5 -69l-52 -90c-24 25.333 -49.167 44.166 -75.5 56.499s-60.166 18.5 -101.499 18.5
c-63.333 0 -112 -21.833 -146 -65.5s-51 -105.167 -51 -184.5s18 -141.166 54 -185.499s87 -66.5 153 -66.5c34.667 0 65 5.66699 91 17s50 29.666 72 54.999l78 -74c-26.667 -32.667 -61.834 -58.667 -105.501 -78s-89.5 -29 -137.5 -29c-108 0 -191.833 31.667 -251.5 95z
M300.5 781.001c-10.333 8 -15.501 17.333 -15.501 28c0 2 0.666992 5 2 9l2 6l-131 138h136l60 -81l55 81h133l-133 -159c-10.667 -12.667 -20.5 -21.5 -29.5 -26.5s-20.5 -7.5 -34.5 -7.5c-19.333 0 -34.166 4 -44.499 12z" />
    <glyph glyph-name="ccaron" unicode="&#x10d;" horiz-adv-x="534" 
d="M106 57c-47.333 44.667 -70.999 106.333 -70.999 185c0 79.333 23.333 141.333 70 186s111 67 193 67c38 0 73.333 -6.16699 106 -18.5s59 -28.5 79 -48.5l-45 -87c-38.667 31.333 -83.334 47 -134.001 47c-42 0 -75 -12 -99 -36s-36 -60.667 -36 -110
c0 -48.667 12.167 -85 36.5 -109s58.166 -36 101.499 -36c24.667 0 46.834 3.83301 66.501 11.5s38.5 20.167 56.5 37.5l69 -72c-22 -26 -50.333 -46.5 -85 -61.5s-71.667 -22.5 -111 -22.5c-84 0 -149.667 22.333 -197 67zM236.501 565.999
c-10.333 8 -15.501 17.333 -15.501 28c0 2 0.666992 5 2 9l2 6l-131 138h136l60 -81l55 81h133l-133 -159c-10.667 -12.667 -20.5 -21.5 -29.5 -26.5s-20.5 -7.5 -34.5 -7.5c-19.333 0 -34.166 4 -44.499 12z" />
    <glyph glyph-name="Dcaron" unicode="&#x10e;" horiz-adv-x="663" 
d="M65 576c0 14 -1.83203 24.833 -5.49902 32.5s-8.5 14.167 -14.5 19.5c-2.66699 2.66699 -5 5.5 -7 8.5s-3 6.16699 -3 9.5c0 2 0.666992 5 2 9c5.33301 15.333 14.166 29.666 26.499 42.999s25.166 20 38.499 20c14.667 0 27.334 -6 38.001 -18h138
c72 0 134.333 -14.5 187 -43.5s93 -69.667 121 -122s42 -113.166 42 -182.499c0 -110 -30 -196.167 -90 -258.5s-145 -93.5 -255 -93.5h-218v576zM283.001 116c70.667 0 123.167 19.5 157.5 58.5s51.5 98.167 51.5 177.5c0 75.333 -18.333 132.833 -55 172.5
s-90.667 59.5 -162 59.5h-76v-468h84zM263.501 781c-10.333 8 -15.501 17.333 -15.501 28c0 2 0.666992 5 2 9l2 6l-131 138h136l60 -81l55 81h133l-133 -159c-10.667 -12.667 -20.5 -21.5 -29.5 -26.5s-20.5 -7.5 -34.5 -7.5c-19.333 0 -34.166 4 -44.499 12z" />
    <glyph glyph-name="dcaron" unicode="&#x10f;" horiz-adv-x="780" 
d="M568 544c32.667 15.333 53.668 31.6699 63.001 49.0029c-14.667 3.33301 -27.334 11.166 -38.001 23.499s-16 25.833 -16 40.5c0 23.333 7.66699 42.166 23 56.499s35.333 21.5 60 21.5c26 0 46.667 -7.83301 62 -23.5s23 -36.834 23 -63.501
c0 -32.667 -13.667 -64 -41 -94s-60.333 -53.667 -99 -71zM414.001 65.0039c-38.667 -50 -90.334 -75 -155.001 -75c-42.667 0 -81 9.66699 -115 29s-60.667 47.333 -80 84s-29 80.334 -29 131.001c0 54 9.66699 100.667 29 140s46.333 69.333 81 90s75 31 121 31
c28.667 0 53.5 -5.16699 74.5 -15.5s40.167 -24.5 57.5 -42.5v297h132v-598c0 -23.333 2 -42.833 6 -58.5s10.333 -31.167 19 -46.5l-107 -42c-19.333 21.333 -30.666 46.666 -33.999 75.999zM369.501 132.504c20.333 25 30.501 58.501 30.501 100.501v18
c0 39.333 -9.83301 72.333 -29.5 99s-48.5 40 -86.5 40s-67 -13.333 -87 -40s-30 -65.334 -30 -116.001c0 -45.333 9.66699 -79.833 29 -103.5s47.333 -35.5 84 -35.5c39.333 0 69.166 12.5 89.499 37.5z" />
    <glyph glyph-name="Dcroat" unicode="&#x110;" horiz-adv-x="683" 
d="M485 656.5c52.667 -29 93.002 -69.667 121.002 -122s42 -113.166 42 -182.499c0 -110 -30 -196.167 -90 -258.5s-145 -93.5 -255 -93.5h-218v301h-50v96h50v179c0 14 -1.83301 24.833 -5.5 32.5s-8.5 14.167 -14.5 19.5c-2.66699 2.66699 -5 5.5 -7 8.5
s-3 6.16699 -3 9.5c0 2 0.666992 5 2 9c5.33301 15.333 14.166 29.666 26.499 42.999s25.166 20 38.499 20c14 0 26.667 -6 38 -18h138c72 0 134.333 -14.5 187 -43.5zM460.502 174.5c34.333 39 51.5 98.167 51.5 177.5c0 75.333 -18.333 132.833 -55 172.5
s-90.667 59.5 -162 59.5h-76v-187h152v-96h-152v-185h84c70.667 0 123.167 19.5 157.5 58.5z" />
    <glyph glyph-name="dcroat" unicode="&#x111;" horiz-adv-x="614" 
d="M530 553v-417c0 -23.333 2 -42.833 6 -58.5s10.333 -31.167 19 -46.5l-107 -42c-19.333 21.333 -30.666 46.666 -33.999 75.999c-38.667 -50 -90.334 -75 -155.001 -75c-42.667 0 -81 9.66699 -115 29s-60.667 47.333 -80 84s-29 80.334 -29 131.001
c0 54 9.66699 100.667 29 140s46.333 69.333 81 90s75 31 121 31c28.667 0 53.5 -5.16699 74.5 -15.5s40.167 -24.5 57.5 -42.5v116h-101v96h101v85h132v-85h49v-96h-49zM400 251c0 39.333 -9.83203 72.334 -29.499 99.001s-48.5 40 -86.5 40s-67 -13.333 -87 -40
s-30 -65.334 -30 -116.001c0 -45.333 9.66699 -79.833 29 -103.5s47.333 -35.5 84 -35.5c39.333 0 69.166 12.5 89.499 37.5s30.5 58.5 30.5 100.5v18z" />
    <glyph glyph-name="Emacron" unicode="&#x112;" horiz-adv-x="553" 
d="M65 576c0 14 -1.83203 24.834 -5.49902 32.501s-8.5 14.167 -14.5 19.5c-2.66699 2.66699 -5 5.5 -7 8.5s-3 6.16699 -3 9.5c0 2 0.666992 5 2 9c5.33301 15.333 14.166 29.666 26.499 42.999s25.166 20 38.499 20c14.667 0 27.334 -6 38.001 -18h369v-116h-310v-162h226
v-110h-226v-196h319v-116h-453v576zM113.001 870.001h352v-101h-352v101z" />
    <glyph glyph-name="emacron" unicode="&#x113;" horiz-adv-x="560" 
d="M104.5 57c-46.333 44.667 -69.502 105.332 -69.502 181.999c0 50 9.33301 94.333 28 133s46.334 68.834 83.001 90.501s81 32.5 133 32.5c50.667 0 94.667 -10.5 132 -31.5s65.666 -49.667 84.999 -86s29 -76.833 29 -121.5c0 -22 -7.16699 -38.833 -21.5 -50.5
s-34.166 -17.5 -59.499 -17.5h-278c0 -27.333 11.833 -49.333 35.5 -66s54.5 -25 92.5 -25c31.333 0 57.833 4.5 79.5 13.5s40.834 21.833 57.501 38.5l66 -70c-22 -28 -50.333 -49.833 -85 -65.5s-74 -23.5 -118 -23.5c-80 0 -143.167 22.333 -189.5 67zM393.998 290.998
c0 29.333 -10.833 53.166 -32.5 71.499s-49.167 27.5 -82.5 27.5c-32 0 -58.833 -9.16699 -80.5 -27.5s-32.5 -42.166 -32.5 -71.499h228zM112.998 654.998h352v-101h-352v101z" />
    <glyph glyph-name="Ebreve" unicode="&#x114;" horiz-adv-x="553" 
d="M65 576c0 14 -1.83203 24.834 -5.49902 32.501s-8.5 14.167 -14.5 19.5c-2.66699 2.66699 -5 5.5 -7 8.5s-3 6.16699 -3 9.5c0 2 0.666992 5 2 9c5.33301 15.333 14.166 29.666 26.499 42.999s25.166 20 38.499 20c14.667 0 27.334 -6 38.001 -18h369v-116h-310v-162h226
v-110h-226v-196h319v-116h-453v576zM171.501 805.001c-31 26.667 -46.502 65.667 -46.502 117v11h113v-12c0 -21.333 4.33301 -37.5 13 -48.5s21.334 -16.5 38.001 -16.5s29.334 5.5 38.001 16.5s13 27.167 13 48.5v12h113v-11c0 -51.333 -15.5 -90.333 -46.5 -117
s-70.167 -40 -117.5 -40s-86.5 13.333 -117.5 40z" />
    <glyph glyph-name="ebreve" unicode="&#x115;" horiz-adv-x="560" 
d="M104.5 57c-46.333 44.667 -69.502 105.332 -69.502 181.999c0 50 9.33301 94.333 28 133s46.334 68.834 83.001 90.501s81 32.5 133 32.5c50.667 0 94.667 -10.5 132 -31.5s65.666 -49.667 84.999 -86s29 -76.833 29 -121.5c0 -22 -7.16699 -38.833 -21.5 -50.5
s-34.166 -17.5 -59.499 -17.5h-278c0 -27.333 11.833 -49.333 35.5 -66s54.5 -25 92.5 -25c31.333 0 57.833 4.5 79.5 13.5s40.834 21.833 57.501 38.5l66 -70c-22 -28 -50.333 -49.833 -85 -65.5s-74 -23.5 -118 -23.5c-80 0 -143.167 22.333 -189.5 67zM393.998 290.998
c0 29.333 -10.833 53.166 -32.5 71.499s-49.167 27.5 -82.5 27.5c-32 0 -58.833 -9.16699 -80.5 -27.5s-32.5 -42.166 -32.5 -71.499h228zM171.498 589.998c-31 26.667 -46.502 65.667 -46.502 117v11h113v-12c0 -21.333 4.33301 -37.5 13 -48.5s21.334 -16.5 38.001 -16.5
s29.334 5.5 38.001 16.5s13 27.167 13 48.5v12h113v-11c0 -51.333 -15.5 -90.333 -46.5 -117s-70.167 -40 -117.5 -40s-86.5 13.333 -117.5 40z" />
    <glyph glyph-name="Edotaccent" unicode="&#x116;" horiz-adv-x="553" 
d="M65 576c0 14 -1.83203 24.834 -5.49902 32.501s-8.5 14.167 -14.5 19.5c-2.66699 2.66699 -5 5.5 -7 8.5s-3 6.16699 -3 9.5c0 2 0.666992 5 2 9c5.33301 15.333 14.166 29.666 26.499 42.999s25.166 20 38.499 20c14.667 0 27.334 -6 38.001 -18h369v-116h-310v-162h226
v-110h-226v-196h319v-116h-453v576zM235.501 800.001c-14.333 14 -21.5 31.667 -21.5 53s7.16699 39 21.5 53s32.5 21 54.5 21s39.833 -7.16699 53.5 -21.5s20.5 -31.833 20.5 -52.5s-6.83301 -38.167 -20.5 -52.5s-31.5 -21.5 -53.5 -21.5s-40.167 7 -54.5 21z" />
    <glyph glyph-name="edotaccent" unicode="&#x117;" horiz-adv-x="560" 
d="M104.5 57c-46.333 44.667 -69.502 105.332 -69.502 181.999c0 50 9.33301 94.333 28 133s46.334 68.834 83.001 90.501s81 32.5 133 32.5c50.667 0 94.667 -10.5 132 -31.5s65.666 -49.667 84.999 -86s29 -76.833 29 -121.5c0 -22 -7.16699 -38.833 -21.5 -50.5
s-34.166 -17.5 -59.499 -17.5h-278c0 -27.333 11.833 -49.333 35.5 -66s54.5 -25 92.5 -25c31.333 0 57.833 4.5 79.5 13.5s40.834 21.833 57.501 38.5l66 -70c-22 -28 -50.333 -49.833 -85 -65.5s-74 -23.5 -118 -23.5c-80 0 -143.167 22.333 -189.5 67zM393.998 290.998
c0 29.333 -10.833 53.166 -32.5 71.499s-49.167 27.5 -82.5 27.5c-32 0 -58.833 -9.16699 -80.5 -27.5s-32.5 -42.166 -32.5 -71.499h228zM235.498 584.998c-14.333 14 -21.5 31.667 -21.5 53s7.16699 39 21.5 53s32.5 21 54.5 21s39.833 -7.16699 53.5 -21.5
s20.5 -31.833 20.5 -52.5s-6.83301 -38.167 -20.5 -52.5s-31.5 -21.5 -53.5 -21.5s-40.167 7 -54.5 21z" />
    <glyph glyph-name="Eogonek" unicode="&#x118;" horiz-adv-x="553" 
d="M524 -193c-14.667 -11.333 -29.8311 -19.498 -45.498 -24.498s-33.834 -7.5 -54.501 -7.5c-35.333 0 -64 9.66699 -86 29s-33 45.666 -33 78.999c0 24.667 7.5 47.167 22.5 67.5s34.833 36.833 59.5 49.5h-322v576c0 14 -1.83301 24.833 -5.5 32.5
s-8.5 14.167 -14.5 19.5c-2.66699 2.66699 -5 5.5 -7 8.5s-3 6.16699 -3 9.5c0 2 0.666992 5 2 9c5.33301 15.333 14.166 29.666 26.499 42.999s25.166 20 38.499 20c14.667 0 27.334 -6 38.001 -18h369v-116h-310v-162h226v-110h-226v-196h319v-116h-22
c-54 -34 -81 -66.667 -81 -98c0 -21.333 12 -32 36 -32c16.667 0 32 4.66699 46 14z" />
    <glyph glyph-name="eogonek" unicode="&#x119;" horiz-adv-x="560" 
d="M503.5 205.5c-14.333 -11.667 -34.166 -17.5 -59.499 -17.5h-278c0 -27.333 11.833 -49.333 35.5 -66s54.5 -25 92.5 -25c31.333 0 57.833 4.5 79.5 13.5s40.834 21.833 57.501 38.5l66 -70c-34.667 -44 -82.667 -72 -144 -84c-49.333 -31.333 -74 -62.333 -74 -93
c0 -21.333 12 -32 36 -32c16.667 0 32 4.66699 46 14l27 -77c-14.667 -11.333 -29.834 -19.5 -45.501 -24.5s-33.834 -7.5 -54.501 -7.5c-35.333 0 -64 9.66699 -86 29s-33 45.666 -33 78.999c0 22.667 6.33301 43.667 19 63s30 35.333 52 48
c-64 10 -114.167 36.5 -150.5 79.5s-54.5 98.167 -54.5 165.5c0 50 9.33301 94.333 28 133s46.334 68.834 83.001 90.501s81 32.5 133 32.5c50.667 0 94.667 -10.5 132 -31.5s65.666 -49.667 84.999 -86s29 -76.833 29 -121.5c0 -22 -7.16699 -38.833 -21.5 -50.5zM394 291
c0 29.333 -10.833 53.166 -32.5 71.499s-49.167 27.5 -82.5 27.5c-32 0 -58.833 -9.16699 -80.5 -27.5s-32.5 -42.166 -32.5 -71.499h228z" />
    <glyph glyph-name="Ecaron" unicode="&#x11a;" horiz-adv-x="553" 
d="M65 576c0 14 -1.83203 24.834 -5.49902 32.501s-8.5 14.167 -14.5 19.5c-2.66699 2.66699 -5 5.5 -7 8.5s-3 6.16699 -3 9.5c0 2 0.666992 5 2 9c5.33301 15.333 14.166 29.666 26.499 42.999s25.166 20 38.499 20c14.667 0 27.334 -6 38.001 -18h369v-116h-310v-162h226
v-110h-226v-196h319v-116h-453v576zM238.501 781.001c-10.333 8 -15.501 17.333 -15.501 28c0 2 0.666992 5 2 9l2 6l-131 138h136l60 -81l55 81h133l-133 -159c-10.667 -12.667 -20.5 -21.5 -29.5 -26.5s-20.5 -7.5 -34.5 -7.5c-19.333 0 -34.166 4 -44.499 12z" />
    <glyph glyph-name="ecaron" unicode="&#x11b;" horiz-adv-x="560" 
d="M104.5 57c-46.333 44.667 -69.502 105.332 -69.502 181.999c0 50 9.33301 94.333 28 133s46.334 68.834 83.001 90.501s81 32.5 133 32.5c50.667 0 94.667 -10.5 132 -31.5s65.666 -49.667 84.999 -86s29 -76.833 29 -121.5c0 -22 -7.16699 -38.833 -21.5 -50.5
s-34.166 -17.5 -59.499 -17.5h-278c0 -27.333 11.833 -49.333 35.5 -66s54.5 -25 92.5 -25c31.333 0 57.833 4.5 79.5 13.5s40.834 21.833 57.501 38.5l66 -70c-22 -28 -50.333 -49.833 -85 -65.5s-74 -23.5 -118 -23.5c-80 0 -143.167 22.333 -189.5 67zM393.998 290.998
c0 29.333 -10.833 53.166 -32.5 71.499s-49.167 27.5 -82.5 27.5c-32 0 -58.833 -9.16699 -80.5 -27.5s-32.5 -42.166 -32.5 -71.499h228zM238.498 565.998c-10.333 8 -15.501 17.333 -15.501 28c0 2 0.666992 5 2 9l2 6l-131 138h136l60 -81l55 81h133l-133 -159
c-10.667 -12.667 -20.5 -21.5 -29.5 -26.5s-20.5 -7.5 -34.5 -7.5c-19.333 0 -34.166 4 -44.499 12z" />
    <glyph glyph-name="Gcircumflex" unicode="&#x11c;" horiz-adv-x="676" 
d="M188.5 33c-49.667 28.667 -87.665 70 -113.998 124s-39.5 118.667 -39.5 194c0 113.333 29 201.5 87 264.5s140 94.5 246 94.5c48 0 92.167 -8.33301 132.5 -25s72.5 -39.667 96.5 -69l-52 -90c-24 25.333 -49.167 44.166 -75.5 56.499s-60.166 18.5 -101.499 18.5
c-63.333 0 -112 -21.833 -146 -65.5s-51 -105.167 -51 -184.5c0 -78.667 17.5 -140.334 52.5 -185.001s83.167 -67 144.5 -67c25.333 0 46 1.83301 62 5.5s31.667 9.83398 47 18.501v158h-153v111h212c11.333 12 24 18 38 18c13.333 0 26.166 -6.66699 38.499 -20
s21.166 -27.666 26.499 -42.999c1.33301 -4 2 -7 2 -9c0 -3.33301 -1 -6.5 -3 -9.5s-4.33301 -5.83301 -7 -8.5c-6 -5.33301 -10.833 -11.833 -14.5 -19.5s-5.5 -18.5 -5.5 -32.5v-202c-43.333 -27.333 -83.5 -46.833 -120.5 -58.5s-78.5 -17.5 -124.5 -17.5
c-68.667 0 -127.834 14.333 -177.501 43zM306.002 928c10.667 12.667 20.501 21.5 29.501 26.5s20.5 7.5 34.5 7.5c19.333 0 34.166 -4 44.499 -12s15.5 -17.333 15.5 -28c0 -2 -0.666992 -5 -2 -9l-2 -6l131 -138h-136l-60 81l-55 -81h-133z" />
    <glyph glyph-name="gcircumflex" unicode="&#x11d;" horiz-adv-x="590" 
d="M87 -174l38.999 95c40.667 -21.333 86.334 -32 137.001 -32c50 0 85 12.333 105 37s30 59.667 30 105v27c-16.667 -18 -36.667 -32.167 -60 -42.5s-49 -15.5 -77 -15.5c-68 0 -122.667 21.5 -164 64.5s-62 104.167 -62 183.5c0 52.667 9.33301 97.667 28 135
s44.334 65.666 77.001 84.999s70.334 29 113.001 29c64 0 117.667 -25 161 -75c3.33301 29.333 14.666 54.666 33.999 75.999l107 -42c-8.66699 -15.333 -15 -30.666 -19 -45.999s-6 -35 -6 -59v-308c0 -85.333 -22.833 -150.166 -68.5 -194.499
s-111.834 -66.5 -198.501 -66.5c-60 0 -118.667 14.667 -176 44zM369.999 145.5c20 27 29.998 59.832 29.998 98.499v10c0 42 -10.167 75.5 -30.5 100.5s-50.166 37.5 -89.499 37.5c-36.667 0 -64.667 -12.167 -84 -36.5s-29 -60.166 -29 -107.499
c0 -49.333 9.83301 -85.5 29.5 -108.5s48.834 -34.5 87.501 -34.5c37.333 0 66 13.5 86 40.5zM246.997 712.999c10.667 12.667 20.501 21.5 29.501 26.5s20.5 7.5 34.5 7.5c19.333 0 34.166 -4 44.499 -12s15.5 -17.333 15.5 -28c0 -2 -0.666992 -5 -2 -9l-2 -6l131 -138
h-136l-60 81l-55 -81h-133z" />
    <glyph glyph-name="Gbreve" unicode="&#x11e;" horiz-adv-x="676" 
d="M188.5 33c-49.667 28.667 -87.665 70 -113.998 124s-39.5 118.667 -39.5 194c0 113.333 29 201.5 87 264.5s140 94.5 246 94.5c48 0 92.167 -8.33301 132.5 -25s72.5 -39.667 96.5 -69l-52 -90c-24 25.333 -49.167 44.166 -75.5 56.499s-60.166 18.5 -101.499 18.5
c-63.333 0 -112 -21.833 -146 -65.5s-51 -105.167 -51 -184.5c0 -78.667 17.5 -140.334 52.5 -185.001s83.167 -67 144.5 -67c25.333 0 46 1.83301 62 5.5s31.667 9.83398 47 18.501v158h-153v111h212c11.333 12 24 18 38 18c13.333 0 26.166 -6.66699 38.499 -20
s21.166 -27.666 26.499 -42.999c1.33301 -4 2 -7 2 -9c0 -3.33301 -1 -6.5 -3 -9.5s-4.33301 -5.83301 -7 -8.5c-6 -5.33301 -10.833 -11.833 -14.5 -19.5s-5.5 -18.5 -5.5 -32.5v-202c-43.333 -27.333 -83.5 -46.833 -120.5 -58.5s-78.5 -17.5 -124.5 -17.5
c-68.667 0 -127.834 14.333 -177.501 43zM245.502 805c-31 26.667 -46.502 65.667 -46.502 117v11h113v-12c0 -21.333 4.33301 -37.5 13 -48.5s21.334 -16.5 38.001 -16.5s29.334 5.5 38.001 16.5s13 27.167 13 48.5v12h113v-11c0 -51.333 -15.5 -90.333 -46.5 -117
s-70.167 -40 -117.5 -40s-86.5 13.333 -117.5 40z" />
    <glyph glyph-name="gbreve" unicode="&#x11f;" horiz-adv-x="590" 
d="M87 -174l38.999 95c40.667 -21.333 86.334 -32 137.001 -32c50 0 85 12.333 105 37s30 59.667 30 105v27c-16.667 -18 -36.667 -32.167 -60 -42.5s-49 -15.5 -77 -15.5c-68 0 -122.667 21.5 -164 64.5s-62 104.167 -62 183.5c0 52.667 9.33301 97.667 28 135
s44.334 65.666 77.001 84.999s70.334 29 113.001 29c64 0 117.667 -25 161 -75c3.33301 29.333 14.666 54.666 33.999 75.999l107 -42c-8.66699 -15.333 -15 -30.666 -19 -45.999s-6 -35 -6 -59v-308c0 -85.333 -22.833 -150.166 -68.5 -194.499
s-111.834 -66.5 -198.501 -66.5c-60 0 -118.667 14.667 -176 44zM369.999 145.5c20 27 29.998 59.832 29.998 98.499v10c0 42 -10.167 75.5 -30.5 100.5s-50.166 37.5 -89.499 37.5c-36.667 0 -64.667 -12.167 -84 -36.5s-29 -60.166 -29 -107.499
c0 -49.333 9.83301 -85.5 29.5 -108.5s48.834 -34.5 87.501 -34.5c37.333 0 66 13.5 86 40.5zM186.497 589.999c-31 26.667 -46.502 65.667 -46.502 117v11h113v-12c0 -21.333 4.33301 -37.5 13 -48.5s21.334 -16.5 38.001 -16.5s29.334 5.5 38.001 16.5s13 27.167 13 48.5
v12h113v-11c0 -51.333 -15.5 -90.333 -46.5 -117s-70.167 -40 -117.5 -40s-86.5 13.333 -117.5 40z" />
    <glyph glyph-name="Gdotaccent" unicode="&#x120;" horiz-adv-x="676" 
d="M188.5 33c-49.667 28.667 -87.665 70 -113.998 124s-39.5 118.667 -39.5 194c0 113.333 29 201.5 87 264.5s140 94.5 246 94.5c48 0 92.167 -8.33301 132.5 -25s72.5 -39.667 96.5 -69l-52 -90c-24 25.333 -49.167 44.166 -75.5 56.499s-60.166 18.5 -101.499 18.5
c-63.333 0 -112 -21.833 -146 -65.5s-51 -105.167 -51 -184.5c0 -78.667 17.5 -140.334 52.5 -185.001s83.167 -67 144.5 -67c25.333 0 46 1.83301 62 5.5s31.667 9.83398 47 18.501v158h-153v111h212c11.333 12 24 18 38 18c13.333 0 26.166 -6.66699 38.499 -20
s21.166 -27.666 26.499 -42.999c1.33301 -4 2 -7 2 -9c0 -3.33301 -1 -6.5 -3 -9.5s-4.33301 -5.83301 -7 -8.5c-6 -5.33301 -10.833 -11.833 -14.5 -19.5s-5.5 -18.5 -5.5 -32.5v-202c-43.333 -27.333 -83.5 -46.833 -120.5 -58.5s-78.5 -17.5 -124.5 -17.5
c-68.667 0 -127.834 14.333 -177.501 43zM309.502 800c-14.333 14 -21.5 31.667 -21.5 53s7.16699 39 21.5 53s32.5 21 54.5 21s39.833 -7.16699 53.5 -21.5s20.5 -31.833 20.5 -52.5s-6.83301 -38.167 -20.5 -52.5s-31.5 -21.5 -53.5 -21.5s-40.167 7 -54.5 21z" />
    <glyph glyph-name="gdotaccent" unicode="&#x121;" horiz-adv-x="590" 
d="M87 -174l38.999 95c40.667 -21.333 86.334 -32 137.001 -32c50 0 85 12.333 105 37s30 59.667 30 105v27c-16.667 -18 -36.667 -32.167 -60 -42.5s-49 -15.5 -77 -15.5c-68 0 -122.667 21.5 -164 64.5s-62 104.167 -62 183.5c0 52.667 9.33301 97.667 28 135
s44.334 65.666 77.001 84.999s70.334 29 113.001 29c64 0 117.667 -25 161 -75c3.33301 29.333 14.666 54.666 33.999 75.999l107 -42c-8.66699 -15.333 -15 -30.666 -19 -45.999s-6 -35 -6 -59v-308c0 -85.333 -22.833 -150.166 -68.5 -194.499
s-111.834 -66.5 -198.501 -66.5c-60 0 -118.667 14.667 -176 44zM369.999 145.5c20 27 29.998 59.832 29.998 98.499v10c0 42 -10.167 75.5 -30.5 100.5s-50.166 37.5 -89.499 37.5c-36.667 0 -64.667 -12.167 -84 -36.5s-29 -60.166 -29 -107.499
c0 -49.333 9.83301 -85.5 29.5 -108.5s48.834 -34.5 87.501 -34.5c37.333 0 66 13.5 86 40.5zM250.497 584.999c-14.333 14 -21.5 31.667 -21.5 53s7.16699 39 21.5 53s32.5 21 54.5 21s39.833 -7.16699 53.5 -21.5s20.5 -31.833 20.5 -52.5s-6.83301 -38.167 -20.5 -52.5
s-31.5 -21.5 -53.5 -21.5s-40.167 7 -54.5 21z" />
    <glyph glyph-name="uni0122" unicode="&#x122;" horiz-adv-x="676" 
d="M188.5 33c-49.667 28.667 -87.665 70 -113.998 124s-39.5 118.667 -39.5 194c0 113.333 29 201.5 87 264.5s140 94.5 246 94.5c48 0 92.167 -8.33301 132.5 -25s72.5 -39.667 96.5 -69l-52 -90c-24 25.333 -49.167 44.166 -75.5 56.499s-60.166 18.5 -101.499 18.5
c-63.333 0 -112 -21.833 -146 -65.5s-51 -105.167 -51 -184.5c0 -78.667 17.5 -140.334 52.5 -185.001s83.167 -67 144.5 -67c25.333 0 46 1.83301 62 5.5s31.667 9.83398 47 18.501v158h-153v111h212c11.333 12 24 18 38 18c13.333 0 26.166 -6.66699 38.499 -20
s21.166 -27.666 26.499 -42.999c1.33301 -4 2 -7 2 -9c0 -3.33301 -1 -6.5 -3 -9.5s-4.33301 -5.83301 -7 -8.5c-6 -5.33301 -10.833 -11.833 -14.5 -19.5s-5.5 -18.5 -5.5 -32.5v-202c-43.333 -27.333 -83.5 -46.833 -120.5 -58.5s-78.5 -17.5 -124.5 -17.5
c-68.667 0 -127.834 14.333 -177.501 43zM291.002 -229c27.333 12 48.002 28.668 62.002 50.001c-19.333 -2 -35.5 3.5 -48.5 16.5s-19.5 28.5 -19.5 46.5c0 22 7.16699 39.667 21.5 53s33.166 20 56.499 20c26 0 46 -7.83301 60 -23.5s21 -36.834 21 -63.501
c0 -30.667 -11.333 -59.167 -34 -85.5s-51.334 -46.833 -86.001 -61.5z" />
    <glyph glyph-name="uni0123" unicode="&#x123;" horiz-adv-x="590" 
d="M87 -174l38.999 95c40.667 -21.333 86.334 -32 137.001 -32c50 0 85 12.333 105 37s30 59.667 30 105v27c-16.667 -18 -36.667 -32.167 -60 -42.5s-49 -15.5 -77 -15.5c-68 0 -122.667 21.5 -164 64.5s-62 104.167 -62 183.5c0 52.667 9.33301 97.667 28 135
s44.334 65.666 77.001 84.999s70.334 29 113.001 29c64 0 117.667 -25 161 -75c3.33301 29.333 14.666 54.666 33.999 75.999l107 -42c-8.66699 -15.333 -15 -30.666 -19 -45.999s-6 -35 -6 -59v-308c0 -85.333 -22.833 -150.166 -68.5 -194.499
s-111.834 -66.5 -198.501 -66.5c-60 0 -118.667 14.667 -176 44zM369.999 145.5c20 27 29.998 59.832 29.998 98.499v10c0 42 -10.167 75.5 -30.5 100.5s-50.166 37.5 -89.499 37.5c-36.667 0 -64.667 -12.167 -84 -36.5s-29 -60.166 -29 -107.499
c0 -49.333 9.83301 -85.5 29.5 -108.5s48.834 -34.5 87.501 -34.5c37.333 0 66 13.5 86 40.5zM253.997 560.499c-15.333 15.667 -23.001 36.8301 -23.001 63.4971c0 32.667 13.667 64 41 94s60.333 53.667 99 71l37 -61c-32.667 -15.333 -53.667 -31.666 -63 -48.999
c14.667 -3.33301 27.334 -11.166 38.001 -23.499s16 -25.833 16 -40.5c0 -23.333 -7.66699 -42.166 -23 -56.499s-35.333 -21.5 -60 -21.5c-26 0 -46.667 7.83301 -62 23.5z" />
    <glyph glyph-name="Hcircumflex" unicode="&#x124;" horiz-adv-x="631" 
d="M45 700h134v-275h273v275h134v-700h-134v311h-273v-311h-134v700zM259 928c10.667 12.667 20.501 21.5 29.501 26.5s20.5 7.5 34.5 7.5c19.333 0 34.166 -4 44.499 -12s15.5 -17.333 15.5 -28c0 -2 -0.666992 -5 -2 -9l-2 -6l131 -138h-136l-60 81l-55 -81h-133z" />
    <glyph glyph-name="hcircumflex" unicode="&#x125;" horiz-adv-x="554" 
d="M374.5 52.5c-5 21.667 -7.50098 46.1689 -7.50098 73.502v161c0 67.333 -28 101 -84 101c-33.333 0 -60.166 -13 -80.499 -39s-30.5 -59 -30.5 -99v-250h-132v734h132v-302c19.333 19.333 41.333 34.666 66 45.999s51 17 79 17c121.333 0 182 -69.333 182 -208v-158
c0 -36.667 6.66699 -68.334 20 -95.001l-120 -44c-11.333 20 -19.5 40.833 -24.5 62.5zM167.999 962.002c10.667 12.667 20.501 21.5 29.501 26.5s20.5 7.5 34.5 7.5c19.333 0 34.166 -4 44.499 -12s15.5 -17.333 15.5 -28c0 -2 -0.666992 -5 -2 -9l-2 -6l131 -138h-136
l-60 81l-55 -81h-133z" />
    <glyph glyph-name="Hbar" unicode="&#x126;" horiz-adv-x="715" 
d="M680 514h-52v-514h-134v311h-273v-311h-134v514h-52v96h52v90h134v-90h273v90h134v-90h52v-96zM494 514h-273v-89h273v89z" />
    <glyph glyph-name="hbar" unicode="&#x127;" horiz-adv-x="604" 
d="M569 34l-120.001 -43.998c-11.333 20 -19.5 40.833 -24.5 62.5s-7.5 46.167 -7.5 73.5v161c0 67.333 -28 101 -84 101c-33.333 0 -60.166 -13 -80.499 -39s-30.5 -59 -30.5 -99v-250h-132v554h-55v86h55v94h132v-94h105v-86h-105v-122
c19.333 19.333 41.333 34.666 66 45.999s51 17 79 17c121.333 0 182 -69.333 182 -208v-158c0 -36.667 6.66699 -68.334 20 -95.001z" />
    <glyph glyph-name="Itilde" unicode="&#x128;" horiz-adv-x="304" 
d="M85 700h134v-700h-134v700zM-28 812c6 29.333 19.165 53.5 39.498 72.5s42.833 28.5 67.5 28.5c17.333 0 32.833 -2.66699 46.5 -8s28.5 -13 44.5 -23c7.33301 -4.66699 14.833 -8.66699 22.5 -12s14.5 -5 20.5 -5c12.667 0 22.334 3.5 29.001 10.5
s11.334 18.833 14.001 35.5l67 -32c0 -32.667 -8.33301 -58.5 -25 -77.5s-39 -28.5 -67 -28.5c-15.333 0 -29.833 2.5 -43.5 7.5s-28.5 11.833 -44.5 20.5c-11.333 6 -20.666 10.5 -27.999 13.5s-14.333 4.5 -21 4.5c-11.333 0 -21.333 -3.66699 -30 -11
s-14.334 -19 -17.001 -35z" />
    <glyph glyph-name="itilde" unicode="&#x129;" horiz-adv-x="280" 
d="M74 485h132v-485h-132v485zM-40 597c6 29.333 19.165 53.5 39.498 72.5s42.833 28.5 67.5 28.5c17.333 0 32.833 -2.66699 46.5 -8s28.5 -13 44.5 -23c7.33301 -4.66699 14.833 -8.66699 22.5 -12s14.5 -5 20.5 -5c12.667 0 22.334 3.5 29.001 10.5
s11.334 18.833 14.001 35.5l67 -32c0 -32.667 -8.33301 -58.5 -25 -77.5s-39 -28.5 -67 -28.5c-15.333 0 -29.833 2.5 -43.5 7.5s-28.5 11.833 -44.5 20.5c-11.333 6 -20.666 10.5 -27.999 13.5s-14.333 4.5 -21 4.5c-11.333 0 -21.333 -3.66699 -30 -11
s-14.334 -19 -17.001 -35z" />
    <glyph glyph-name="Imacron" unicode="&#x12a;" horiz-adv-x="304" 
d="M85 700h134v-700h-134v700zM-24 870h352v-101h-352v101z" />
    <glyph glyph-name="imacron" unicode="&#x12b;" horiz-adv-x="280" 
d="M74 485h132v-485h-132v485zM-36 655h352v-101h-352v101z" />
    <glyph glyph-name="Ibreve" unicode="&#x12c;" horiz-adv-x="304" 
d="M85 700h134v-700h-134v700zM34.5 805c-31 26.667 -46.502 65.667 -46.502 117v11h113v-12c0 -21.333 4.33301 -37.5 13 -48.5s21.334 -16.5 38.001 -16.5s29.334 5.5 38.001 16.5s13 27.167 13 48.5v12h113v-11c0 -51.333 -15.5 -90.333 -46.5 -117
s-70.167 -40 -117.5 -40s-86.5 13.333 -117.5 40z" />
    <glyph glyph-name="ibreve" unicode="&#x12d;" horiz-adv-x="280" 
d="M74 485h132v-485h-132v485zM22.5 590c-31 26.667 -46.502 65.667 -46.502 117v11h113v-12c0 -21.333 4.33301 -37.5 13 -48.5s21.334 -16.5 38.001 -16.5s29.334 5.5 38.001 16.5s13 27.167 13 48.5v12h113v-11c0 -51.333 -15.5 -90.333 -46.5 -117
s-70.167 -40 -117.5 -40s-86.5 13.333 -117.5 40z" />
    <glyph glyph-name="Iogonek" unicode="&#x12e;" horiz-adv-x="304" 
d="M222 -193c-14.667 -11.333 -29.832 -19.499 -45.499 -24.499s-33.834 -7.5 -54.501 -7.5c-35.333 0 -64 9.66699 -86 29s-33 45.666 -33 78.999c0 24.667 7.5 47.167 22.5 67.5s34.833 36.833 59.5 49.5v700h134v-700h-25c-54 -34 -81 -66.667 -81 -98
c0 -21.333 12 -32 36 -32c16.667 0 32 4.66699 46 14z" />
    <glyph glyph-name="iogonek" unicode="&#x12f;" horiz-adv-x="280" 
d="M75.5 564c-17 16 -25.5 36.333 -25.5 61s8.5 45 25.5 61s38.5 24 64.5 24s47.5 -8 64.5 -24s25.5 -36.333 25.5 -61s-8.5 -45 -25.5 -61s-38.5 -24 -64.5 -24s-47.5 8 -64.5 24zM74 485h132v-485h-132v485zM38 -202c-22 19.333 -32.998 45.668 -32.998 79.001
c0 27.333 8.66699 51.666 26 72.999s40.333 38 69 50h106c-60.667 -36 -91 -70.667 -91 -104c0 -21.333 12 -32 36 -32c16.667 0 32 4.66699 46 14l27 -77c-14.667 -11.333 -29.834 -19.5 -45.501 -24.5s-33.834 -7.5 -54.501 -7.5c-35.333 0 -64 9.66699 -86 29z" />
    <glyph glyph-name="Idotaccent" unicode="&#x130;" horiz-adv-x="304" 
d="M85 700h134v-700h-134v700zM98.5 800c-14.333 14 -21.5 31.667 -21.5 53s7.16699 39 21.5 53s32.5 21 54.5 21s39.833 -7.16699 53.5 -21.5s20.5 -31.833 20.5 -52.5s-6.83301 -38.167 -20.5 -52.5s-31.5 -21.5 -53.5 -21.5s-40.167 7 -54.5 21z" />
    <glyph glyph-name="dotlessi" unicode="&#x131;" horiz-adv-x="280" 
d="M74 485h132v-485h-132v485z" />
    <glyph glyph-name="IJ" unicode="&#x132;" horiz-adv-x="755" 
d="M85 700h134v-700h-134v700zM408.5 4.5c-30.333 9.66699 -56.833 23.502 -79.5 41.502l53 91c20.667 -12.667 40.167 -21.834 58.5 -27.501s37.833 -8.5 58.5 -8.5c28.667 0 49.5 7.16699 62.5 21.5s19.5 37.166 19.5 68.499v509h134v-506
c0 -62 -18.833 -111.5 -56.5 -148.5s-89.5 -55.5 -155.5 -55.5c-32.667 0 -64.167 4.83301 -94.5 14.5z" />
    <glyph glyph-name="ij" unicode="&#x133;" horiz-adv-x="636" 
d="M75.5 564c-17 16 -25.5 36.333 -25.5 61s8.5 45 25.5 61s38.5 24 64.5 24s47.5 -8 64.5 -24s25.5 -36.333 25.5 -61s-8.5 -45 -25.5 -61s-38.5 -24 -64.5 -24s-47.5 8 -64.5 24zM431.5 564c-17 16 -25.5 36.333 -25.5 61s8.5 45 25.5 61s38.5 24 64.5 24
s47.5 -8 64.5 -24s25.5 -36.333 25.5 -61s-8.5 -45 -25.5 -61s-38.5 -24 -64.5 -24s-47.5 8 -64.5 24zM74 485h132v-485h-132v485zM279.5 -203c-31 10.667 -54.833 24.333 -71.5 41l48 88c34 -25.333 69.333 -38 106 -38c23.333 0 40.5 6.5 51.5 19.5s16.5 34.833 16.5 65.5
v512h132v-504c0 -66 -16 -115.833 -48 -149.5s-79.333 -50.5 -142 -50.5c-30.667 0 -61.5 5.33301 -92.5 16z" />
    <glyph glyph-name="Jcircumflex" unicode="&#x134;" horiz-adv-x="451" 
d="M104.5 4.5c-30.333 9.66699 -56.833 23.502 -79.5 41.502l53 91c20.667 -12.667 40.167 -21.834 58.5 -27.501s37.833 -8.5 58.5 -8.5c28.667 0 49.5 7.16699 62.5 21.5s19.5 37.166 19.5 68.499v509h134v-506c0 -62 -18.833 -111.5 -56.5 -148.5
s-89.5 -55.5 -155.5 -55.5c-32.667 0 -64.167 4.83301 -94.5 14.5zM288 928.002c10.667 12.667 20.501 21.5 29.501 26.5s20.5 7.5 34.5 7.5c19.333 0 34.166 -4 44.499 -12s15.5 -17.333 15.5 -28c0 -2 -0.666992 -5 -2 -9l-2 -6l131 -138h-136l-60 81l-55 -81h-133z" />
    <glyph glyph-name="jcircumflex" unicode="&#x135;" horiz-adv-x="453" 
d="M96.5 -203c-31 10.667 -54.833 24.333 -71.5 41l48 88c34 -25.333 69.333 -38 106 -38c23.333 0 40.5 6.5 51.5 19.5s16.5 34.833 16.5 65.5v512h132v-504c0 -66 -16 -115.833 -48 -149.5s-79.333 -50.5 -142 -50.5c-30.667 0 -61.5 5.33301 -92.5 16zM258 712.999
c10.667 12.667 20.501 21.5 29.501 26.5s20.5 7.5 34.5 7.5c19.333 0 34.166 -4 44.499 -12s15.5 -17.333 15.5 -28c0 -2 -0.666992 -5 -2 -9l-2 -6l131 -138h-136l-60 81l-55 -81h-133z" />
    <glyph glyph-name="uni0136" unicode="&#x136;" horiz-adv-x="626" 
d="M45 700h134v-243l218 243h163l-304 -334l335 -366h-164l-248 274v-274h-134v700zM223 -229c27.333 12 48.002 28.668 62.002 50.001c-19.333 -2 -35.5 3.5 -48.5 16.5s-19.5 28.5 -19.5 46.5c0 22 7.16699 39.667 21.5 53s33.166 20 56.499 20c26 0 46 -7.83301 60 -23.5
s21 -36.834 21 -63.501c0 -30.667 -11.333 -59.167 -34 -85.5s-51.334 -46.833 -86.001 -61.5z" />
    <glyph glyph-name="uni0137" unicode="&#x137;" horiz-adv-x="512" 
d="M45 734h132v-390l135 141h162l-232 -230l255 -255h-170l-150 157v-157h-132v734zM157 -229c27.333 12 48.002 28.668 62.002 50.001c-19.333 -2 -35.5 3.5 -48.5 16.5s-19.5 28.5 -19.5 46.5c0 22 7.16699 39.667 21.5 53s33.166 20 56.499 20c26 0 46 -7.83301 60 -23.5
s21 -36.834 21 -63.501c0 -30.667 -11.333 -59.167 -34 -85.5s-51.334 -46.833 -86.001 -61.5z" />
    <glyph glyph-name="kgreenlandic" unicode="&#x138;" horiz-adv-x="532" 
d="M45 485h132v-151l135 151h162l-236 -240l259 -245h-170l-150 147v-147h-132v485z" />
    <glyph glyph-name="Lacute" unicode="&#x139;" horiz-adv-x="534" 
d="M61.5 6.5c-11.667 11 -19.833 23.833 -24.5 38.5c-1.33301 4 -2 7 -2 9c0 3.33301 1 6.5 3 9.5s4.33301 5.83301 7 8.5c6 5.33301 10.833 11.833 14.5 19.5s5.5 18.5 5.5 32.5v576h134v-584h300v-116h-359c-12 -6.66699 -25.667 -10 -41 -10
c-13.333 0 -25.833 5.5 -37.5 16.5zM161.001 958h149l-124 -189h-109z" />
    <glyph glyph-name="lacute" unicode="&#x13a;" horiz-adv-x="222" 
d="M45 734h132v-734h-132v734zM138 992h149l-124 -189h-109z" />
    <glyph glyph-name="uni013B" unicode="&#x13b;" horiz-adv-x="534" 
d="M61.5 6.5c-11.667 11 -19.833 23.833 -24.5 38.5c-1.33301 4 -2 7 -2 9c0 3.33301 1 6.5 3 9.5s4.33301 5.83301 7 8.5c6 5.33301 10.833 11.833 14.5 19.5s5.5 18.5 5.5 32.5v576h134v-584h300v-116h-359c-12 -6.66699 -25.667 -10 -41 -10
c-13.333 0 -25.833 5.5 -37.5 16.5zM198.001 -229c27.333 12 48.002 28.668 62.002 50.001c-19.333 -2 -35.5 3.5 -48.5 16.5s-19.5 28.5 -19.5 46.5c0 22 7.16699 39.667 21.5 53s33.166 20 56.499 20c26 0 46 -7.83301 60 -23.5s21 -36.834 21 -63.501
c0 -30.667 -11.333 -59.167 -34 -85.5s-51.334 -46.833 -86.001 -61.5z" />
    <glyph glyph-name="uni013C" unicode="&#x13c;" horiz-adv-x="222" 
d="M45 734h132v-734h-132v734zM39 -229c27.333 12 48.002 28.668 62.002 50.001c-19.333 -2 -35.5 3.5 -48.5 16.5s-19.5 28.5 -19.5 46.5c0 22 7.16699 39.667 21.5 53s33.166 20 56.499 20c26 0 46 -7.83301 60 -23.5s21 -36.834 21 -63.501
c0 -30.667 -11.333 -59.167 -34 -85.5s-51.334 -46.833 -86.001 -61.5z" />
    <glyph glyph-name="Lcaron" unicode="&#x13d;" horiz-adv-x="534" 
d="M61.5 6.5c-11.667 11 -19.833 23.833 -24.5 38.5c-1.33301 4 -2 7 -2 9c0 3.33301 1 6.5 3 9.5s4.33301 5.83301 7 8.5c6 5.33301 10.833 11.833 14.5 19.5s5.5 18.5 5.5 32.5v576h134v-584h300v-116h-359c-12 -6.66699 -25.667 -10 -41 -10
c-13.333 0 -25.833 5.5 -37.5 16.5zM316.001 558c32.667 15.333 53.668 31.6699 63.001 49.0029c-14.667 3.33301 -27.334 11.166 -38.001 23.499s-16 25.833 -16 40.5c0 23.333 7.66699 42.166 23 56.499s35.333 21.5 60 21.5c26 0 46.667 -7.83301 62 -23.5
s23 -36.834 23 -63.501c0 -32.667 -13.667 -64 -41 -94s-60.333 -53.667 -99 -71z" />
    <glyph glyph-name="lcaron" unicode="&#x13e;" horiz-adv-x="212" 
d="M45 734h132v-734h-132v734zM257 542c32.667 15.333 53.668 31.6699 63.001 49.0029c-14.667 3.33301 -27.334 11.166 -38.001 23.499s-16 25.833 -16 40.5c0 23.333 7.66699 42.166 23 56.499s35.333 21.5 60 21.5c26 0 46.667 -7.83301 62 -23.5s23 -36.834 23 -63.501
c0 -32.667 -13.667 -64 -41 -94s-60.333 -53.667 -99 -71z" />
    <glyph glyph-name="Ldot" unicode="&#x13f;" horiz-adv-x="534" 
d="M61.5 6.5c-11.667 11 -19.833 23.833 -24.5 38.5c-1.33301 4 -2 7 -2 9c0 3.33301 1 6.5 3 9.5s4.33301 5.83301 7 8.5c6 5.33301 10.833 11.833 14.5 19.5s5.5 18.5 5.5 32.5v576h134v-584h300v-116h-359c-12 -6.66699 -25.667 -10 -41 -10
c-13.333 0 -25.833 5.5 -37.5 16.5zM297.001 287.5c-14.667 14.333 -22 31.833 -22 52.5s7.33301 38.167 22 52.5s33 21.5 55 21.5s40.333 -7.16699 55 -21.5s22 -31.833 22 -52.5s-7.33301 -38.167 -22 -52.5s-33 -21.5 -55 -21.5s-40.333 7.16699 -55 21.5z" />
    <glyph glyph-name="ldot" unicode="&#x140;" horiz-adv-x="380" 
d="M45 734h132v-734h-132v734zM238 313.5c-14.667 14.333 -22 31.833 -22 52.5s7.33301 38.167 22 52.5s33 21.5 55 21.5s40.333 -7.16699 55 -21.5s22 -31.833 22 -52.5s-7.33301 -38.167 -22 -52.5s-33 -21.5 -55 -21.5s-40.333 7.16699 -55 21.5z" />
    <glyph glyph-name="Lslash" unicode="&#x141;" horiz-adv-x="574" 
d="M539 116l0.000976562 -116h-359c-12 -6.66699 -25.667 -10 -41 -10c-13.333 0 -25.833 5.5 -37.5 16.5s-19.834 23.833 -24.501 38.5c-1.33301 4 -2 7 -2 9c0 3.33301 1 6.5 3 9.5s4.33301 5.83301 7 8.5c6 5.33301 10.833 11.833 14.5 19.5s5.5 18.5 5.5 32.5v140
l-70 -32v110l70 32v326h134v-265l148 67v-110l-148 -67v-209h300z" />
    <glyph glyph-name="lslash" unicode="&#x142;" horiz-adv-x="282" 
d="M272 342l-63 -29v-313h-132v253l-67 -31v110l67 31v371h132v-311l63 29v-110z" />
    <glyph glyph-name="Nacute" unicode="&#x143;" horiz-adv-x="628" 
d="M58 597c0 7.33301 -1.16504 13.168 -3.49805 17.501s-5.5 8.83301 -9.5 13.5c-6.66699 8 -10 15.333 -10 22c0 6 0.666992 10.667 2 14c5.33301 17.333 14.666 30.666 27.999 39.999s28.666 14 45.999 14c26 0 45.333 -10 58 -30l280 -448v460h134v-700h-113l-278 443
v-443h-134v597zM356.002 958.002h149l-124 -189h-109z" />
    <glyph glyph-name="nacute" unicode="&#x144;" horiz-adv-x="571" 
d="M391.5 52.5c-5 21.667 -7.5 46.1699 -7.5 73.5029v161c0 67.333 -28 101 -84 101c-33.333 0 -60.166 -13 -80.499 -39s-30.5 -59 -30.5 -99v-250h-132v349c0 20 -1.5 37.333 -4.5 52s-8.83301 31 -17.5 49l117 45c6 -10.667 11.5 -23.334 16.5 -38.001
s7.83301 -27.334 8.5 -38.001c19.333 22.667 43.166 41 71.499 55s58.5 21 90.5 21c62 0 107 -17.833 135 -53.5s42 -87.167 42 -154.5v-158c0 -36.667 6.66699 -68.334 20 -95.001l-120 -44c-11.333 20 -19.5 40.833 -24.5 62.5zM319 743.003h149l-124 -189h-109z" />
    <glyph glyph-name="uni0145" unicode="&#x145;" horiz-adv-x="628" 
d="M58 597c0 7.33301 -1.16504 13.168 -3.49805 17.501s-5.5 8.83301 -9.5 13.5c-6.66699 8 -10 15.333 -10 22c0 6 0.666992 10.667 2 14c5.33301 17.333 14.666 30.666 27.999 39.999s28.666 14 45.999 14c26 0 45.333 -10 58 -30l280 -448v460h134v-700h-113l-278 443
v-443h-134v597zM257.002 -228.998c27.333 12 48.002 28.668 62.002 50.001c-19.333 -2 -35.5 3.5 -48.5 16.5s-19.5 28.5 -19.5 46.5c0 22 7.16699 39.667 21.5 53s33.166 20 56.499 20c26 0 46 -7.83301 60 -23.5s21 -36.834 21 -63.501
c0 -30.667 -11.333 -59.167 -34 -85.5s-51.334 -46.833 -86.001 -61.5z" />
    <glyph glyph-name="uni0146" unicode="&#x146;" horiz-adv-x="571" 
d="M391.5 52.5c-5 21.667 -7.5 46.1699 -7.5 73.5029v161c0 67.333 -28 101 -84 101c-33.333 0 -60.166 -13 -80.499 -39s-30.5 -59 -30.5 -99v-250h-132v349c0 20 -1.5 37.333 -4.5 52s-8.83301 31 -17.5 49l117 45c6 -10.667 11.5 -23.334 16.5 -38.001
s7.83301 -27.334 8.5 -38.001c19.333 22.667 43.166 41 71.499 55s58.5 21 90.5 21c62 0 107 -17.833 135 -53.5s42 -87.167 42 -154.5v-158c0 -36.667 6.66699 -68.334 20 -95.001l-120 -44c-11.333 20 -19.5 40.833 -24.5 62.5zM220 -228.997
c27.333 12 48.002 28.668 62.002 50.001c-19.333 -2 -35.5 3.5 -48.5 16.5s-19.5 28.5 -19.5 46.5c0 22 7.16699 39.667 21.5 53s33.166 20 56.499 20c26 0 46 -7.83301 60 -23.5s21 -36.834 21 -63.501c0 -30.667 -11.333 -59.167 -34 -85.5s-51.334 -46.833 -86.001 -61.5
z" />
    <glyph glyph-name="Ncaron" unicode="&#x147;" horiz-adv-x="628" 
d="M58 597c0 7.33301 -1.16504 13.168 -3.49805 17.501s-5.5 8.83301 -9.5 13.5c-6.66699 8 -10 15.333 -10 22c0 6 0.666992 10.667 2 14c5.33301 17.333 14.666 30.666 27.999 39.999s28.666 14 45.999 14c26 0 45.333 -10 58 -30l280 -448v460h134v-700h-113l-278 443
v-443h-134v597zM278.502 781.002c-10.333 8 -15.501 17.333 -15.501 28c0 2 0.666992 5 2 9l2 6l-131 138h136l60 -81l55 81h133l-133 -159c-10.667 -12.667 -20.5 -21.5 -29.5 -26.5s-20.5 -7.5 -34.5 -7.5c-19.333 0 -34.166 4 -44.499 12z" />
    <glyph glyph-name="ncaron" unicode="&#x148;" horiz-adv-x="571" 
d="M391.5 52.5c-5 21.667 -7.5 46.1699 -7.5 73.5029v161c0 67.333 -28 101 -84 101c-33.333 0 -60.166 -13 -80.499 -39s-30.5 -59 -30.5 -99v-250h-132v349c0 20 -1.5 37.333 -4.5 52s-8.83301 31 -17.5 49l117 45c6 -10.667 11.5 -23.334 16.5 -38.001
s7.83301 -27.334 8.5 -38.001c19.333 22.667 43.166 41 71.499 55s58.5 21 90.5 21c62 0 107 -17.833 135 -53.5s42 -87.167 42 -154.5v-158c0 -36.667 6.66699 -68.334 20 -95.001l-120 -44c-11.333 20 -19.5 40.833 -24.5 62.5zM241.5 566.003
c-10.333 8 -15.501 17.333 -15.501 28c0 2 0.666992 5 2 9l2 6l-131 138h136l60 -81l55 81h133l-133 -159c-10.667 -12.667 -20.5 -21.5 -29.5 -26.5s-20.5 -7.5 -34.5 -7.5c-19.333 0 -34.166 4 -44.499 12z" />
    <glyph glyph-name="napostrophe" unicode="&#x149;" horiz-adv-x="571" 
d="M391.5 52.5c-5 21.667 -7.5 46.1699 -7.5 73.5029v161c0 67.333 -28 101 -84 101c-33.333 0 -60.166 -13 -80.499 -39s-30.5 -59 -30.5 -99v-250h-132v349c0 20 -1.5 37.333 -4.5 52s-8.83301 31 -17.5 49l117 45c6 -10.667 11.5 -23.334 16.5 -38.001
s7.83301 -27.334 8.5 -38.001c19.333 22.667 43.166 41 71.499 55s58.5 21 90.5 21c62 0 107 -17.833 135 -53.5s42 -87.167 42 -154.5v-158c0 -36.667 6.66699 -68.334 20 -95.001l-120 -44c-11.333 20 -19.5 40.833 -24.5 62.5zM-95 500.003
c32.667 15.333 53.668 31.6699 63.001 49.0029c-14.667 3.33301 -27.334 11.166 -38.001 23.499s-16 25.833 -16 40.5c0 23.333 7.66699 42.166 23 56.499s35.333 21.5 60 21.5c26 0 46.667 -7.83301 62 -23.5s23 -36.834 23 -63.501c0 -32.667 -13.667 -64 -41 -94
s-60.333 -53.667 -99 -71z" />
    <glyph glyph-name="Eng" unicode="&#x14a;" horiz-adv-x="628" 
d="M276.5 -252.5c-30.333 9.66699 -56.8311 23.5039 -79.498 41.5039l53 91c20.667 -12.667 40.167 -21.834 58.5 -27.501s37.833 -8.5 58.5 -8.5c28.667 0 49.5 7.16699 62.5 21.5s19.5 37.166 19.5 68.499v99l-257 410v-443h-134v597
c0 7.33301 -1.16699 13.166 -3.5 17.499s-5.5 8.83301 -9.5 13.5c-6.66699 8 -10 15.333 -10 22c0 6 0.666992 10.667 2 14c5.33301 17.333 14.666 30.666 27.999 39.999s28.666 14 45.999 14c26 0 45.333 -10 58 -30l280 -448v460h134v-763
c0 -62 -18.833 -111.5 -56.5 -148.5s-89.5 -55.5 -155.5 -55.5c-32.667 0 -64.167 4.83301 -94.5 14.5z" />
    <glyph glyph-name="eng" unicode="&#x14b;" horiz-adv-x="590" 
d="M233.5 -203c-31 10.667 -54.833 24.335 -71.5 41.002l48 88c34 -25.333 69.333 -38 106 -38c23.333 0 40.5 6.5 51.5 19.5s16.5 34.833 16.5 65.5v314c0 67.333 -28 101 -84 101c-33.333 0 -60.166 -13 -80.499 -39s-30.5 -59 -30.5 -99v-250h-132v349
c0 20 -1.5 37.333 -4.5 52s-8.83301 31 -17.5 49l117 45c6 -10.667 11.5 -23.334 16.5 -38.001s7.83301 -27.334 8.5 -38.001c19.333 22.667 43.166 41 71.499 55s58.5 21 90.5 21c62 0 107 -17.833 135 -53.5s42 -87.167 42 -154.5v-306c0 -66 -16 -115.833 -48 -149.5
s-79.333 -50.5 -142 -50.5c-30.667 0 -61.5 5.33301 -92.5 16z" />
    <glyph glyph-name="Omacron" unicode="&#x14c;" horiz-adv-x="692" 
d="M178 34.5c-46.667 29.667 -82.167 71.5 -106.5 125.5s-36.5 117.333 -36.5 190s12.167 136 36.5 190s59.833 95.833 106.5 125.5s102.667 44.5 168 44.5s121.333 -14.833 168 -44.5s82.167 -71.5 106.5 -125.5s36.5 -117.333 36.5 -190s-12.167 -136 -36.5 -190
s-59.833 -95.833 -106.5 -125.5s-102.667 -44.5 -168 -44.5s-121.333 14.833 -168 44.5zM476 165.5c30 44.333 45 105.833 45 184.5s-15 140.167 -45 184.5s-73.333 66.5 -130 66.5s-100 -22.167 -130 -66.5s-45 -105.833 -45 -184.5s15 -140.167 45 -184.5
s73.333 -66.5 130 -66.5s100 22.167 130 66.5zM170 870h352v-101h-352v101z" />
    <glyph glyph-name="omacron" unicode="&#x14d;" horiz-adv-x="568" 
d="M152.5 20.5c-37.667 21 -66.667 50.667 -87 89s-30.5 82.5 -30.5 132.5s10.167 94.167 30.5 132.5s49.333 68 87 89s81.5 31.5 131.5 31.5s93.833 -10.5 131.5 -31.5s66.667 -50.667 87 -89s30.5 -82.5 30.5 -132.5s-10.167 -94.167 -30.5 -132.5s-49.333 -68 -87 -89
s-81.5 -31.5 -131.5 -31.5s-93.833 10.5 -131.5 31.5zM370 134.5c19.333 25.667 29 61.5 29 107.5s-9.66699 81.833 -29 107.5s-48 38.5 -86 38.5s-66.667 -12.833 -86 -38.5s-29 -61.5 -29 -107.5s9.66699 -81.833 29 -107.5s48 -38.5 86 -38.5s66.667 12.833 86 38.5z
M108 655h352v-101h-352v101z" />
    <glyph glyph-name="Obreve" unicode="&#x14e;" horiz-adv-x="692" 
d="M178 34.5c-46.667 29.667 -82.167 71.5 -106.5 125.5s-36.5 117.333 -36.5 190s12.167 136 36.5 190s59.833 95.833 106.5 125.5s102.667 44.5 168 44.5s121.333 -14.833 168 -44.5s82.167 -71.5 106.5 -125.5s36.5 -117.333 36.5 -190s-12.167 -136 -36.5 -190
s-59.833 -95.833 -106.5 -125.5s-102.667 -44.5 -168 -44.5s-121.333 14.833 -168 44.5zM476 165.5c30 44.333 45 105.833 45 184.5s-15 140.167 -45 184.5s-73.333 66.5 -130 66.5s-100 -22.167 -130 -66.5s-45 -105.833 -45 -184.5s15 -140.167 45 -184.5
s73.333 -66.5 130 -66.5s100 22.167 130 66.5zM228.5 805c-31 26.667 -46.502 65.667 -46.502 117v11h113v-12c0 -21.333 4.33301 -37.5 13 -48.5s21.334 -16.5 38.001 -16.5s29.334 5.5 38.001 16.5s13 27.167 13 48.5v12h113v-11c0 -51.333 -15.5 -90.333 -46.5 -117
s-70.167 -40 -117.5 -40s-86.5 13.333 -117.5 40z" />
    <glyph glyph-name="obreve" unicode="&#x14f;" horiz-adv-x="568" 
d="M152.5 20.5c-37.667 21 -66.667 50.667 -87 89s-30.5 82.5 -30.5 132.5s10.167 94.167 30.5 132.5s49.333 68 87 89s81.5 31.5 131.5 31.5s93.833 -10.5 131.5 -31.5s66.667 -50.667 87 -89s30.5 -82.5 30.5 -132.5s-10.167 -94.167 -30.5 -132.5s-49.333 -68 -87 -89
s-81.5 -31.5 -131.5 -31.5s-93.833 10.5 -131.5 31.5zM370 134.5c19.333 25.667 29 61.5 29 107.5s-9.66699 81.833 -29 107.5s-48 38.5 -86 38.5s-66.667 -12.833 -86 -38.5s-29 -61.5 -29 -107.5s9.66699 -81.833 29 -107.5s48 -38.5 86 -38.5s66.667 12.833 86 38.5z
M166.5 590c-31 26.667 -46.502 65.667 -46.502 117v11h113v-12c0 -21.333 4.33301 -37.5 13 -48.5s21.334 -16.5 38.001 -16.5s29.334 5.5 38.001 16.5s13 27.167 13 48.5v12h113v-11c0 -51.333 -15.5 -90.333 -46.5 -117s-70.167 -40 -117.5 -40s-86.5 13.333 -117.5 40z
" />
    <glyph glyph-name="Ohungarumlaut" unicode="&#x150;" horiz-adv-x="692" 
d="M178 34.5c-46.667 29.667 -82.167 71.5 -106.5 125.5s-36.5 117.333 -36.5 190s12.167 136 36.5 190s59.833 95.833 106.5 125.5s102.667 44.5 168 44.5s121.333 -14.833 168 -44.5s82.167 -71.5 106.5 -125.5s36.5 -117.333 36.5 -190s-12.167 -136 -36.5 -190
s-59.833 -95.833 -106.5 -125.5s-102.667 -44.5 -168 -44.5s-121.333 14.833 -168 44.5zM476 165.5c30 44.333 45 105.833 45 184.5s-15 140.167 -45 184.5s-73.333 66.5 -130 66.5s-100 -22.167 -130 -66.5s-45 -105.833 -45 -184.5s15 -140.167 45 -184.5
s73.333 -66.5 130 -66.5s100 22.167 130 66.5zM291 958h129l-129 -189h-99zM476 958h132l-154 -189h-99z" />
    <glyph glyph-name="ohungarumlaut" unicode="&#x151;" horiz-adv-x="568" 
d="M152.5 20.5c-37.667 21 -66.667 50.667 -87 89s-30.5 82.5 -30.5 132.5s10.167 94.167 30.5 132.5s49.333 68 87 89s81.5 31.5 131.5 31.5s93.833 -10.5 131.5 -31.5s66.667 -50.667 87 -89s30.5 -82.5 30.5 -132.5s-10.167 -94.167 -30.5 -132.5s-49.333 -68 -87 -89
s-81.5 -31.5 -131.5 -31.5s-93.833 10.5 -131.5 31.5zM370 134.5c19.333 25.667 29 61.5 29 107.5s-9.66699 81.833 -29 107.5s-48 38.5 -86 38.5s-66.667 -12.833 -86 -38.5s-29 -61.5 -29 -107.5s9.66699 -81.833 29 -107.5s48 -38.5 86 -38.5s66.667 12.833 86 38.5z
M229 743h129l-129 -189h-99zM414 743h132l-154 -189h-99z" />
    <glyph glyph-name="OE" unicode="&#x152;" horiz-adv-x="986" 
d="M177 34.5c-46.667 29.667 -82 71.5 -106 125.5s-36 117.333 -36 190s12 136 36 190s59.333 95.833 106 125.5s102.334 44.5 167.001 44.5c72.667 0 131.667 -25 177 -75v65h421v-116h-290v-162h206v-110h-206v-196h299v-116h-430v65c-45.333 -50 -104.333 -75 -177 -75
c-64.667 0 -120.334 14.833 -167.001 44.5zM475 165.5c30.667 44.333 46 105.833 46 184.5s-15.333 140.167 -46 184.5s-74.334 66.5 -131.001 66.5c-56 0 -98.833 -22 -128.5 -66s-44.5 -105.667 -44.5 -185s14.833 -141 44.5 -185s72.5 -66 128.5 -66
c56.667 0 100.334 22.167 131.001 66.5z" />
    <glyph glyph-name="oe" unicode="&#x153;" horiz-adv-x="910" 
d="M152.5 21c-37.667 20.667 -66.667 50.166 -87 88.499s-30.5 82.5 -30.5 132.5s10.167 94.167 30.5 132.5s49.333 68 87 89s81.5 31.5 131.5 31.5c70 0 128 -23 174 -69c21.333 22.667 45.666 39.834 72.999 51.501s60 17.5 98 17.5c50.667 0 94.667 -10.5 132 -31.5
s65.666 -49.667 84.999 -86s29 -76.833 29 -121.5c0 -22 -7.16699 -38.833 -21.5 -50.5s-34.166 -17.5 -59.499 -17.5h-277c0 -27.333 11.667 -49.333 35 -66s54 -25 92 -25c31.333 0 57.833 4.5 79.5 13.5s40.834 21.833 57.501 38.5l66 -70
c-22 -28 -50.333 -49.833 -85 -65.5s-74 -23.5 -118 -23.5c-76 0 -137.667 23 -185 69c-44.667 -46 -103 -69 -175 -69c-50 0 -93.833 10.333 -131.5 31zM743 290.999c0 30 -10.668 53.999 -32.001 71.999s-48.666 27 -81.999 27c-32 0 -58.667 -9.16699 -80 -27.5
s-32 -42.166 -32 -71.499h226zM369.999 134.998c19.333 25.333 29 61 29 107s-9.66699 81.833 -29 107.5s-48 38.5 -86 38.5s-66.667 -12.833 -86 -38.5s-29 -61.5 -29 -107.5s9.66699 -81.667 29 -107s48 -38 86 -38s66.667 12.667 86 38z" />
    <glyph glyph-name="Racute" unicode="&#x154;" horiz-adv-x="613" 
d="M61 594c0 8.66699 -1.16602 14.998 -3.49902 18.998s-6.16602 8.66699 -11.499 14c-7.33301 6 -11 13.333 -11 22c0 4.66699 0.333008 8.33398 1 11.001c3.33301 16.667 11.166 30.5 23.499 41.5s26.833 16.5 43.5 16.5c18.667 0 35 -6 49 -18h136
c94.667 0 166.667 -18.667 216 -56s74 -92.666 74 -165.999c0 -60 -16.333 -107.833 -49 -143.5s-80.334 -58.167 -143.001 -67.5l176 -267h-152l-169 256h-46v-256h-134v594zM291.001 370.998c50.667 0 88.5 8 113.5 24s37.5 43.667 37.5 83s-12.5 66.833 -37.5 82.5
s-62.833 23.5 -113.5 23.5h-96v-213h96zM307.001 957.998h149l-124 -189h-109z" />
    <glyph glyph-name="racute" unicode="&#x155;" horiz-adv-x="416" 
d="M57 349c0 20 -1.50195 37.334 -4.50195 52.001s-8.83301 31 -17.5 49l117 45c6 -10.667 11.5 -23.334 16.5 -38.001s7.83301 -27.334 8.5 -38.001c18 25.333 36.833 44.333 56.5 57s42.167 19 67.5 19c20 0 37.5 -2.66699 52.5 -8s30.833 -14.333 47.5 -27l-49 -91
c-11.333 6.66699 -21.666 11.5 -30.999 14.5s-19.666 4.5 -30.999 4.5c-34.667 0 -60.167 -10.667 -76.5 -32s-24.5 -53.666 -24.5 -96.999v-259h-132v349zM213.998 743.001h149l-124 -189h-109z" />
    <glyph glyph-name="uni0156" unicode="&#x156;" horiz-adv-x="613" 
d="M61 594c0 8.66699 -1.16602 14.998 -3.49902 18.998s-6.16602 8.66699 -11.499 14c-7.33301 6 -11 13.333 -11 22c0 4.66699 0.333008 8.33398 1 11.001c3.33301 16.667 11.166 30.5 23.499 41.5s26.833 16.5 43.5 16.5c18.667 0 35 -6 49 -18h136
c94.667 0 166.667 -18.667 216 -56s74 -92.666 74 -165.999c0 -60 -16.333 -107.833 -49 -143.5s-80.334 -58.167 -143.001 -67.5l176 -267h-152l-169 256h-46v-256h-134v594zM291.001 370.998c50.667 0 88.5 8 113.5 24s37.5 43.667 37.5 83s-12.5 66.833 -37.5 82.5
s-62.833 23.5 -113.5 23.5h-96v-213h96zM228.001 -229.002c27.333 12 48.002 28.668 62.002 50.001c-19.333 -2 -35.5 3.5 -48.5 16.5s-19.5 28.5 -19.5 46.5c0 22 7.16699 39.667 21.5 53s33.166 20 56.499 20c26 0 46 -7.83301 60 -23.5s21 -36.834 21 -63.501
c0 -30.667 -11.333 -59.167 -34 -85.5s-51.334 -46.833 -86.001 -61.5z" />
    <glyph glyph-name="uni0157" unicode="&#x157;" horiz-adv-x="416" 
d="M57 349c0 20 -1.50195 37.334 -4.50195 52.001s-8.83301 31 -17.5 49l117 45c6 -10.667 11.5 -23.334 16.5 -38.001s7.83301 -27.334 8.5 -38.001c18 25.333 36.833 44.333 56.5 57s42.167 19 67.5 19c20 0 37.5 -2.66699 52.5 -8s30.833 -14.333 47.5 -27l-49 -91
c-11.333 6.66699 -21.666 11.5 -30.999 14.5s-19.666 4.5 -30.999 4.5c-34.667 0 -60.167 -10.667 -76.5 -32s-24.5 -53.666 -24.5 -96.999v-259h-132v349zM51.998 -228.999c27.333 12 48.002 28.668 62.002 50.001c-19.333 -2 -35.5 3.5 -48.5 16.5s-19.5 28.5 -19.5 46.5
c0 22 7.16699 39.667 21.5 53s33.166 20 56.499 20c26 0 46 -7.83301 60 -23.5s21 -36.834 21 -63.501c0 -30.667 -11.333 -59.167 -34 -85.5s-51.334 -46.833 -86.001 -61.5z" />
    <glyph glyph-name="Rcaron" unicode="&#x158;" horiz-adv-x="613" 
d="M61 594c0 8.66699 -1.16602 14.998 -3.49902 18.998s-6.16602 8.66699 -11.499 14c-7.33301 6 -11 13.333 -11 22c0 4.66699 0.333008 8.33398 1 11.001c3.33301 16.667 11.166 30.5 23.499 41.5s26.833 16.5 43.5 16.5c18.667 0 35 -6 49 -18h136
c94.667 0 166.667 -18.667 216 -56s74 -92.666 74 -165.999c0 -60 -16.333 -107.833 -49 -143.5s-80.334 -58.167 -143.001 -67.5l176 -267h-152l-169 256h-46v-256h-134v594zM291.001 370.998c50.667 0 88.5 8 113.5 24s37.5 43.667 37.5 83s-12.5 66.833 -37.5 82.5
s-62.833 23.5 -113.5 23.5h-96v-213h96zM229.501 780.998c-10.333 8 -15.501 17.333 -15.501 28c0 2 0.666992 5 2 9l2 6l-131 138h136l60 -81l55 81h133l-133 -159c-10.667 -12.667 -20.5 -21.5 -29.5 -26.5s-20.5 -7.5 -34.5 -7.5c-19.333 0 -34.166 4 -44.499 12z" />
    <glyph glyph-name="rcaron" unicode="&#x159;" horiz-adv-x="416" 
d="M57 349c0 20 -1.50195 37.334 -4.50195 52.001s-8.83301 31 -17.5 49l117 45c6 -10.667 11.5 -23.334 16.5 -38.001s7.83301 -27.334 8.5 -38.001c18 25.333 36.833 44.333 56.5 57s42.167 19 67.5 19c20 0 37.5 -2.66699 52.5 -8s30.833 -14.333 47.5 -27l-49 -91
c-11.333 6.66699 -21.666 11.5 -30.999 14.5s-19.666 4.5 -30.999 4.5c-34.667 0 -60.167 -10.667 -76.5 -32s-24.5 -53.666 -24.5 -96.999v-259h-132v349zM136.498 566.001c-10.333 8 -15.501 17.333 -15.501 28c0 2 0.666992 5 2 9l2 6l-131 138h136l60 -81l55 81h133
l-133 -159c-10.667 -12.667 -20.5 -21.5 -29.5 -26.5s-20.5 -7.5 -34.5 -7.5c-19.333 0 -34.166 4 -44.499 12z" />
    <glyph glyph-name="Sacute" unicode="&#x15a;" horiz-adv-x="605" 
d="M158.5 21.5c-49 21 -90.166 50.4971 -123.499 88.4971l79 80c29.333 -32.667 60.5 -56 93.5 -70s70.833 -21 113.5 -21c36.667 0 64.667 6.66699 84 20s29 32 29 56c0 17.333 -3.83301 31.833 -11.5 43.5s-22.5 23.5 -44.5 35.5s-55.333 26 -100 42
c-79.333 28.667 -136.5 60.834 -171.5 96.501s-52.5 79.167 -52.5 130.5c0 59.333 23 105.333 69 138s106.333 49 181 49c46.667 0 91.667 -7.83301 135 -23.5s81 -37.5 113 -65.5l-69 -88c-30.667 25.333 -58.834 43 -84.501 53s-57.167 15 -94.5 15
c-36 0 -64 -6.5 -84 -19.5s-30 -32.167 -30 -57.5c0 -17.333 4.33301 -32 13 -44s24.167 -24 46.5 -36s54.833 -26.333 97.5 -43c57.333 -22 101.833 -43.167 133.5 -63.5s54.5 -43.166 68.5 -68.499s21 -56.666 21 -93.999c0 -59.333 -22.5 -105 -67.5 -137
s-106.5 -48 -184.5 -48c-57.333 0 -110.5 10.5 -159.5 31.5zM332.001 957.997h149l-124 -189h-109z" />
    <glyph glyph-name="sacute" unicode="&#x15b;" horiz-adv-x="508" 
d="M144.5 15.5c-41.667 17 -78.1699 41.5049 -109.503 73.5049l74 79c22.667 -24 48.334 -42.333 77.001 -55s59.334 -19 92.001 -19c20.667 0 36.334 3.16699 47.001 9.5s16 15.166 16 26.499c0 8.66699 -2.16699 16 -6.5 22s-13.833 12.333 -28.5 19s-37 14.667 -67 24
c-66 20.667 -112.667 43.167 -140 67.5s-41 56.166 -41 95.499c0 43.333 17.333 77 52 101s83.334 36 146.001 36c70.667 0 134.334 -20 191.001 -60l-45 -86c-28 15.333 -53.333 26.166 -76 32.499s-46.334 9.5 -71.001 9.5c-22 0 -38.333 -2.83301 -49 -8.5
s-16 -13.834 -16 -24.501c0 -8.66699 2.83301 -15.834 8.5 -21.501s15.5 -11.5 29.5 -17.5s35.333 -13.333 64 -22c45.333 -14 80.833 -28.333 106.5 -43s44.5 -32 56.5 -52s18 -45 18 -75c0 -41.333 -17.333 -74.5 -52 -99.5s-82.334 -37.5 -143.001 -37.5
c-47.333 0 -91.833 8.5 -133.5 25.5zM284.997 743.005h149l-124 -189h-109z" />
    <glyph glyph-name="Scircumflex" unicode="&#x15c;" horiz-adv-x="605" 
d="M158.5 21.5c-49 21 -90.166 50.4971 -123.499 88.4971l79 80c29.333 -32.667 60.5 -56 93.5 -70s70.833 -21 113.5 -21c36.667 0 64.667 6.66699 84 20s29 32 29 56c0 17.333 -3.83301 31.833 -11.5 43.5s-22.5 23.5 -44.5 35.5s-55.333 26 -100 42
c-79.333 28.667 -136.5 60.834 -171.5 96.501s-52.5 79.167 -52.5 130.5c0 59.333 23 105.333 69 138s106.333 49 181 49c46.667 0 91.667 -7.83301 135 -23.5s81 -37.5 113 -65.5l-69 -88c-30.667 25.333 -58.834 43 -84.501 53s-57.167 15 -94.5 15
c-36 0 -64 -6.5 -84 -19.5s-30 -32.167 -30 -57.5c0 -17.333 4.33301 -32 13 -44s24.167 -24 46.5 -36s54.833 -26.333 97.5 -43c57.333 -22 101.833 -43.167 133.5 -63.5s54.5 -43.166 68.5 -68.499s21 -56.666 21 -93.999c0 -59.333 -22.5 -105 -67.5 -137
s-106.5 -48 -184.5 -48c-57.333 0 -110.5 10.5 -159.5 31.5zM248.001 927.997c10.667 12.667 20.501 21.5 29.501 26.5s20.5 7.5 34.5 7.5c19.333 0 34.166 -4 44.499 -12s15.5 -17.333 15.5 -28c0 -2 -0.666992 -5 -2 -9l-2 -6l131 -138h-136l-60 81l-55 -81h-133z" />
    <glyph glyph-name="scircumflex" unicode="&#x15d;" horiz-adv-x="508" 
d="M144.5 15.5c-41.667 17 -78.1699 41.5049 -109.503 73.5049l74 79c22.667 -24 48.334 -42.333 77.001 -55s59.334 -19 92.001 -19c20.667 0 36.334 3.16699 47.001 9.5s16 15.166 16 26.499c0 8.66699 -2.16699 16 -6.5 22s-13.833 12.333 -28.5 19s-37 14.667 -67 24
c-66 20.667 -112.667 43.167 -140 67.5s-41 56.166 -41 95.499c0 43.333 17.333 77 52 101s83.334 36 146.001 36c70.667 0 134.334 -20 191.001 -60l-45 -86c-28 15.333 -53.333 26.166 -76 32.499s-46.334 9.5 -71.001 9.5c-22 0 -38.333 -2.83301 -49 -8.5
s-16 -13.834 -16 -24.501c0 -8.66699 2.83301 -15.834 8.5 -21.501s15.5 -11.5 29.5 -17.5s35.333 -13.333 64 -22c45.333 -14 80.833 -28.333 106.5 -43s44.5 -32 56.5 -52s18 -45 18 -75c0 -41.333 -17.333 -74.5 -52 -99.5s-82.334 -37.5 -143.001 -37.5
c-47.333 0 -91.833 8.5 -133.5 25.5zM200.997 713.005c10.667 12.667 20.501 21.5 29.501 26.5s20.5 7.5 34.5 7.5c19.333 0 34.166 -4 44.499 -12s15.5 -17.333 15.5 -28c0 -2 -0.666992 -5 -2 -9l-2 -6l131 -138h-136l-60 81l-55 -81h-133z" />
    <glyph glyph-name="Scedilla" unicode="&#x15e;" horiz-adv-x="605" 
d="M511 44.5c-39.333 -31.667 -93.3311 -49.5039 -161.998 -53.5039l-20 -32c51.333 -10.667 77 -40 77 -88c0 -28 -11.167 -51.333 -33.5 -70s-52.166 -28 -89.499 -28c-44 0 -84.667 14.333 -122 43l34 62c24.667 -17.333 48 -26 70 -26c23.333 0 35 9.66699 35 29
s-11.667 29 -35 29c-6.66699 0 -14.334 -1 -23.001 -3l-24 26l38 61c-44.667 6.66699 -85.834 19.834 -123.501 39.501s-70.167 45.167 -97.5 76.5l79 80c29.333 -32.667 60.5 -56 93.5 -70s70.833 -21 113.5 -21c36.667 0 64.667 6.66699 84 20s29 32 29 56
c0 17.333 -3.83301 31.833 -11.5 43.5s-22.5 23.5 -44.5 35.5s-55.333 26 -100 42c-79.333 28.667 -136.5 60.834 -171.5 96.501s-52.5 79.167 -52.5 130.5c0 59.333 23 105.333 69 138s106.333 49 181 49c46.667 0 91.667 -7.83301 135 -23.5s81 -37.5 113 -65.5l-69 -88
c-30.667 25.333 -58.834 43 -84.501 53s-57.167 15 -94.5 15c-36 0 -64 -6.5 -84 -19.5s-30 -32.167 -30 -57.5c0 -17.333 4.33301 -32 13 -44s24.167 -24 46.5 -36s54.833 -26.333 97.5 -43c57.333 -22 101.833 -43.167 133.5 -63.5s54.5 -43.166 68.5 -68.499
s21 -56.666 21 -93.999c0 -55.333 -19.667 -98.833 -59 -130.5z" />
    <glyph glyph-name="scedilla" unicode="&#x15f;" horiz-adv-x="508" 
d="M428 32.5c-30 -24.333 -72.0039 -38.1621 -126.004 -41.4951l-20 -32c51.333 -10.667 77 -40 77 -88c0 -28 -11.167 -51.333 -33.5 -70s-52.166 -28 -89.499 -28c-44 0 -84.667 14.333 -122 43l34 62c24.667 -17.333 48 -26 70 -26c23.333 0 35 9.66699 35 29
s-11.667 29 -35 29c-6.66699 0 -14.334 -1 -23.001 -3l-24 26l39 63c-68.667 13.333 -127 44.333 -175 93l74 79c22.667 -24 48.334 -42.333 77.001 -55s59.334 -19 92.001 -19c20.667 0 36.334 3.16699 47.001 9.5s16 15.166 16 26.499c0 8.66699 -2.16699 16 -6.5 22
s-13.833 12.333 -28.5 19s-37 14.667 -67 24c-66 20.667 -112.667 43.167 -140 67.5s-41 56.166 -41 95.499c0 43.333 17.333 77 52 101s83.334 36 146.001 36c70.667 0 134.334 -20 191.001 -60l-45 -86c-28 15.333 -53.333 26.166 -76 32.499s-46.334 9.5 -71.001 9.5
c-22 0 -38.333 -2.83301 -49 -8.5s-16 -13.834 -16 -24.501c0 -8.66699 2.83301 -15.834 8.5 -21.501s15.5 -11.5 29.5 -17.5s35.333 -13.333 64 -22c45.333 -14 80.833 -28.333 106.5 -43s44.5 -32 56.5 -52s18 -45 18 -75c0 -38.667 -15 -70.167 -45 -94.5z" />
    <glyph glyph-name="Scaron" unicode="&#x160;" horiz-adv-x="605" 
d="M158.5 21.5c-49 21 -90.166 50.4971 -123.499 88.4971l79 80c29.333 -32.667 60.5 -56 93.5 -70s70.833 -21 113.5 -21c36.667 0 64.667 6.66699 84 20s29 32 29 56c0 17.333 -3.83301 31.833 -11.5 43.5s-22.5 23.5 -44.5 35.5s-55.333 26 -100 42
c-79.333 28.667 -136.5 60.834 -171.5 96.501s-52.5 79.167 -52.5 130.5c0 59.333 23 105.333 69 138s106.333 49 181 49c46.667 0 91.667 -7.83301 135 -23.5s81 -37.5 113 -65.5l-69 -88c-30.667 25.333 -58.834 43 -84.501 53s-57.167 15 -94.5 15
c-36 0 -64 -6.5 -84 -19.5s-30 -32.167 -30 -57.5c0 -17.333 4.33301 -32 13 -44s24.167 -24 46.5 -36s54.833 -26.333 97.5 -43c57.333 -22 101.833 -43.167 133.5 -63.5s54.5 -43.166 68.5 -68.499s21 -56.666 21 -93.999c0 -59.333 -22.5 -105 -67.5 -137
s-106.5 -48 -184.5 -48c-57.333 0 -110.5 10.5 -159.5 31.5zM254.501 780.997c-10.333 8 -15.501 17.333 -15.501 28c0 2 0.666992 5 2 9l2 6l-131 138h136l60 -81l55 81h133l-133 -159c-10.667 -12.667 -20.5 -21.5 -29.5 -26.5s-20.5 -7.5 -34.5 -7.5
c-19.333 0 -34.166 4 -44.499 12z" />
    <glyph glyph-name="scaron" unicode="&#x161;" horiz-adv-x="508" 
d="M144.5 15.5c-41.667 17 -78.1699 41.5049 -109.503 73.5049l74 79c22.667 -24 48.334 -42.333 77.001 -55s59.334 -19 92.001 -19c20.667 0 36.334 3.16699 47.001 9.5s16 15.166 16 26.499c0 8.66699 -2.16699 16 -6.5 22s-13.833 12.333 -28.5 19s-37 14.667 -67 24
c-66 20.667 -112.667 43.167 -140 67.5s-41 56.166 -41 95.499c0 43.333 17.333 77 52 101s83.334 36 146.001 36c70.667 0 134.334 -20 191.001 -60l-45 -86c-28 15.333 -53.333 26.166 -76 32.499s-46.334 9.5 -71.001 9.5c-22 0 -38.333 -2.83301 -49 -8.5
s-16 -13.834 -16 -24.501c0 -8.66699 2.83301 -15.834 8.5 -21.501s15.5 -11.5 29.5 -17.5s35.333 -13.333 64 -22c45.333 -14 80.833 -28.333 106.5 -43s44.5 -32 56.5 -52s18 -45 18 -75c0 -41.333 -17.333 -74.5 -52 -99.5s-82.334 -37.5 -143.001 -37.5
c-47.333 0 -91.833 8.5 -133.5 25.5zM207.497 566.005c-10.333 8 -15.501 17.333 -15.501 28c0 2 0.666992 5 2 9l2 6l-131 138h136l60 -81l55 81h133l-133 -159c-10.667 -12.667 -20.5 -21.5 -29.5 -26.5s-20.5 -7.5 -34.5 -7.5c-19.333 0 -34.166 4 -44.499 12z" />
    <glyph glyph-name="uni0162" unicode="&#x162;" horiz-adv-x="604" 
d="M352 0l-26.001 -41c51.333 -10.667 77 -40 77 -88c0 -28 -11.167 -51.333 -33.5 -70s-52.166 -28 -89.499 -28c-44 0 -84.667 14.333 -122 43l34 62c24.667 -17.333 48 -26 70 -26c23.333 0 35 9.66699 35 29s-11.667 29 -35 29c-6 0 -13.667 -1 -23 -3l-24 26l41 67h-21
v584h-200v116h534v-116h-200v-584h-17z" />
    <glyph glyph-name="uni0163" unicode="&#x163;" horiz-adv-x="399" 
d="M294 -7l-22.001 -33.998c51.333 -10.667 77 -40 77 -88c0 -28 -11.167 -51.333 -33.5 -70s-52.166 -28 -89.499 -28c-44 0 -84.667 14.333 -122 43l34 62c24.667 -17.333 48 -26 70 -26c23.333 0 35 9.66699 35 29s-11.667 29 -35 29c-6 0 -13.667 -1 -23 -3l-24 26
l41 66c-28.667 9.33301 -50.5 26.166 -65.5 50.499s-22.5 55.166 -22.5 92.499v237h-89l28 106h63v101l128 59v-160h130l-26 -106h-102v-240c0 -15.333 3.33301 -26.333 10 -33s17 -10 31 -10c16.667 0 31.667 3.33301 45 10l31 -95c-16 -7.33301 -39 -13.333 -69 -18z" />
    <glyph glyph-name="Tcaron" unicode="&#x164;" horiz-adv-x="604" 
d="M235 584h-200v116h534v-116h-200v-584h-134v584zM251.5 781c-10.333 8 -15.501 17.333 -15.501 28c0 2 0.666992 5 2 9l2 6l-131 138h136l60 -81l55 81h133l-133 -159c-10.667 -12.667 -20.5 -21.5 -29.5 -26.5s-20.5 -7.5 -34.5 -7.5c-19.333 0 -34.166 4 -44.499 12z
" />
    <glyph glyph-name="tcaron" unicode="&#x165;" horiz-adv-x="460" 
d="M151.5 30c-25 26 -37.5 63.333 -37.5 112v237h-89l28 106h63v101l128 59v-160h130l-26 -106h-102v-240c0 -15.333 3.33301 -26.333 10 -33s17 -10 31 -10c16.667 0 31.667 3.33301 45 10l31 -95c-11.333 -5.33301 -26.833 -10 -46.5 -14s-38.5 -6 -56.5 -6
c-47.333 0 -83.5 13 -108.5 39zM349 583c32.667 15.333 53.668 31.6699 63.001 49.0029c-14.667 3.33301 -27.334 11.166 -38.001 23.499s-16 25.833 -16 40.5c0 23.333 7.66699 42.166 23 56.499s35.333 21.5 60 21.5c26 0 46.667 -7.83301 62 -23.5s23 -36.834 23 -63.501
c0 -32.667 -13.667 -64 -41 -94s-60.333 -53.667 -99 -71z" />
    <glyph glyph-name="Tbar" unicode="&#x166;" horiz-adv-x="604" 
d="M369 584v-161h90v-116h-90v-307h-134v307h-90v116h90v161h-200v116h534v-116h-200z" />
    <glyph glyph-name="tbar" unicode="&#x167;" horiz-adv-x="399" 
d="M332 106l31 -95c-11.333 -5.33301 -26.833 -10 -46.5 -14s-38.5 -6 -56.5 -6c-47.333 0 -83.5 13 -108.5 39s-37.5 63.333 -37.5 112v64h-84v92h84v81h-89l28 106h63v101l128 59v-160h130l-26 -106h-102v-81h102v-92h-102v-67c0 -15.333 3.33301 -26.333 10 -33
s17 -10 31 -10c16.667 0 31.667 3.33301 45 10z" />
    <glyph glyph-name="Utilde" unicode="&#x168;" horiz-adv-x="644" 
d="M114.5 62c-49.667 48 -74.498 114.667 -74.498 200v438h134v-444c0 -49.333 13 -87.833 39 -115.5s62.333 -41.5 109 -41.5s83 13.833 109 41.5s39 66.167 39 115.5v444h134v-438c0 -85.333 -24.833 -152 -74.5 -200s-118.834 -72 -207.501 -72s-157.834 24 -207.501 72z
M142.002 812c6 29.333 19.165 53.5 39.498 72.5s42.833 28.5 67.5 28.5c17.333 0 32.833 -2.66699 46.5 -8s28.5 -13 44.5 -23c7.33301 -4.66699 14.833 -8.66699 22.5 -12s14.5 -5 20.5 -5c12.667 0 22.334 3.5 29.001 10.5s11.334 18.833 14.001 35.5l67 -32
c0 -32.667 -8.33301 -58.5 -25 -77.5s-39 -28.5 -67 -28.5c-15.333 0 -29.833 2.5 -43.5 7.5s-28.5 11.833 -44.5 20.5c-11.333 6 -20.666 10.5 -27.999 13.5s-14.333 4.5 -21 4.5c-11.333 0 -21.333 -3.66699 -30 -11s-14.334 -19 -17.001 -35z" />
    <glyph glyph-name="utilde" unicode="&#x169;" horiz-adv-x="556" 
d="M132 15.5c-28.667 17 -51.168 41.3311 -67.501 72.998s-24.5 68.167 -24.5 109.5v287h132v-287c0 -67.333 31.667 -101 95 -101c33.333 0 58.333 11.167 75 33.5s25 51.833 25 88.5v266h132v-349c0 -20 1.5 -37.333 4.5 -52s8.83301 -31 17.5 -49l-117 -45
c-6 10.667 -11.5 23.334 -16.5 38.001s-7.83301 27.334 -8.5 38.001c-33.333 -50.667 -82.666 -76 -147.999 -76c-37.333 0 -70.333 8.5 -99 25.5zM101.999 596.998c6 29.333 19.165 53.5 39.498 72.5s42.833 28.5 67.5 28.5c17.333 0 32.833 -2.66699 46.5 -8
s28.5 -13 44.5 -23c7.33301 -4.66699 14.833 -8.66699 22.5 -12s14.5 -5 20.5 -5c12.667 0 22.334 3.5 29.001 10.5s11.334 18.833 14.001 35.5l67 -32c0 -32.667 -8.33301 -58.5 -25 -77.5s-39 -28.5 -67 -28.5c-15.333 0 -29.833 2.5 -43.5 7.5s-28.5 11.833 -44.5 20.5
c-11.333 6 -20.666 10.5 -27.999 13.5s-14.333 4.5 -21 4.5c-11.333 0 -21.333 -3.66699 -30 -11s-14.334 -19 -17.001 -35z" />
    <glyph glyph-name="Umacron" unicode="&#x16a;" horiz-adv-x="644" 
d="M114.5 62c-49.667 48 -74.498 114.667 -74.498 200v438h134v-444c0 -49.333 13 -87.833 39 -115.5s62.333 -41.5 109 -41.5s83 13.833 109 41.5s39 66.167 39 115.5v444h134v-438c0 -85.333 -24.833 -152 -74.5 -200s-118.834 -72 -207.501 -72s-157.834 24 -207.501 72z
M146.002 870h352v-101h-352v101z" />
    <glyph glyph-name="umacron" unicode="&#x16b;" horiz-adv-x="556" 
d="M132 15.5c-28.667 17 -51.168 41.3311 -67.501 72.998s-24.5 68.167 -24.5 109.5v287h132v-287c0 -67.333 31.667 -101 95 -101c33.333 0 58.333 11.167 75 33.5s25 51.833 25 88.5v266h132v-349c0 -20 1.5 -37.333 4.5 -52s8.83301 -31 17.5 -49l-117 -45
c-6 10.667 -11.5 23.334 -16.5 38.001s-7.83301 27.334 -8.5 38.001c-33.333 -50.667 -82.666 -76 -147.999 -76c-37.333 0 -70.333 8.5 -99 25.5zM105.999 654.998h352v-101h-352v101z" />
    <glyph glyph-name="Ubreve" unicode="&#x16c;" horiz-adv-x="644" 
d="M114.5 62c-49.667 48 -74.498 114.667 -74.498 200v438h134v-444c0 -49.333 13 -87.833 39 -115.5s62.333 -41.5 109 -41.5s83 13.833 109 41.5s39 66.167 39 115.5v444h134v-438c0 -85.333 -24.833 -152 -74.5 -200s-118.834 -72 -207.501 -72s-157.834 24 -207.501 72z
M204.502 805c-31 26.667 -46.502 65.667 -46.502 117v11h113v-12c0 -21.333 4.33301 -37.5 13 -48.5s21.334 -16.5 38.001 -16.5s29.334 5.5 38.001 16.5s13 27.167 13 48.5v12h113v-11c0 -51.333 -15.5 -90.333 -46.5 -117s-70.167 -40 -117.5 -40s-86.5 13.333 -117.5 40z
" />
    <glyph glyph-name="ubreve" unicode="&#x16d;" horiz-adv-x="556" 
d="M132 15.5c-28.667 17 -51.168 41.3311 -67.501 72.998s-24.5 68.167 -24.5 109.5v287h132v-287c0 -67.333 31.667 -101 95 -101c33.333 0 58.333 11.167 75 33.5s25 51.833 25 88.5v266h132v-349c0 -20 1.5 -37.333 4.5 -52s8.83301 -31 17.5 -49l-117 -45
c-6 10.667 -11.5 23.334 -16.5 38.001s-7.83301 27.334 -8.5 38.001c-33.333 -50.667 -82.666 -76 -147.999 -76c-37.333 0 -70.333 8.5 -99 25.5zM164.499 589.998c-31 26.667 -46.502 65.667 -46.502 117v11h113v-12c0 -21.333 4.33301 -37.5 13 -48.5
s21.334 -16.5 38.001 -16.5s29.334 5.5 38.001 16.5s13 27.167 13 48.5v12h113v-11c0 -51.333 -15.5 -90.333 -46.5 -117s-70.167 -40 -117.5 -40s-86.5 13.333 -117.5 40z" />
    <glyph glyph-name="Uring" unicode="&#x16e;" horiz-adv-x="644" 
d="M114.5 62c-49.667 48 -74.498 114.667 -74.498 200v438h134v-444c0 -49.333 13 -87.833 39 -115.5s62.333 -41.5 109 -41.5s83 13.833 109 41.5s39 66.167 39 115.5v444h134v-438c0 -85.333 -24.833 -152 -74.5 -200s-118.834 -72 -207.501 -72s-157.834 24 -207.501 72z
M235.002 772.5c-24.667 19 -37 45.833 -37 80.5s12.333 61.667 37 81s53.667 29 87 29s62.333 -9.66699 87 -29s37 -46.333 37 -81s-12.333 -61.5 -37 -80.5s-53.667 -28.5 -87 -28.5s-62.333 9.5 -87 28.5zM351.002 825c8 6.66699 12 16 12 28
c0 12.667 -3.83301 22.5 -11.5 29.5s-17.5 10.5 -29.5 10.5s-21.833 -3.5 -29.5 -10.5s-11.5 -16.833 -11.5 -29.5c0 -12 4 -21.333 12 -28s17.667 -10 29 -10s21 3.33301 29 10z" />
    <glyph glyph-name="uring" unicode="&#x16f;" horiz-adv-x="556" 
d="M132 15.5c-28.667 17 -51.168 41.3311 -67.501 72.998s-24.5 68.167 -24.5 109.5v287h132v-287c0 -67.333 31.667 -101 95 -101c33.333 0 58.333 11.167 75 33.5s25 51.833 25 88.5v266h132v-349c0 -20 1.5 -37.333 4.5 -52s8.83301 -31 17.5 -49l-117 -45
c-6 10.667 -11.5 23.334 -16.5 38.001s-7.83301 27.334 -8.5 38.001c-33.333 -50.667 -82.666 -76 -147.999 -76c-37.333 0 -70.333 8.5 -99 25.5zM194.999 557.498c-24.667 19 -37 45.833 -37 80.5s12.333 61.667 37 81s53.667 29 87 29s62.333 -9.66699 87 -29
s37 -46.333 37 -81s-12.333 -61.5 -37 -80.5s-53.667 -28.5 -87 -28.5s-62.333 9.5 -87 28.5zM310.999 609.998c8 6.66699 12 16 12 28c0 12.667 -3.83301 22.5 -11.5 29.5s-17.5 10.5 -29.5 10.5s-21.833 -3.5 -29.5 -10.5s-11.5 -16.833 -11.5 -29.5
c0 -12 4 -21.333 12 -28s17.667 -10 29 -10s21 3.33301 29 10z" />
    <glyph glyph-name="Uhungarumlaut" unicode="&#x170;" horiz-adv-x="644" 
d="M114.5 62c-49.667 48 -74.498 114.667 -74.498 200v438h134v-444c0 -49.333 13 -87.833 39 -115.5s62.333 -41.5 109 -41.5s83 13.833 109 41.5s39 66.167 39 115.5v444h134v-438c0 -85.333 -24.833 -152 -74.5 -200s-118.834 -72 -207.501 -72s-157.834 24 -207.501 72z
M267.002 958h129l-129 -189h-99zM452.002 958h132l-154 -189h-99z" />
    <glyph glyph-name="uhungarumlaut" unicode="&#x171;" horiz-adv-x="556" 
d="M132 15.5c-28.667 17 -51.168 41.3311 -67.501 72.998s-24.5 68.167 -24.5 109.5v287h132v-287c0 -67.333 31.667 -101 95 -101c33.333 0 58.333 11.167 75 33.5s25 51.833 25 88.5v266h132v-349c0 -20 1.5 -37.333 4.5 -52s8.83301 -31 17.5 -49l-117 -45
c-6 10.667 -11.5 23.334 -16.5 38.001s-7.83301 27.334 -8.5 38.001c-33.333 -50.667 -82.666 -76 -147.999 -76c-37.333 0 -70.333 8.5 -99 25.5zM226.999 742.998h129l-129 -189h-99zM411.999 742.998h132l-154 -189h-99z" />
    <glyph glyph-name="Uogonek" unicode="&#x172;" horiz-adv-x="644" 
d="M604 700l0.00292969 -438.001c0 -74.667 -18.833 -135 -56.5 -181s-91.167 -74.667 -160.5 -86c-48.667 -32 -73 -63 -73 -93c0 -21.333 12 -32 36 -32c16.667 0 32 4.66699 46 14l27 -77c-14.667 -11.333 -29.834 -19.5 -45.501 -24.5s-33.834 -7.5 -54.501 -7.5
c-35.333 0 -64 9.66699 -86 29s-33 45.666 -33 78.999c0 22.667 6.16699 43.334 18.5 62.001s29.166 34.667 50.499 48c-74 8.66699 -131.333 36.334 -172 83.001s-61 108.667 -61 186v438h134v-444c0 -49.333 13 -87.833 39 -115.5s62.333 -41.5 109 -41.5
s83 13.833 109 41.5s39 66.167 39 115.5v444h134z" />
    <glyph glyph-name="uogonek" unicode="&#x173;" horiz-adv-x="556" 
d="M539 -164c-14.667 -11.333 -29.833 -19.501 -45.5 -24.501s-33.834 -7.5 -54.501 -7.5c-35.333 0 -64 9.66699 -86 29s-33 45.666 -33 78.999c0 22.667 6.16699 43.334 18.5 62.001s29.166 34.667 50.499 48c-5.33301 16.667 -8.66602 31.334 -9.99902 44.001
c-33.333 -50.667 -82.666 -76 -147.999 -76c-37.333 0 -70.333 8.5 -99 25.5s-51.167 41.333 -67.5 73s-24.5 68.167 -24.5 109.5v287h132v-287c0 -67.333 31.667 -101 95 -101c33.333 0 58.333 11.167 75 33.5s25 51.833 25 88.5v266h132v-349c0 -20 1.5 -37.333 4.5 -52
s8.83301 -31 17.5 -49c-60.667 -36 -91 -70.667 -91 -104c0 -21.333 12 -32 36 -32c16.667 0 32 4.66699 46 14z" />
    <glyph glyph-name="Wcircumflex" unicode="&#x174;" horiz-adv-x="843" 
d="M153 16.5c-7.33301 9 -11.0029 18.8311 -11.0029 29.498c0 4 1.33301 10.667 4 20l3 8l-114 626h135l70 -457l121 428c3.33301 12.667 10.333 22.334 21 29.001s23.667 10 39 10c24.667 0 43.834 -4.33301 57.501 -13s20.5 -20 20.5 -34
c0 -3.33301 -0.666992 -7.66602 -2 -12.999l-3 -10l110 -395l69 455h135l-116 -626l3 -8c2.66699 -9.33301 4 -16 4 -20c0 -10.667 -3.66699 -20.5 -11 -29.5s-18.666 -15.5 -33.999 -19.5c-14 -4 -26.667 -6 -38 -6c-16.667 0 -30.5 5 -41.5 15s-19.5 25.667 -25.5 47
l-127 454l-130 -454c-6 -21.333 -14.5 -37 -25.5 -47s-24.833 -15 -41.5 -15c-11.333 0 -24 2 -38 6c-15.333 4 -26.666 10.5 -33.999 19.5zM369.997 927.998c10.667 12.667 20.501 21.5 29.501 26.5s20.5 7.5 34.5 7.5c19.333 0 34.166 -4 44.499 -12
s15.5 -17.333 15.5 -28c0 -2 -0.666992 -5 -2 -9l-2 -6l131 -138h-136l-60 81l-55 -81h-133z" />
    <glyph glyph-name="wcircumflex" unicode="&#x175;" horiz-adv-x="722" 
d="M169.5 3c-10.333 8.66699 -15.499 21 -15.499 37c0 6 0.333008 10.667 1 14l1 6l-121 425h136l62 -287l77 266c3.33301 10.667 9.66602 18.5 18.999 23.5s23 7.5 41 7.5c23.333 0 39.833 -3.66699 49.5 -11s14.5 -18.333 14.5 -33c0 -6.66699 -0.333008 -11.667 -1 -15
l-4 -22l61 -216l61 287h136l-121 -425l1 -6c0.666992 -3.33301 1 -8 1 -14c0 -16 -5.16699 -28.333 -15.5 -37s-25.833 -13 -46.5 -13c-21.333 0 -37.333 3.66699 -48 11s-18 18.333 -22 33l-75 264l-75 -264c-4 -14.667 -11.333 -25.667 -22 -33s-26.667 -11 -48 -11
c-20.667 0 -36.167 4.33301 -46.5 13zM302.001 713c10.667 12.667 20.501 21.5 29.501 26.5s20.5 7.5 34.5 7.5c19.333 0 34.166 -4 44.499 -12s15.5 -17.333 15.5 -28c0 -2 -0.666992 -5 -2 -9l-2 -6l131 -138h-136l-60 81l-55 -81h-133z" />
    <glyph glyph-name="Ycircumflex" unicode="&#x176;" horiz-adv-x="664" 
d="M267 268l-232 432h145l152 -310l152 310h145l-232 -432v-268h-130v268zM275 928c10.667 12.667 20.501 21.5 29.501 26.5s20.5 7.5 34.5 7.5c19.333 0 34.166 -4 44.499 -12s15.5 -17.333 15.5 -28c0 -2 -0.666992 -5 -2 -9l-2 -6l131 -138h-136l-60 81l-55 -81h-133z
" />
    <glyph glyph-name="ycircumflex" unicode="&#x177;" horiz-adv-x="589" 
d="M69 -123c45.333 15.333 81.166 35.5 107.499 60.5s44.833 60.167 55.5 105.5l-197 442h153l112 -298l102 298h152l-197 -487c-25.333 -62 -56.666 -110 -93.999 -144s-89.333 -61.667 -156 -83zM239 713c10.667 12.667 20.501 21.5 29.501 26.5s20.5 7.5 34.5 7.5
c19.333 0 34.166 -4 44.499 -12s15.5 -17.333 15.5 -28c0 -2 -0.666992 -5 -2 -9l-2 -6l131 -138h-136l-60 81l-55 -81h-133z" />
    <glyph glyph-name="Ydieresis" unicode="&#x178;" horiz-adv-x="664" 
d="M267 268l-232 432h145l152 -310l152 310h145l-232 -432v-268h-130v268zM165 800c-14.667 14 -22 31.667 -22 53s7.33301 39 22 53s33.334 21 56.001 21c22 0 40.167 -7.16699 54.5 -21.5s21.5 -31.833 21.5 -52.5s-7.16699 -38.167 -21.5 -52.5s-32.5 -21.5 -54.5 -21.5
c-22.667 0 -41.334 7 -56.001 21zM391 800c-14.667 14 -22 31.667 -22 53s7.33301 39 22 53s33.334 21 56.001 21c22 0 40.167 -7.16699 54.5 -21.5s21.5 -31.833 21.5 -52.5s-7.16699 -38.167 -21.5 -52.5s-32.5 -21.5 -54.5 -21.5c-22.667 0 -41.334 7 -56.001 21z" />
    <glyph glyph-name="Zacute" unicode="&#x179;" horiz-adv-x="632" 
d="M103 -12c-14.667 0 -34 12.999 -58 38.999c-6.66699 7.33301 -10 14.333 -10 21c0 5.33301 1.33301 10.5 4 15.5s7 11.167 13 18.5l352 502h-345v116h428l7 7c7.33301 8.66699 18.333 13 33 13s28 -5 40 -15c19.333 -16.667 29 -32 29 -46
c0 -11.333 -6 -25.666 -18 -42.999l-351 -500h370v-116h-465l-14 -8c-4.66699 -2.66699 -9.66699 -4 -15 -4zM348 957.999h149l-124 -189h-109z" />
    <glyph glyph-name="zacute" unicode="&#x17a;" horiz-adv-x="545" 
d="M102 -10c-10 0 -20.501 3.66504 -31.501 10.998s-20.833 19 -29.5 35c-4 8 -6 15.333 -6 22c0 12.667 6.66699 23.334 20 32.001c5.33301 3.33301 10.333 7.66602 15 12.999l256 276h-266v106h335c14 0 23.667 1.66699 29 5c4.66699 3.33301 11 5 19 5
c8.66699 0 17.5 -2.16699 26.5 -6.5s17.167 -11.166 24.5 -20.499c10.667 -14 16 -26 16 -36c0 -11.333 -5.33301 -22.666 -16 -33.999l-271 -292h284v-106h-356c-13.333 0 -23.666 -2 -30.999 -6c-4.66699 -2.66699 -10.667 -4 -18 -4zM307.999 742.998h149l-124 -189h-109
z" />
    <glyph glyph-name="Zdotaccent" unicode="&#x17b;" horiz-adv-x="632" 
d="M103 -12c-14.667 0 -34 12.999 -58 38.999c-6.66699 7.33301 -10 14.333 -10 21c0 5.33301 1.33301 10.5 4 15.5s7 11.167 13 18.5l352 502h-345v116h428l7 7c7.33301 8.66699 18.333 13 33 13s28 -5 40 -15c19.333 -16.667 29 -32 29 -46
c0 -11.333 -6 -25.666 -18 -42.999l-351 -500h370v-116h-465l-14 -8c-4.66699 -2.66699 -9.66699 -4 -15 -4zM267.5 799.999c-14.333 14 -21.5 31.667 -21.5 53s7.16699 39 21.5 53s32.5 21 54.5 21s39.833 -7.16699 53.5 -21.5s20.5 -31.833 20.5 -52.5
s-6.83301 -38.167 -20.5 -52.5s-31.5 -21.5 -53.5 -21.5s-40.167 7 -54.5 21z" />
    <glyph glyph-name="zdotaccent" unicode="&#x17c;" horiz-adv-x="545" 
d="M102 -10c-10 0 -20.501 3.66504 -31.501 10.998s-20.833 19 -29.5 35c-4 8 -6 15.333 -6 22c0 12.667 6.66699 23.334 20 32.001c5.33301 3.33301 10.333 7.66602 15 12.999l256 276h-266v106h335c14 0 23.667 1.66699 29 5c4.66699 3.33301 11 5 19 5
c8.66699 0 17.5 -2.16699 26.5 -6.5s17.167 -11.166 24.5 -20.499c10.667 -14 16 -26 16 -36c0 -11.333 -5.33301 -22.666 -16 -33.999l-271 -292h284v-106h-356c-13.333 0 -23.666 -2 -30.999 -6c-4.66699 -2.66699 -10.667 -4 -18 -4zM227.499 584.998
c-14.333 14 -21.5 31.667 -21.5 53s7.16699 39 21.5 53s32.5 21 54.5 21s39.833 -7.16699 53.5 -21.5s20.5 -31.833 20.5 -52.5s-6.83301 -38.167 -20.5 -52.5s-31.5 -21.5 -53.5 -21.5s-40.167 7 -54.5 21z" />
    <glyph glyph-name="Zcaron" unicode="&#x17d;" horiz-adv-x="632" 
d="M103 -12c-14.667 0 -34 12.999 -58 38.999c-6.66699 7.33301 -10 14.333 -10 21c0 5.33301 1.33301 10.5 4 15.5s7 11.167 13 18.5l352 502h-345v116h428l7 7c7.33301 8.66699 18.333 13 33 13s28 -5 40 -15c19.333 -16.667 29 -32 29 -46
c0 -11.333 -6 -25.666 -18 -42.999l-351 -500h370v-116h-465l-14 -8c-4.66699 -2.66699 -9.66699 -4 -15 -4zM270.5 780.999c-10.333 8 -15.501 17.333 -15.501 28c0 2 0.666992 5 2 9l2 6l-131 138h136l60 -81l55 81h133l-133 -159
c-10.667 -12.667 -20.5 -21.5 -29.5 -26.5s-20.5 -7.5 -34.5 -7.5c-19.333 0 -34.166 4 -44.499 12z" />
    <glyph glyph-name="zcaron" unicode="&#x17e;" horiz-adv-x="545" 
d="M102 -10c-10 0 -20.501 3.66504 -31.501 10.998s-20.833 19 -29.5 35c-4 8 -6 15.333 -6 22c0 12.667 6.66699 23.334 20 32.001c5.33301 3.33301 10.333 7.66602 15 12.999l256 276h-266v106h335c14 0 23.667 1.66699 29 5c4.66699 3.33301 11 5 19 5
c8.66699 0 17.5 -2.16699 26.5 -6.5s17.167 -11.166 24.5 -20.499c10.667 -14 16 -26 16 -36c0 -11.333 -5.33301 -22.666 -16 -33.999l-271 -292h284v-106h-356c-13.333 0 -23.666 -2 -30.999 -6c-4.66699 -2.66699 -10.667 -4 -18 -4zM230.499 565.998
c-10.333 8 -15.501 17.333 -15.501 28c0 2 0.666992 5 2 9l2 6l-131 138h136l60 -81l55 81h133l-133 -159c-10.667 -12.667 -20.5 -21.5 -29.5 -26.5s-20.5 -7.5 -34.5 -7.5c-19.333 0 -34.166 4 -44.499 12z" />
    <glyph glyph-name="uni018F" unicode="&#x18f;" horiz-adv-x="699" 
d="M181.5 33.5c-47 29 -83.167 69.168 -108.5 120.501s-38 109.666 -38 174.999c0 22 7.16699 38.833 21.5 50.5s34.166 17.5 59.499 17.5h412c0 70 -14.5 121.833 -43.5 155.5s-76.167 50.5 -141.5 50.5c-38 0 -73.5 -6.33301 -106.5 -19s-67.5 -32 -103.5 -58l-70 86
c39.333 30.667 83.666 54.667 132.999 72s98.333 26 147 26c108.667 0 189.334 -32 242.001 -96s79 -153.333 79 -268c0 -68.667 -13 -130 -39 -184s-63.167 -96.167 -111.5 -126.5s-104.166 -45.5 -167.499 -45.5c-62.667 0 -117.5 14.5 -164.5 43.5zM483 148.001
c30.667 34 45.999 81.667 45.999 143h-361c0 -60.667 15.167 -108.167 45.5 -142.5s74.5 -51.5 132.5 -51.5c60.667 0 106.334 17 137.001 51z" />
    <glyph glyph-name="florin" unicode="&#x192;" horiz-adv-x="632" 
d="M93 -123.5c-22 6.33301 -41.3359 14.167 -58.0029 23.5l39 95c28.667 -14 54.667 -21 78 -21c14.667 0 25.5 4 32.5 12s12.833 24.333 17.5 49l50 284h-109l46 106h82l26 153c8.66699 52 27.834 91.333 57.501 118s71.834 40 126.501 40
c16.667 0 35.834 -2.5 57.501 -7.5s41.167 -11.5 58.5 -19.5l-43 -98c-24 12 -46.333 18 -67 18c-18 0 -31.5 -4.16699 -40.5 -12.5s-15.5 -24.5 -19.5 -48.5l-23 -143h151l-46 -106h-124l-53 -294c-10 -54.667 -28.667 -94.667 -56 -120s-66 -38 -116 -38
c-22.667 0 -45 3.16699 -67 9.5z" />
    <glyph glyph-name="Ohorn" unicode="&#x1a0;" horiz-adv-x="692" 
d="M710 795l0.000976562 -22c0 -92 -41 -150.667 -123 -176c46.667 -62.667 70 -145 70 -247c0 -72.667 -12.167 -136 -36.5 -190s-59.833 -95.833 -106.5 -125.5s-102.667 -44.5 -168 -44.5s-121.333 14.833 -168 44.5s-82.167 71.5 -106.5 125.5s-36.5 117.333 -36.5 190
s12.167 136 36.5 190s59.833 95.833 106.5 125.5s102.667 44.5 168 44.5c55.333 0 103.666 -10.667 144.999 -32c36 0.666992 61.333 8.16699 76 22.5s22 35.833 22 64.5v30h121zM476.001 165.5c30 44.333 45 105.833 45 184.5s-15 140.167 -45 184.5
s-73.333 66.5 -130 66.5s-100 -22.167 -130 -66.5s-45 -105.833 -45 -184.5s15 -140.167 45 -184.5s73.333 -66.5 130 -66.5s100 22.167 130 66.5z" />
    <glyph glyph-name="ohorn" unicode="&#x1a1;" horiz-adv-x="568" 
d="M629 581l0.000976562 -21.999c0 -48 -11.167 -86.833 -33.5 -116.5s-54.5 -50.167 -96.5 -61.5c22.667 -40 34 -86.333 34 -139c0 -50 -10.167 -94.167 -30.5 -132.5s-49.333 -68 -87 -89s-81.5 -31.5 -131.5 -31.5s-93.833 10.5 -131.5 31.5s-66.667 50.667 -87 89
s-30.5 82.5 -30.5 132.5s10.167 94.167 30.5 132.5s49.333 68 87 89s81.5 31.5 131.5 31.5c49.333 0 92.666 -10.333 129.999 -31c34 1.33301 58.167 9.16602 72.5 23.499s21.5 35.5 21.5 63.5v30h121zM370.001 134.501c19.333 25.667 29 61.5 29 107.5
s-9.66699 81.833 -29 107.5s-48 38.5 -86 38.5s-66.667 -12.833 -86 -38.5s-29 -61.5 -29 -107.5s9.66699 -81.833 29 -107.5s48 -38.5 86 -38.5s66.667 12.833 86 38.5z" />
    <glyph glyph-name="Uhorn" unicode="&#x1af;" horiz-adv-x="734" 
d="M798 757l0.00195312 -22c0 -59.333 -17 -104.5 -51 -135.5s-81.667 -48.833 -143 -53.5v-284c0 -85.333 -24.833 -152 -74.5 -200s-118.834 -72 -207.501 -72s-157.834 24 -207.501 72s-74.5 114.667 -74.5 200v438h134v-444c0 -49.333 13 -87.833 39 -115.5
s62.333 -41.5 109 -41.5s83 13.833 109 41.5s39 66.167 39 115.5v444h134v-58c26 4 44.667 13 56 27s17 33.333 17 58v30h121z" />
    <glyph glyph-name="uhorn" unicode="&#x1b0;" horiz-adv-x="556" 
d="M693 580l-0.000976562 -22.002c0 -59.333 -17 -104.5 -51 -135.5s-81.667 -48.833 -143 -53.5v-233c0 -20 1.5 -37.333 4.5 -52s8.83301 -31 17.5 -49l-117 -45c-6 10.667 -11.5 23.334 -16.5 38.001s-7.83301 27.334 -8.5 38.001
c-33.333 -50.667 -82.666 -76 -147.999 -76c-37.333 0 -70.333 8.5 -99 25.5s-51.167 41.333 -67.5 73s-24.5 68.167 -24.5 109.5v287h132v-287c0 -67.333 31.667 -101 95 -101c33.333 0 58.333 11.167 75 33.5s25 51.833 25 88.5v266h132v-20c26 4 44.667 13 56 27
s17 33.333 17 58v30h121z" />
    <glyph glyph-name="uni01CD" unicode="&#x1cd;" horiz-adv-x="714" 
d="M284 660c14 38.667 40 58 78 58c24 0 43 -5 57 -15s21 -23.667 21 -41c0 -4 -1.33301 -10 -4 -18l243 -644h-140l-66 185h-232l-66 -185h-140zM444 291l-86 241l-86 -241h172zM311.5 781c-10.333 8 -15.501 17.333 -15.501 28c0 2 0.666992 5 2 9l2 6l-131 138h136
l60 -81l55 81h133l-133 -159c-10.667 -12.667 -20.5 -21.5 -29.5 -26.5s-20.5 -7.5 -34.5 -7.5c-19.333 0 -34.166 4 -44.499 12z" />
    <glyph glyph-name="uni01CE" unicode="&#x1ce;" horiz-adv-x="586" 
d="M140 19c-32.667 19.333 -58.333 47.3301 -77 83.9971s-28 80.334 -28 131.001c0 54 9.5 100.667 28.5 140s45.667 69.333 80 90s74.5 31 120.5 31c54 0 99 -20.333 135 -61v51h127v-349c0 -23.333 2 -42.666 6 -57.999s10.333 -30.666 19 -45.999l-107 -42
c-20 22 -31.333 47 -34 75h-2c-18.667 -24 -41.5 -42.5 -68.5 -55.5s-56.5 -19.5 -88.5 -19.5c-41.333 0 -78.333 9.66699 -111 29zM366.001 132.497c20 25 30.001 58.501 30.001 100.501v18c0 38.667 -9.83301 71.5 -29.5 98.5s-47.834 40.5 -84.501 40.5
c-37.333 0 -65.833 -13.333 -85.5 -40s-29.5 -65.334 -29.5 -116.001c0 -45.333 9.5 -79.833 28.5 -103.5s46.5 -35.5 82.5 -35.5c38.667 0 68 12.5 88 37.5zM228.502 565.998c-10.333 8 -15.501 17.333 -15.501 28c0 2 0.666992 5 2 9l2 6l-131 138h136l60 -81l55 81h133
l-133 -159c-10.667 -12.667 -20.5 -21.5 -29.5 -26.5s-20.5 -7.5 -34.5 -7.5c-19.333 0 -34.166 4 -44.499 12z" />
    <glyph glyph-name="uni01CF" unicode="&#x1cf;" horiz-adv-x="304" 
d="M85 700h134v-700h-134v700zM101.5 781c-10.333 8 -15.501 17.333 -15.501 28c0 2 0.666992 5 2 9l2 6l-131 138h136l60 -81l55 81h133l-133 -159c-10.667 -12.667 -20.5 -21.5 -29.5 -26.5s-20.5 -7.5 -34.5 -7.5c-19.333 0 -34.166 4 -44.499 12z" />
    <glyph glyph-name="uni01D0" unicode="&#x1d0;" horiz-adv-x="280" 
d="M74 485h132v-485h-132v485zM89.5 566c-10.333 8 -15.501 17.333 -15.501 28c0 2 0.666992 5 2 9l2 6l-131 138h136l60 -81l55 81h133l-133 -159c-10.667 -12.667 -20.5 -21.5 -29.5 -26.5s-20.5 -7.5 -34.5 -7.5c-19.333 0 -34.166 4 -44.499 12z" />
    <glyph glyph-name="uni01D1" unicode="&#x1d1;" horiz-adv-x="692" 
d="M178 34.5c-46.667 29.667 -82.167 71.5 -106.5 125.5s-36.5 117.333 -36.5 190s12.167 136 36.5 190s59.833 95.833 106.5 125.5s102.667 44.5 168 44.5s121.333 -14.833 168 -44.5s82.167 -71.5 106.5 -125.5s36.5 -117.333 36.5 -190s-12.167 -136 -36.5 -190
s-59.833 -95.833 -106.5 -125.5s-102.667 -44.5 -168 -44.5s-121.333 14.833 -168 44.5zM476 165.5c30 44.333 45 105.833 45 184.5s-15 140.167 -45 184.5s-73.333 66.5 -130 66.5s-100 -22.167 -130 -66.5s-45 -105.833 -45 -184.5s15 -140.167 45 -184.5
s73.333 -66.5 130 -66.5s100 22.167 130 66.5zM295.5 781c-10.333 8 -15.501 17.333 -15.501 28c0 2 0.666992 5 2 9l2 6l-131 138h136l60 -81l55 81h133l-133 -159c-10.667 -12.667 -20.5 -21.5 -29.5 -26.5s-20.5 -7.5 -34.5 -7.5c-19.333 0 -34.166 4 -44.499 12z" />
    <glyph glyph-name="uni01D2" unicode="&#x1d2;" horiz-adv-x="568" 
d="M152.5 20.5c-37.667 21 -66.667 50.667 -87 89s-30.5 82.5 -30.5 132.5s10.167 94.167 30.5 132.5s49.333 68 87 89s81.5 31.5 131.5 31.5s93.833 -10.5 131.5 -31.5s66.667 -50.667 87 -89s30.5 -82.5 30.5 -132.5s-10.167 -94.167 -30.5 -132.5s-49.333 -68 -87 -89
s-81.5 -31.5 -131.5 -31.5s-93.833 10.5 -131.5 31.5zM370 134.5c19.333 25.667 29 61.5 29 107.5s-9.66699 81.833 -29 107.5s-48 38.5 -86 38.5s-66.667 -12.833 -86 -38.5s-29 -61.5 -29 -107.5s9.66699 -81.833 29 -107.5s48 -38.5 86 -38.5s66.667 12.833 86 38.5z
M233.5 566c-10.333 8 -15.501 17.333 -15.501 28c0 2 0.666992 5 2 9l2 6l-131 138h136l60 -81l55 81h133l-133 -159c-10.667 -12.667 -20.5 -21.5 -29.5 -26.5s-20.5 -7.5 -34.5 -7.5c-19.333 0 -34.166 4 -44.499 12z" />
    <glyph glyph-name="uni01D3" unicode="&#x1d3;" horiz-adv-x="644" 
d="M114.5 62c-49.667 48 -74.498 114.667 -74.498 200v438h134v-444c0 -49.333 13 -87.833 39 -115.5s62.333 -41.5 109 -41.5s83 13.833 109 41.5s39 66.167 39 115.5v444h134v-438c0 -85.333 -24.833 -152 -74.5 -200s-118.834 -72 -207.501 -72s-157.834 24 -207.501 72z
M271.502 781c-10.333 8 -15.501 17.333 -15.501 28c0 2 0.666992 5 2 9l2 6l-131 138h136l60 -81l55 81h133l-133 -159c-10.667 -12.667 -20.5 -21.5 -29.5 -26.5s-20.5 -7.5 -34.5 -7.5c-19.333 0 -34.166 4 -44.499 12z" />
    <glyph glyph-name="uni01D4" unicode="&#x1d4;" horiz-adv-x="556" 
d="M132 15.5c-28.667 17 -51.168 41.3311 -67.501 72.998s-24.5 68.167 -24.5 109.5v287h132v-287c0 -67.333 31.667 -101 95 -101c33.333 0 58.333 11.167 75 33.5s25 51.833 25 88.5v266h132v-349c0 -20 1.5 -37.333 4.5 -52s8.83301 -31 17.5 -49l-117 -45
c-6 10.667 -11.5 23.334 -16.5 38.001s-7.83301 27.334 -8.5 38.001c-33.333 -50.667 -82.666 -76 -147.999 -76c-37.333 0 -70.333 8.5 -99 25.5zM231.499 565.998c-10.333 8 -15.501 17.333 -15.501 28c0 2 0.666992 5 2 9l2 6l-131 138h136l60 -81l55 81h133l-133 -159
c-10.667 -12.667 -20.5 -21.5 -29.5 -26.5s-20.5 -7.5 -34.5 -7.5c-19.333 0 -34.166 4 -44.499 12z" />
    <glyph glyph-name="uni01D5" unicode="&#x1d5;" horiz-adv-x="644" 
d="M114.5 62c-49.667 48 -74.498 114.667 -74.498 200v438h134v-444c0 -49.333 13 -87.833 39 -115.5s62.333 -41.5 109 -41.5s83 13.833 109 41.5s39 66.167 39 115.5v444h134v-438c0 -85.333 -24.833 -152 -74.5 -200s-118.834 -72 -207.501 -72s-157.834 24 -207.501 72z
M155.002 800c-14.667 14 -22 31.667 -22 53s7.33301 39 22 53s33.334 21 56.001 21c22 0 40.167 -7.16699 54.5 -21.5s21.5 -31.833 21.5 -52.5s-7.16699 -38.167 -21.5 -52.5s-32.5 -21.5 -54.5 -21.5c-22.667 0 -41.334 7 -56.001 21zM381.002 800
c-14.667 14 -22 31.667 -22 53s7.33301 39 22 53s33.334 21 56.001 21c22 0 40.167 -7.16699 54.5 -21.5s21.5 -31.833 21.5 -52.5s-7.16699 -38.167 -21.5 -52.5s-32.5 -21.5 -54.5 -21.5c-22.667 0 -41.334 7 -56.001 21zM146.002 1068h352v-101h-352v101z" />
    <glyph glyph-name="uni01D6" unicode="&#x1d6;" horiz-adv-x="556" 
d="M132 15.5c-28.667 17 -51.168 41.3311 -67.501 72.998s-24.5 68.167 -24.5 109.5v287h132v-287c0 -67.333 31.667 -101 95 -101c33.333 0 58.333 11.167 75 33.5s25 51.833 25 88.5v266h132v-349c0 -20 1.5 -37.333 4.5 -52s8.83301 -31 17.5 -49l-117 -45
c-6 10.667 -11.5 23.334 -16.5 38.001s-7.83301 27.334 -8.5 38.001c-33.333 -50.667 -82.666 -76 -147.999 -76c-37.333 0 -70.333 8.5 -99 25.5zM114.999 584.998c-14.667 14 -22 31.667 -22 53s7.33301 39 22 53s33.334 21 56.001 21c22 0 40.167 -7.16699 54.5 -21.5
s21.5 -31.833 21.5 -52.5s-7.16699 -38.167 -21.5 -52.5s-32.5 -21.5 -54.5 -21.5c-22.667 0 -41.334 7 -56.001 21zM340.999 584.998c-14.667 14 -22 31.667 -22 53s7.33301 39 22 53s33.334 21 56.001 21c22 0 40.167 -7.16699 54.5 -21.5s21.5 -31.833 21.5 -52.5
s-7.16699 -38.167 -21.5 -52.5s-32.5 -21.5 -54.5 -21.5c-22.667 0 -41.334 7 -56.001 21zM105.999 852.998h352v-101h-352v101z" />
    <glyph glyph-name="uni01D7" unicode="&#x1d7;" horiz-adv-x="644" 
d="M114.5 62c-49.667 48 -74.498 114.667 -74.498 200v438h134v-444c0 -49.333 13 -87.833 39 -115.5s62.333 -41.5 109 -41.5s83 13.833 109 41.5s39 66.167 39 115.5v444h134v-438c0 -85.333 -24.833 -152 -74.5 -200s-118.834 -72 -207.501 -72s-157.834 24 -207.501 72z
M343.002 1072h129l-107 -158h-94zM169.002 780c-13.333 12.667 -20 28.667 -20 48s6.66699 35.333 20 48s30 19 50 19s36.5 -6.5 49.5 -19.5s19.5 -28.833 19.5 -47.5s-6.5 -34.5 -19.5 -47.5s-29.5 -19.5 -49.5 -19.5s-36.667 6.33301 -50 19zM374.002 780
c-13.333 12.667 -20 28.667 -20 48s6.66699 35.333 20 48s30 19 50 19s36.5 -6.5 49.5 -19.5s19.5 -28.833 19.5 -47.5s-6.5 -34.5 -19.5 -47.5s-29.5 -19.5 -49.5 -19.5s-36.667 6.33301 -50 19z" />
    <glyph glyph-name="uni01D8" unicode="&#x1d8;" horiz-adv-x="556" 
d="M132 15.5c-28.667 17 -51.168 41.3311 -67.501 72.998s-24.5 68.167 -24.5 109.5v287h132v-287c0 -67.333 31.667 -101 95 -101c33.333 0 58.333 11.167 75 33.5s25 51.833 25 88.5v266h132v-349c0 -20 1.5 -37.333 4.5 -52s8.83301 -31 17.5 -49l-117 -45
c-6 10.667 -11.5 23.334 -16.5 38.001s-7.83301 27.334 -8.5 38.001c-33.333 -50.667 -82.666 -76 -147.999 -76c-37.333 0 -70.333 8.5 -99 25.5zM302.999 856.998h129l-107 -158h-94zM128.999 564.998c-13.333 12.667 -20 28.667 -20 48s6.66699 35.333 20 48s30 19 50 19
s36.5 -6.5 49.5 -19.5s19.5 -28.833 19.5 -47.5s-6.5 -34.5 -19.5 -47.5s-29.5 -19.5 -49.5 -19.5s-36.667 6.33301 -50 19zM333.999 564.998c-13.333 12.667 -20 28.667 -20 48s6.66699 35.333 20 48s30 19 50 19s36.5 -6.5 49.5 -19.5s19.5 -28.833 19.5 -47.5
s-6.5 -34.5 -19.5 -47.5s-29.5 -19.5 -49.5 -19.5s-36.667 6.33301 -50 19z" />
    <glyph glyph-name="uni01D9" unicode="&#x1d9;" horiz-adv-x="644" 
d="M114.5 62c-49.667 48 -74.498 114.667 -74.498 200v438h134v-444c0 -49.333 13 -87.833 39 -115.5s62.333 -41.5 109 -41.5s83 13.833 109 41.5s39 66.167 39 115.5v444h134v-438c0 -85.333 -24.833 -152 -74.5 -200s-118.834 -72 -207.501 -72s-157.834 24 -207.501 72z
M271.502 913c-9 7.33301 -13.502 15.667 -13.502 25c0 3.33301 0.333008 6 1 8l2 6l-119 125h123l55 -73l50 73h120l-120 -144c-9.33301 -11.333 -18.166 -19.333 -26.499 -24s-19.166 -7 -32.499 -7c-17.333 0 -30.5 3.66699 -39.5 11zM169 780.001
c-13.333 12.667 -20 28.667 -20 48s6.66699 35.333 20 48s30 19 50 19s36.5 -6.5 49.5 -19.5s19.5 -28.833 19.5 -47.5s-6.5 -34.5 -19.5 -47.5s-29.5 -19.5 -49.5 -19.5s-36.667 6.33301 -50 19zM374 780.001c-13.333 12.667 -20 28.667 -20 48s6.66699 35.333 20 48
s30 19 50 19s36.5 -6.5 49.5 -19.5s19.5 -28.833 19.5 -47.5s-6.5 -34.5 -19.5 -47.5s-29.5 -19.5 -49.5 -19.5s-36.667 6.33301 -50 19z" />
    <glyph glyph-name="uni01DA" unicode="&#x1da;" horiz-adv-x="556" 
d="M132 15.5c-28.667 17 -51.168 41.3311 -67.501 72.998s-24.5 68.167 -24.5 109.5v287h132v-287c0 -67.333 31.667 -101 95 -101c33.333 0 58.333 11.167 75 33.5s25 51.833 25 88.5v266h132v-349c0 -20 1.5 -37.333 4.5 -52s8.83301 -31 17.5 -49l-117 -45
c-6 10.667 -11.5 23.334 -16.5 38.001s-7.83301 27.334 -8.5 38.001c-33.333 -50.667 -82.666 -76 -147.999 -76c-37.333 0 -70.333 8.5 -99 25.5zM231.499 697.998c-9 7.33301 -13.502 15.667 -13.502 25c0 3.33301 0.333008 6 1 8l2 6l-119 125h123l55 -73l50 73h120
l-120 -144c-9.33301 -11.333 -18.166 -19.333 -26.499 -24s-19.166 -7 -32.499 -7c-17.333 0 -30.5 3.66699 -39.5 11zM128.997 564.999c-13.333 12.667 -20 28.667 -20 48s6.66699 35.333 20 48s30 19 50 19s36.5 -6.5 49.5 -19.5s19.5 -28.833 19.5 -47.5
s-6.5 -34.5 -19.5 -47.5s-29.5 -19.5 -49.5 -19.5s-36.667 6.33301 -50 19zM333.997 564.999c-13.333 12.667 -20 28.667 -20 48s6.66699 35.333 20 48s30 19 50 19s36.5 -6.5 49.5 -19.5s19.5 -28.833 19.5 -47.5s-6.5 -34.5 -19.5 -47.5s-29.5 -19.5 -49.5 -19.5
s-36.667 6.33301 -50 19z" />
    <glyph glyph-name="uni01DB" unicode="&#x1db;" horiz-adv-x="644" 
d="M114.5 62c-49.667 48 -74.498 114.667 -74.498 200v438h134v-444c0 -49.333 13 -87.833 39 -115.5s62.333 -41.5 109 -41.5s83 13.833 109 41.5s39 66.167 39 115.5v444h134v-438c0 -85.333 -24.833 -152 -74.5 -200s-118.834 -72 -207.501 -72s-157.834 24 -207.501 72z
M170.002 1072h129l72 -158h-94zM168.502 780.5c-13 13 -19.5 28.833 -19.5 47.5s6.5 34.5 19.5 47.5s29.5 19.5 49.5 19.5s36.667 -6.33301 50 -19s20 -28.667 20 -48s-6.66699 -35.333 -20 -48s-30 -19 -50 -19s-36.5 6.5 -49.5 19.5zM373.502 780.5
c-13 13 -19.5 28.833 -19.5 47.5s6.5 34.5 19.5 47.5s29.5 19.5 49.5 19.5s36.667 -6.33301 50 -19s20 -28.667 20 -48s-6.66699 -35.333 -20 -48s-30 -19 -50 -19s-36.5 6.5 -49.5 19.5z" />
    <glyph glyph-name="uni01DC" unicode="&#x1dc;" horiz-adv-x="556" 
d="M132 15.5c-28.667 17 -51.168 41.3311 -67.501 72.998s-24.5 68.167 -24.5 109.5v287h132v-287c0 -67.333 31.667 -101 95 -101c33.333 0 58.333 11.167 75 33.5s25 51.833 25 88.5v266h132v-349c0 -20 1.5 -37.333 4.5 -52s8.83301 -31 17.5 -49l-117 -45
c-6 10.667 -11.5 23.334 -16.5 38.001s-7.83301 27.334 -8.5 38.001c-33.333 -50.667 -82.666 -76 -147.999 -76c-37.333 0 -70.333 8.5 -99 25.5zM129.999 856.998h129l72 -158h-94zM128.499 565.498c-13 13 -19.5 28.833 -19.5 47.5s6.5 34.5 19.5 47.5
s29.5 19.5 49.5 19.5s36.667 -6.33301 50 -19s20 -28.667 20 -48s-6.66699 -35.333 -20 -48s-30 -19 -50 -19s-36.5 6.5 -49.5 19.5zM333.499 565.498c-13 13 -19.5 28.833 -19.5 47.5s6.5 34.5 19.5 47.5s29.5 19.5 49.5 19.5s36.667 -6.33301 50 -19s20 -28.667 20 -48
s-6.66699 -35.333 -20 -48s-30 -19 -50 -19s-36.5 6.5 -49.5 19.5z" />
    </font>
</defs>
</svg>
